<svg width="261" height="258" viewBox="0 0 261 258" fill="none" xmlns="http://www.w3.org/2000/svg">
<path d="M76.4594 230.746C77.7879 231.423 78.8597 232.296 79.6523 233.364C80.4583 234.427 80.9187 235.617 81.0376 236.947C81.1566 238.278 80.8861 239.601 80.2083 240.929C79.2028 242.9 77.5265 244.247 75.6557 244.742C73.7938 245.242 71.647 245 69.6765 243.995C68.1697 243.226 67.0046 242.272 66.1634 241.123L67.1938 239.39C67.8777 240.605 68.9174 241.562 70.3173 242.277C73.5133 243.963 77.0713 242.981 78.4963 240.056C79.0013 239.066 79.193 238.074 79.0848 237.075C78.9811 236.067 78.6124 235.159 77.9656 234.335C77.3187 233.51 76.4648 232.827 75.3948 232.281C73.6829 231.408 71.8002 231.178 70.2349 231.536L71.213 229.619C72.9779 229.486 74.7208 229.858 76.4594 230.746ZM66.1469 224.605C67.2965 225.389 67.978 226.326 68.1971 227.408C68.4162 228.49 68.1072 229.636 67.2839 230.844L65.2876 233.772C64.6842 234.656 64.2714 235.368 64.0492 235.908L62.205 234.65C62.6422 234.258 63.14 233.652 63.6926 232.841L65.5873 230.063C66.7998 228.285 66.4416 226.696 64.7296 225.528C64.159 225.139 63.5143 224.93 62.8177 224.903C62.1211 224.876 61.4839 225.011 60.8979 225.302C60.3174 225.585 59.858 225.974 59.5197 226.471L57.8787 228.877C57.2809 229.754 56.899 230.438 56.7384 230.923L54.8694 229.648C55.3487 229.212 55.8378 228.636 56.3397 227.9L59.4694 223.311C60.0277 222.492 60.4127 221.785 60.6439 221.179L62.5295 222.465C62.1629 222.736 61.7471 223.204 61.2904 223.874L60.8731 224.486L61.0054 224.576C62.6193 223.435 64.4515 223.449 66.1469 224.605ZM55.3993 216.577C55.9557 217.051 56.5158 217.659 57.0656 218.403C57.6218 219.139 58.0161 219.804 58.2624 220.394L57.1853 221.66C56.9844 221.016 56.6379 220.326 56.1305 219.579C55.6372 218.83 55.0976 218.213 54.526 217.727C53.2683 216.656 52.1179 216.479 51.4496 217.264C50.5607 218.308 51.7149 219.593 52.7912 220.969C53.3548 221.62 53.8092 222.414 54.0569 223.111C54.3112 223.801 54.1848 224.613 53.5814 225.322C53.0428 225.955 52.3066 226.248 51.3651 226.196C50.4313 226.151 49.4874 225.715 48.5193 224.891C48.0391 224.483 47.5815 224.001 47.1605 223.445C46.7395 222.89 46.4207 222.369 46.1976 221.89L47.1708 220.746C47.3482 221.186 47.63 221.689 48.0163 222.255C48.4167 222.819 48.869 223.322 49.3873 223.763C50.5688 224.769 51.7299 224.903 52.3268 224.202C53.2611 223.104 51.5602 221.643 50.4276 220.009C49.8569 219.181 49.4308 218.385 49.5351 217.474C49.5976 217.015 49.797 216.58 50.1538 216.161C50.7378 215.475 51.5152 215.164 52.4719 215.229C53.4351 215.286 54.416 215.74 55.3993 216.577ZM46.7188 208.462C48.5318 210.287 48.5685 212.056 46.8287 213.785L42.9159 217.672L44.7078 219.475L43.7633 220.414L41.9714 218.61L39.4008 221.164L37.8324 220.267L40.7439 217.374L37.7739 214.385L38.7184 213.446L41.6884 216.436L45.2532 212.895C46.5527 211.604 46.5634 210.521 45.3994 209.349C44.9055 208.852 44.3758 208.503 43.8173 208.31L44.9109 207.224C45.533 207.467 46.1403 207.879 46.7188 208.462ZM40.7444 201.479C41.8092 202.793 42.2756 204.18 42.1578 205.641C42.0464 207.11 41.3769 208.335 40.1557 209.324C38.9345 210.313 37.5972 210.713 36.1374 210.517C34.684 210.329 33.4179 209.577 32.3468 208.255C31.2884 206.948 30.8219 205.561 30.9397 204.1C31.0638 202.647 31.7332 201.422 32.9544 200.433C34.1756 199.444 35.5129 199.043 36.9664 199.232C38.4261 199.428 39.686 200.172 40.7444 201.479ZM40.5673 205.268C40.6718 204.204 40.3674 203.24 39.6554 202.361C38.9435 201.482 38.0635 200.984 37.0013 200.865C35.9391 200.746 34.9607 201.049 34.0507 201.787C33.1406 202.524 32.6411 203.418 32.5366 204.481C32.432 205.545 32.7364 206.509 33.4484 207.388C34.1603 208.267 35.0403 208.765 36.1025 208.884C37.1647 209.003 38.1431 208.7 39.0531 207.963C39.9632 207.225 40.4627 206.331 40.5673 205.268ZM34.3486 193.086L35.4838 195.032C34.9514 195.192 34.259 195.515 33.4031 196.014L28.6051 198.814C27.6887 199.349 27.0324 199.813 26.6311 200.198L25.4858 198.236C25.9606 198.156 26.5283 197.917 27.2027 197.523L27.8597 197.14L27.7638 196.976C25.7594 197.334 24.2383 196.634 23.204 194.862C22.1343 193.029 22.3451 191.365 23.7023 190.016L23.6215 189.878C21.674 190.215 20.0051 189.381 18.9607 187.591C17.5934 185.249 18.2883 183.163 20.7435 181.73L23.8039 179.944C24.6857 179.429 25.3679 178.95 25.847 178.519L26.9721 180.447C26.3223 180.664 25.6126 180.997 24.8259 181.456L21.9471 183.137C20.1402 184.191 19.616 185.656 20.6099 187.359C20.948 187.938 21.4164 188.383 22.0102 188.686C22.609 188.997 23.215 189.142 23.8382 189.137C24.4701 189.128 25.035 188.984 25.5465 188.708L28.1314 187.2C28.9354 186.73 29.5917 186.266 30.1003 185.807L31.2052 187.701C30.7088 187.863 30.0093 188.213 29.0843 188.753L26.2054 190.433C24.3986 191.488 23.8744 192.952 24.8683 194.656C25.2215 195.261 25.7036 195.71 26.3111 196.016C26.9185 196.322 27.5469 196.465 28.1773 196.433C28.8214 196.405 29.3985 196.242 29.9173 195.939L32.4503 194.461C33.3926 193.911 34.0179 193.453 34.3486 193.086ZM11.9988 179.224C12.2886 179.338 12.5053 179.561 12.6451 179.882C12.7848 180.203 12.7996 180.513 12.6895 180.812C12.5794 181.111 12.3755 181.32 12.0909 181.444C11.5035 181.699 10.8541 181.436 10.5706 180.784C10.2871 180.133 10.5453 179.496 11.1327 179.241C11.4173 179.117 11.709 179.11 11.9988 179.224ZM23.6402 173.866L24.5425 175.941C23.886 176.062 23.0647 176.332 22.0825 176.759L16.7219 179.091C15.9234 179.438 15.3926 179.724 15.1072 179.946C15.1347 179.683 15.0501 179.338 14.8544 178.888C14.6588 178.438 14.468 178.15 14.2728 178.028C14.6759 177.951 15.2518 177.744 15.9953 177.421L21.3559 175.089C22.3931 174.638 23.1546 174.23 23.6402 173.866ZM19.4424 162.032L22.7064 171.505L21.5045 171.919L12.0058 167.304L11.8958 167.384L13.5523 172.192C13.8164 172.959 14.0819 173.545 14.3582 173.947L12.7905 174.191L9.85908 165.683L11.042 165.275L20.5088 169.859L20.6442 169.791L18.6877 164.113C18.4171 163.327 18.1229 162.719 17.7957 162.292L19.4424 162.032ZM17.6558 153.535C18.0615 155.341 17.9042 156.926 17.1722 158.28C16.4521 159.642 15.3194 160.492 13.7665 160.84C12.2526 161.18 10.8721 160.926 9.63254 160.065C8.39295 159.205 7.59005 157.959 7.22167 156.318C6.85986 154.707 6.90687 153.363 7.37026 152.274C7.83365 151.185 8.57809 150.525 9.59382 150.297C11.6155 149.843 12.7822 151.11 13.508 154.343C13.8851 156.023 13.83 157.605 13.35 159.077L13.4328 159.171C14.5711 158.895 15.3936 158.218 15.8983 157.13C16.4029 156.042 16.5143 154.848 16.2205 153.539C16.0254 152.67 15.7337 151.873 15.3434 151.14C14.9553 150.417 14.5427 149.904 14.1056 149.602L15.6346 149.239C16.0187 149.624 16.4098 150.224 16.7861 151.032C17.1722 151.838 17.4628 152.675 17.6558 153.535ZM12.5943 155.071C12.0724 152.747 11.1962 151.723 9.95583 152.001C9.3503 152.137 8.89965 152.597 8.61584 153.389C8.33203 154.181 8.30793 155.079 8.53379 156.085C8.75087 157.052 9.22707 157.848 9.9548 158.485C10.6825 159.122 11.5452 159.4 12.5233 159.324C12.7098 158.738 12.8039 158.061 12.8196 157.308C12.8353 156.556 12.7588 155.804 12.5943 155.071ZM15.1404 133.438C15.2201 134.928 15.0025 136.292 14.4765 137.513C13.9609 138.744 13.1622 139.739 12.0707 140.509C10.9792 141.279 9.69904 141.709 8.20972 141.788C6.00072 141.907 3.99452 141.132 2.62805 139.762C1.26211 138.401 0.394362 136.423 0.276097 134.214C0.18566 132.525 0.426849 131.038 0.998596 129.735L3.01464 129.757C2.30706 130.958 2.00002 132.337 2.08403 133.907C2.22724 137.518 4.86166 140.103 8.10697 139.869C9.21647 139.81 10.171 139.478 10.9812 138.883C11.8014 138.288 12.4015 137.514 12.7905 136.541C13.1794 135.568 13.3421 134.487 13.2779 133.287C13.1751 131.368 12.4302 129.624 11.3348 128.449L13.4838 128.334C14.4842 129.794 15.0361 131.489 15.1404 133.438ZM15.2891 121.438C15.1858 122.826 14.7155 123.885 13.8882 124.616C13.0608 125.348 11.9139 125.654 10.4565 125.545L6.92279 125.282C5.8547 125.203 5.03171 125.202 4.45381 125.279L4.61952 123.053C5.1781 123.235 5.95151 123.363 6.92976 123.436L10.2838 123.686C12.4299 123.845 13.6264 122.74 13.7802 120.674C13.8315 119.985 13.6901 119.322 13.3646 118.705C13.0391 118.089 12.6034 117.605 12.0582 117.243C11.523 116.882 10.9559 116.679 10.357 116.635L7.45217 116.418C6.39406 116.34 5.61025 116.352 5.11072 116.455L5.27867 114.199C5.8964 114.395 6.63911 114.531 7.52752 114.597L13.0676 115.01C14.0558 115.083 14.8604 115.063 15.5004 114.96L15.331 117.236C14.9129 117.054 14.2999 116.928 13.4914 116.868L12.7527 116.813L12.7408 116.973C14.5362 117.799 15.4414 119.392 15.2891 121.438ZM16.8585 108.115C16.7271 108.833 16.4811 109.623 16.1124 110.471C15.7535 111.321 15.376 111.995 14.9879 112.504L13.3533 112.206C13.8104 111.709 14.2335 111.064 14.6264 110.251C15.0273 109.449 15.2912 108.673 15.4262 107.934C15.7231 106.31 15.3006 105.225 14.2864 105.04C12.9374 104.793 12.4032 106.436 11.7509 108.056C11.4699 108.87 11.0099 109.661 10.5304 110.225C10.0608 110.79 9.29413 111.087 8.37839 110.92C7.56111 110.771 6.93842 110.28 6.51212 109.439C6.08401 108.608 5.98825 107.573 6.21678 106.323C6.33014 105.702 6.51783 105.065 6.78789 104.422C7.05795 103.78 7.34941 103.243 7.65241 102.81L9.12941 103.08C8.83721 103.454 8.54311 103.949 8.2471 104.567C7.95915 105.196 7.74997 105.84 7.6276 106.509C7.34869 108.035 7.81418 109.107 8.72008 109.273C10.138 109.532 10.5509 107.328 11.3986 105.529C11.8292 104.621 12.3052 103.853 13.1454 103.488C13.5744 103.312 14.0507 103.267 14.5923 103.366C15.4785 103.528 16.137 104.045 16.5597 104.906C16.9922 105.768 17.0906 106.844 16.8585 108.115ZM19.5372 96.5378C18.8651 99.0209 17.3516 99.9386 14.9843 99.2979L9.66052 97.857L8.99628 100.311L7.71122 99.9634L8.37546 97.5092L4.87777 96.5625L4.86902 94.7558L8.83049 95.828L9.93145 91.7602L11.2165 92.108L10.1155 96.1758L14.9659 97.4886C16.7341 97.9671 17.6768 97.4342 18.1083 95.8399C18.2914 95.1636 18.3279 94.5305 18.2153 93.9505L19.7033 94.3532C19.8046 95.0132 19.7516 95.7455 19.5372 96.5378ZM22.6002 87.8752C21.9929 89.4541 21.0241 90.5507 19.6996 91.1781C18.3715 91.8148 16.9758 91.8463 15.5091 91.2822C14.0423 90.718 13.0276 89.7592 12.4685 88.3966C11.9058 87.0434 11.9253 85.5709 12.5362 83.9826C13.1399 82.4131 14.1087 81.3165 15.4332 80.6891C16.7541 80.0711 18.1498 80.0395 19.6165 80.6037C21.0833 81.1679 22.098 82.1266 22.6607 83.4799C23.2198 84.8425 23.2039 86.3057 22.6002 87.8752ZM19.2289 89.6135C20.2027 89.173 20.8862 88.4278 21.2922 87.3721C21.6983 86.3164 21.6905 85.3053 21.2629 84.3257C20.8353 83.3462 20.0843 82.6498 18.9913 82.2293C17.8982 81.8089 16.8741 81.8225 15.9003 82.263C14.9265 82.7035 14.243 83.4487 13.837 84.5044C13.4309 85.5601 13.4388 86.5713 13.8663 87.5508C14.2939 88.5304 15.0449 89.2268 16.138 89.6472C17.231 90.0677 18.2551 90.0541 19.2289 89.6135ZM26.6813 78.1457L25.5608 80.0993C25.1567 79.7175 24.5316 79.2782 23.672 78.7852L18.853 76.0212C17.9326 75.4933 17.2031 75.1557 16.6694 74.9997L17.7999 73.0286C18.106 73.4003 18.5958 73.7736 19.2731 74.162L19.933 74.5405L20.0276 74.3756C18.7178 72.8165 18.5665 71.1489 19.5874 69.3689C20.6432 67.5281 22.1912 66.8812 24.0366 67.3858L24.1163 67.2469C22.8536 65.7264 22.7448 63.8639 23.7757 62.0665C25.1253 59.7134 27.2802 59.2761 29.7461 60.6905L32.8199 62.4535C33.7055 62.9614 34.4611 63.314 35.0729 63.5149L33.9623 65.4512C33.4502 64.9959 32.8078 64.5467 32.0177 64.0935L29.1263 62.4351C27.3115 61.3943 25.7802 61.6699 24.7992 63.3805C24.4655 63.9622 24.313 64.5902 24.3467 65.2558C24.3754 65.93 24.552 66.5274 24.8665 67.0655C25.1897 67.6086 25.5963 68.0264 26.0899 68.3327L28.6861 69.8217C29.4936 70.2849 30.2231 70.6225 30.8746 70.8346L29.7839 72.7362C29.3959 72.3867 28.7435 71.9548 27.8145 71.4219L24.923 69.7635C23.1083 68.7227 21.577 68.9984 20.5959 70.7089C20.2473 71.3167 20.0985 71.9584 20.1359 72.6375C20.1733 73.3167 20.3623 73.9329 20.7041 74.4636C21.0497 75.0079 21.4786 75.427 21.9995 75.7258L24.5437 77.185C25.4901 77.7278 26.1985 78.0418 26.6813 78.1457ZM27.5604 51.8603C27.6059 52.1684 27.5212 52.4671 27.3123 52.7484C27.1034 53.0296 26.8419 53.197 26.5278 53.2505C26.2138 53.304 25.9312 53.2312 25.6821 53.0462C25.1678 52.6642 25.0725 51.97 25.4962 51.3995C25.92 50.8289 26.6002 50.7357 27.1145 51.1177C27.3636 51.3027 27.5149 51.5522 27.5604 51.8603ZM38.0071 59.2832L36.6582 61.0992C36.2255 60.5907 35.5821 60.0132 34.7223 59.3745L30.0295 55.8888C29.3304 55.3696 28.8184 55.0516 28.4835 54.9151C28.7252 54.8078 28.9823 54.5624 29.2748 54.1687C29.5673 53.7749 29.722 53.4659 29.7309 53.2356C29.9986 53.5467 30.4649 53.9429 31.1158 54.4264L35.8086 57.912C36.7166 58.5865 37.4495 59.0435 38.0071 59.2832ZM46.1569 49.7301L39.5871 57.2954L38.6273 56.4619L37.8713 45.9286L37.7468 45.8735L34.4127 49.7129C33.881 50.325 33.5063 50.8481 33.2961 51.2886L32.3009 50.0532L38.2012 43.2588L39.1459 44.0792L39.9131 54.5691L40.0396 54.6524L43.9775 50.1178C44.5223 49.4905 44.9016 48.9316 45.1078 48.4346L46.1569 49.7301ZM52.6133 43.9238C51.2537 45.181 49.8042 45.8397 48.2653 45.8858C46.7258 45.946 45.4229 45.392 44.3424 44.2235C43.289 43.0844 42.8166 41.7625 42.9392 40.2586C43.0618 38.7546 43.7368 37.4352 44.9714 36.2935C46.1841 35.1722 47.3705 34.5386 48.545 34.3933C49.7194 34.248 50.6634 34.5612 51.3702 35.3255C52.7769 36.8468 52.2663 38.4915 49.8337 40.7409C48.5696 41.9097 47.1733 42.6555 45.659 42.9788L45.6189 43.0976C46.4287 43.9439 47.4271 44.3159 48.6214 44.2068C49.8157 44.0977 50.9049 43.5949 51.8897 42.6843C52.5438 42.0794 53.0864 41.4277 53.5249 40.7224C53.956 40.0238 54.1925 39.4098 54.2345 38.8801L55.3161 40.0204C55.1751 40.5461 54.8526 41.1852 54.3423 41.9161C53.8389 42.6543 53.2601 43.3258 52.6133 43.9238ZM48.7453 40.3158C50.4945 38.6984 50.9409 37.4267 50.0778 36.4933C49.6565 36.0376 49.0323 35.8786 48.2047 36.0304C47.3771 36.1822 46.5882 36.6117 45.8312 37.3117C45.1036 37.9845 44.6539 38.7957 44.4681 39.7446C44.2822 40.6936 44.4742 41.5795 45.0305 42.3875C45.6307 42.2551 46.2641 41.9966 46.9229 41.6328C47.5818 41.269 48.1941 40.8255 48.7453 40.3158ZM68.749 31.6856C67.4976 32.497 66.2058 32.9887 64.8851 33.1412C63.5614 33.3076 62.3006 33.1111 61.0889 32.5487C59.8772 31.9863 58.8669 31.0905 58.0555 29.8391C56.8519 27.983 56.5236 25.8576 57.0305 23.99C57.529 22.1278 58.8116 20.3894 60.6677 19.1859C62.0871 18.2655 63.496 17.7337 64.9112 17.5796L65.8966 19.3386C64.503 19.3236 63.1539 19.7451 61.8353 20.6001C58.7761 22.524 57.8477 26.0966 59.668 28.7935C60.2725 29.7257 61.0359 30.3879 61.9553 30.7939C62.8801 31.2083 63.8502 31.3428 64.8876 31.195C65.9251 31.0471 66.9436 30.6492 67.9514 29.9957C69.564 28.9501 70.705 27.4348 71.1771 25.8999L72.348 27.7056C71.5808 29.3006 70.3867 30.6237 68.749 31.6856ZM79.2191 25.8139C77.9667 26.4201 76.8146 26.544 75.767 26.1948C74.7194 25.8455 73.8796 25.0065 73.2429 23.6911L71.6992 20.5016C71.2326 19.5375 70.8209 18.8249 70.4642 18.3637L72.4734 17.3912C72.5958 17.9658 72.8729 18.6991 73.3003 19.582L74.7656 22.6094C75.7032 24.5465 77.2594 25.0276 79.1244 24.1249C79.7461 23.824 80.2489 23.3694 80.6191 22.7787C80.9894 22.188 81.1898 21.5683 81.2296 20.9152C81.2737 20.2711 81.1649 19.6788 80.9033 19.1382L79.6342 16.5163C79.172 15.5613 78.7688 14.889 78.4289 14.5086L80.4652 13.523C80.6048 14.1561 80.8597 14.8667 81.2479 15.6686L83.6682 20.669C84.0999 21.561 84.5209 22.2469 84.9308 22.7491L82.8765 23.7434C82.8241 23.2906 82.6258 22.6971 82.2726 21.9673L81.9499 21.3006L81.8057 21.3703C81.9908 23.3381 81.0661 24.9199 79.2191 25.8139ZM91.5362 20.5023C90.8479 20.7478 90.0412 20.9293 89.1221 21.0339C88.2063 21.148 87.434 21.1578 86.7991 21.0761L86.2408 19.5111C86.8993 19.6588 87.6695 19.7029 88.5705 19.6366C89.4654 19.583 90.2694 19.4238 90.9765 19.1716C92.5321 18.6167 93.2603 17.7086 92.9139 16.7376C92.4532 15.4459 90.7637 15.8042 89.0338 16.0492C88.1887 16.2125 87.2736 16.2095 86.5458 16.0759C85.8214 15.9517 85.1806 15.4364 84.8678 14.5596C84.5887 13.777 84.7021 12.9927 85.2175 12.203C85.7235 11.4168 86.5721 10.8165 87.7695 10.3894C88.3634 10.1775 89.0092 10.0216 89.7008 9.93432C90.3923 9.84706 91.003 9.83114 91.5295 9.87713L92.034 11.2913C91.564 11.2251 90.9877 11.2182 90.3049 11.2704C89.616 11.3355 88.9541 11.476 88.313 11.7046C86.8517 12.2259 86.1558 13.1649 86.4652 14.0323C86.9494 15.3899 89.0646 14.646 91.0463 14.4812C92.0483 14.4001 92.9512 14.4287 93.6876 14.9737C94.0544 15.2573 94.3317 15.6473 94.5167 16.1658C94.8193 17.0144 94.7005 17.8432 94.1662 18.6395C93.6353 19.4453 92.7524 20.0685 91.5362 20.5023ZM102.911 17.0689C100.421 17.7152 98.8736 16.855 98.2575 14.4813L96.8719 9.14277L94.411 9.78151L94.0765 8.49291L96.5375 7.85417L95.6272 4.34685L97.1923 3.44423L98.2233 7.41661L102.302 6.35792L102.637 7.64652L98.5578 8.70521L99.8202 13.569C100.28 15.342 101.21 15.8969 102.809 15.482C103.487 15.306 104.055 15.0241 104.503 14.6389L104.891 16.131C104.367 16.546 103.705 16.8627 102.911 17.0689ZM111.948 15.3895C110.278 15.6562 108.843 15.3683 107.636 14.5372C106.419 13.7077 105.691 12.5162 105.444 10.9643C105.196 9.41244 105.516 8.05369 106.414 6.8865C107.303 5.72089 108.586 4.99901 110.267 4.73075C111.927 4.46564 113.362 4.75357 114.569 5.58465C115.766 6.4173 116.494 7.60878 116.742 9.16066C116.989 10.7125 116.669 12.0713 115.781 13.2369C114.882 14.4041 113.609 15.1244 111.948 15.3895ZM108.753 13.3452C109.623 13.9666 110.61 14.184 111.727 14.0057C112.844 13.8273 113.715 13.3133 114.348 12.452C114.981 11.5907 115.206 10.5917 115.022 9.43524C114.837 8.27874 114.312 7.39967 113.442 6.77825C112.572 6.15683 111.585 5.93943 110.468 6.11775C109.351 6.29606 108.48 6.81013 107.847 7.6714C107.214 8.53267 106.989 9.53167 107.173 10.6882C107.358 11.8447 107.883 12.7237 108.753 13.3452ZM122.412 14.0452L120.16 14.0523C120.289 13.5114 120.356 12.7504 120.353 11.7594L120.336 6.20405C120.332 5.14302 120.26 4.34246 120.128 3.80235L122.4 3.79519C122.231 4.24616 122.153 4.85701 122.156 5.63777L122.158 6.39851L122.348 6.39791C123.043 4.48384 124.411 3.51859 126.463 3.51213C128.585 3.50544 129.92 4.52224 130.406 6.37252L130.566 6.37202C131.251 4.51804 132.809 3.49213 134.881 3.4856C137.594 3.47706 139.051 5.12409 139.06 7.96685L139.071 11.5103C139.074 12.5313 139.147 13.3619 139.279 13.9921L137.047 13.9991C137.185 13.328 137.252 12.547 137.249 11.6361L137.239 8.30291C137.232 6.21088 136.228 5.02288 134.256 5.02909C133.585 5.0312 132.965 5.21333 132.406 5.57545C131.836 5.93759 131.407 6.38939 131.099 6.93089C130.79 7.4824 130.632 8.04345 130.613 8.62408L130.623 11.617C130.626 12.5479 130.698 13.3484 130.841 14.0187L128.648 14.0256C128.757 13.5147 128.805 12.7338 128.801 11.6628L128.791 8.32952C128.784 6.23749 127.779 5.04949 125.807 5.0557C125.107 5.05791 124.477 5.25008 123.907 5.62224C123.338 5.9944 122.899 6.46624 122.611 7.0277C122.312 7.5992 122.164 8.18024 122.166 8.78082L122.175 11.7137C122.178 12.8047 122.261 13.5752 122.412 14.0452ZM145.618 1.65709C145.374 1.85058 145.073 1.92666 144.725 1.88646C144.377 1.84626 144.101 1.70357 143.898 1.45839C143.694 1.21322 143.616 0.932103 143.651 0.623849C143.725 -0.0125445 144.278 -0.442356 144.984 -0.360808C145.69 -0.279261 146.111 0.263109 146.038 0.899502C146.002 1.20776 145.862 1.4636 145.618 1.65709ZM144.416 14.416L142.169 14.1564C142.393 13.5273 142.571 12.6813 142.694 11.6174L143.365 5.81027C143.465 4.94517 143.484 4.34281 143.435 3.98444C143.648 4.14013 143.989 4.23999 144.477 4.29627C144.964 4.35255 145.309 4.33193 145.513 4.22449C145.377 4.6119 145.267 5.21387 145.174 6.0193L144.504 11.8264C144.374 12.95 144.345 13.8132 144.416 14.416ZM156.77 16.674L146.929 14.7878L147.168 13.5393L155.9 7.59953L155.885 7.46419L150.891 6.50695C150.095 6.35432 149.454 6.29271 148.968 6.33195L149.537 4.85111L158.375 6.54511L158.139 7.77396L149.451 13.7016L149.442 13.8529L155.341 14.9835C156.156 15.1399 156.83 15.1875 157.364 15.1164L156.77 16.674ZM165.019 19.3847C163.252 18.8294 161.96 17.8987 161.156 16.5861C160.339 15.28 160.172 13.8741 160.649 12.3558C161.115 10.8756 162.027 9.80888 163.393 9.16802C164.759 8.52717 166.24 8.45736 167.844 8.96161C169.419 9.45685 170.559 10.1717 171.268 11.1187C171.978 12.0658 172.175 13.0406 171.863 14.0337C171.242 16.0104 169.561 16.3844 166.4 15.3909C164.758 14.8747 163.417 14.0335 162.384 12.8799L162.261 12.9042C161.929 14.0275 162.102 15.0787 162.79 16.0609C163.478 17.0432 164.455 17.7386 165.735 18.1408C166.585 18.408 167.42 18.555 168.25 18.5851C169.07 18.6121 169.721 18.5123 170.201 18.2856L169.749 19.7908C169.223 19.9296 168.508 19.9673 167.62 19.8876C166.73 19.8174 165.859 19.6488 165.019 19.3847ZM166.228 14.2352C168.501 14.9496 169.826 14.7051 170.208 13.4924C170.394 12.9003 170.221 12.2796 169.679 11.6368C169.136 10.994 168.371 10.5228 167.387 10.2136C166.442 9.91649 165.515 9.92929 164.599 10.2395C163.683 10.5497 163.009 11.1564 162.585 12.0407C162.998 12.4958 163.537 12.9171 164.18 13.3081C164.823 13.699 165.512 14.0101 166.228 14.2352ZM183.682 27.2533C182.353 26.5761 181.281 25.7039 180.488 24.6369C179.681 23.5743 179.22 22.3845 179.1 21.054C178.981 19.7235 179.251 18.4005 179.928 17.0716C180.932 15.1006 182.608 13.7525 184.478 13.2564C186.34 12.7558 188.487 12.996 190.458 14.0003C191.965 14.7684 193.131 15.7218 193.972 16.8698L192.943 18.6033C192.258 17.3894 191.218 16.4325 189.818 15.719C186.621 14.0338 183.064 15.0184 181.64 17.9442C181.136 18.9342 180.944 19.9265 181.053 20.9256C181.158 21.9337 181.527 22.8408 182.174 23.6649C182.821 24.4891 183.676 25.1716 184.746 25.7169C186.458 26.5895 188.341 26.8187 189.906 26.4591L188.929 28.3766C187.164 28.5109 185.421 28.1395 183.682 27.2533ZM193.993 33.3943C192.844 32.6097 192.163 31.6721 191.945 30.5896C191.726 29.5072 192.036 28.3612 192.86 27.1543L194.858 24.228C195.462 23.3435 195.876 22.6318 196.098 22.0929L197.942 23.3516C197.504 23.7438 197.006 24.349 196.453 25.1591L194.556 27.9367C193.343 29.7139 193.7 31.3032 195.411 32.4717C195.981 32.8611 196.626 33.071 197.322 33.0981C198.019 33.1253 198.656 32.9908 199.242 32.7002C199.823 32.418 200.283 32.0288 200.621 31.5328L202.264 29.1273C202.862 28.2511 203.245 27.5668 203.406 27.0827L205.274 28.3584C204.794 28.7945 204.305 29.3693 203.802 30.105L200.67 34.6929C200.111 35.5113 199.725 36.2177 199.494 36.8232L197.609 35.5362C197.976 35.2654 198.392 34.7981 198.849 34.1285L199.267 33.5168L199.134 33.4265C197.52 34.5663 195.688 34.5515 193.993 33.3943ZM204.741 41.4244C204.185 40.9512 203.624 40.3433 203.074 39.5996C202.517 38.8636 202.122 38.1997 201.876 37.609L202.952 36.343C203.153 36.9871 203.5 37.6762 204.008 38.4232C204.502 39.1714 205.042 39.7881 205.614 40.2743C206.872 41.344 208.023 41.5206 208.691 40.7351C209.579 39.6902 208.424 38.4062 207.346 37.0307C206.783 36.3805 206.328 35.5865 206.079 34.8894C205.825 34.1999 205.951 33.3873 206.553 32.678C207.092 32.045 207.828 31.751 208.769 31.8025C209.703 31.8476 210.647 32.2823 211.616 33.1057C212.096 33.5141 212.554 33.9954 212.976 34.5506C213.397 35.1059 213.716 35.6268 213.94 36.1058L212.967 37.2498C212.789 36.8097 212.507 36.3071 212.121 35.7419C211.72 35.1779 211.267 34.6749 210.749 34.2341C209.566 33.2292 208.405 33.096 207.809 33.7977C206.875 34.8959 208.577 36.3558 209.711 37.9895C210.282 38.8166 210.709 39.6129 210.605 40.5231C210.543 40.9827 210.344 41.4178 209.987 41.8372C209.404 42.5236 208.626 42.8351 207.67 42.7707C206.706 42.7138 205.725 42.2607 204.741 41.4244ZM213.407 49.5545C211.601 47.7228 211.57 45.9531 213.317 44.2311L217.244 40.3584L215.458 38.5481L216.406 37.6134L218.192 39.4237L220.772 36.8794L222.337 37.7821L219.414 40.6638L222.373 43.6643L221.426 44.5991L218.467 41.5986L214.889 45.1269C213.584 46.4131 213.57 47.4959 214.73 48.6719C215.222 49.1708 215.75 49.5213 216.308 49.7163L215.21 50.7987C214.589 50.5537 213.983 50.1389 213.407 49.5545ZM219.379 56.5416C218.314 55.2278 217.846 53.8412 217.963 52.3803C218.073 50.9116 218.742 49.6861 219.963 48.6961C221.183 47.7061 222.52 47.3047 223.98 47.4996C225.434 47.6867 226.7 48.4379 227.772 49.7594C228.832 51.0654 229.299 52.452 229.182 53.9129C229.059 55.366 228.391 56.5915 227.17 57.5815C225.95 58.5716 224.613 58.973 223.159 58.7859C221.699 58.591 220.439 57.8476 219.379 56.5416ZM219.554 52.7525C219.45 53.8163 219.755 54.7803 220.468 55.6588C221.18 56.5372 222.061 57.0346 223.123 57.1525C224.185 57.2703 225.163 56.9667 226.073 56.2289C226.982 55.4911 227.481 54.5967 227.585 53.5329C227.689 52.4692 227.384 51.5051 226.671 50.6267C225.959 49.7482 225.078 49.2508 224.016 49.133C222.954 49.0151 221.976 49.3187 221.066 50.0565C220.157 50.7943 219.658 51.6888 219.554 52.7525ZM225.777 64.9318L224.643 62.986C225.176 62.8262 225.868 62.5036 226.724 62.0046L231.524 59.2069C232.44 58.6726 233.097 58.2087 233.498 57.8241L234.643 59.7872C234.168 59.867 233.6 60.1053 232.926 60.4985L232.268 60.8816L232.364 61.0459C234.369 60.6884 235.889 61.3893 236.923 63.1621C237.992 64.9954 237.78 66.6597 236.422 68.0074L236.503 68.1458C238.45 67.8099 240.119 68.6448 241.162 70.4349C242.528 72.7784 241.832 74.8641 239.376 76.2957L236.315 78.0802C235.433 78.5944 234.751 79.0733 234.271 79.5033L233.147 77.5749C233.797 77.3582 234.507 77.0255 235.294 76.5668L238.174 74.8882C239.981 73.8346 240.506 72.37 239.513 70.6664C239.175 70.087 238.707 69.6415 238.113 69.3387C237.515 69.0273 236.909 68.8823 236.286 68.8864C235.654 68.8956 235.089 69.0395 234.577 69.3146L231.991 70.8218C231.187 71.2906 230.531 71.7544 230.022 72.2132L228.918 70.3194C229.414 70.1574 230.114 69.8074 231.039 69.2681L233.919 67.5894C235.726 66.5359 236.251 65.0712 235.258 63.3676C234.906 62.7623 234.424 62.3132 233.816 62.0068C233.209 61.7004 232.581 61.5568 231.95 61.5883C231.306 61.6162 230.729 61.7789 230.21 62.0813L227.676 63.5583C226.734 64.1078 226.108 64.5651 225.777 64.9318ZM248.119 78.7964C247.829 78.6824 247.612 78.4602 247.473 78.139C247.333 77.8178 247.318 77.5076 247.428 77.2087C247.538 76.9097 247.742 76.7009 248.026 76.577C248.614 76.3213 249.263 76.5845 249.547 77.2361C249.83 77.8877 249.573 78.524 248.985 78.7797C248.701 78.9036 248.409 78.9105 248.119 78.7964ZM236.479 84.1579L235.576 82.0837C236.233 81.9617 237.054 81.6916 238.036 81.2641L243.396 78.931C244.194 78.5834 244.725 78.2978 245.01 78.0754C244.983 78.3384 245.068 78.6836 245.264 79.1333C245.459 79.583 245.65 79.8711 245.845 79.9936C245.442 80.0708 244.866 80.2778 244.123 80.6014L238.763 82.9345C237.726 83.3859 236.965 83.7937 236.479 84.1579ZM240.675 95.9939L237.413 86.5197L238.615 86.1059L248.113 90.7233L248.223 90.6431L246.568 85.835C246.304 85.0684 246.038 84.4822 245.762 84.0797L247.33 83.8365L250.259 92.3452L249.076 92.7525L239.61 88.1664L239.475 88.2342L241.43 93.9131C241.7 94.6986 241.994 95.3067 242.321 95.734L240.675 95.9939ZM242.452 104.494C242.049 102.686 242.208 101.102 242.942 99.7488C243.664 98.3877 244.797 97.5398 246.351 97.1931C247.865 96.8551 249.245 97.1111 250.484 97.973C251.722 98.835 252.524 100.082 252.89 101.723C253.25 103.335 253.201 104.679 252.736 105.767C252.272 106.856 251.526 107.514 250.51 107.741C248.488 108.193 247.323 106.924 246.601 103.691C246.226 102.01 246.283 100.429 246.765 98.9569L246.682 98.8626C245.544 99.1372 244.72 99.8133 244.214 100.901C243.708 101.988 243.595 103.182 243.888 104.491C244.082 105.361 244.372 106.157 244.762 106.891C245.149 107.615 245.561 108.128 245.998 108.431L244.468 108.792C244.085 108.406 243.694 107.806 243.319 106.998C242.934 106.191 242.644 105.354 242.452 104.494ZM247.516 102.964C248.035 105.289 248.91 106.314 250.15 106.037C250.756 105.902 251.207 105.442 251.492 104.65C251.777 103.859 251.802 102.961 251.578 101.954C251.362 100.987 250.886 100.191 250.159 99.5531C249.433 98.9153 248.57 98.636 247.592 98.7108C247.405 99.2962 247.31 99.9737 247.293 100.726C247.277 101.479 247.352 102.231 247.516 102.964ZM244.955 124.592C244.879 123.102 245.1 121.738 245.629 120.518C246.148 119.289 246.949 118.296 248.042 117.529C249.136 116.761 250.417 116.335 251.907 116.259C254.116 116.146 256.12 116.926 257.483 118.3C258.846 119.664 259.708 121.644 259.821 123.853C259.907 125.543 259.662 127.029 259.087 128.331L257.071 128.304C257.782 127.105 258.093 125.726 258.012 124.156C257.878 120.545 255.25 117.953 252.005 118.178C250.895 118.235 249.939 118.564 249.128 119.157C248.306 119.75 247.704 120.523 247.313 121.495C246.921 122.467 246.756 123.548 246.817 124.747C246.915 126.667 247.656 128.413 248.748 129.59L246.599 129.7C245.602 128.237 245.054 126.541 244.955 124.592ZM244.789 136.595C244.893 135.207 245.364 134.148 246.191 133.417C247.019 132.686 248.166 132.381 249.623 132.49L253.157 132.755C254.225 132.835 255.048 132.836 255.626 132.759L255.459 134.985C254.901 134.803 254.127 134.674 253.149 134.601L249.795 134.35C247.649 134.189 246.452 135.294 246.297 137.36C246.246 138.049 246.387 138.712 246.712 139.329C247.037 139.945 247.473 140.429 248.018 140.792C248.553 141.153 249.12 141.356 249.719 141.401L252.623 141.618C253.681 141.698 254.465 141.686 254.965 141.583L254.796 143.839C254.178 143.642 253.436 143.506 252.547 143.44L247.007 143.025C246.019 142.95 245.215 142.971 244.574 143.073L244.745 140.797C245.163 140.979 245.776 141.105 246.584 141.166L247.323 141.221L247.335 141.062C245.54 140.234 244.636 138.641 244.789 136.595ZM243.213 149.918C243.344 149.199 243.591 148.41 243.96 147.561C244.319 146.711 244.697 146.038 245.086 145.529L246.72 145.829C246.263 146.325 245.839 146.97 245.446 147.783C245.045 148.585 244.78 149.36 244.645 150.099C244.347 151.723 244.769 152.808 245.783 152.994C247.132 153.241 247.667 151.599 248.32 149.979C248.602 149.165 249.062 148.375 249.542 147.811C250.012 147.246 250.779 146.949 251.694 147.117C252.512 147.267 253.134 147.757 253.56 148.599C253.987 149.43 254.083 150.465 253.853 151.716C253.74 152.336 253.552 152.973 253.281 153.616C253.011 154.258 252.719 154.795 252.416 155.228L250.939 154.957C251.231 154.583 251.526 154.087 251.822 153.47C252.11 152.841 252.32 152.198 252.443 151.528C252.722 150.002 252.258 148.93 251.352 148.764C249.934 148.504 249.52 150.707 248.671 152.506C248.24 153.414 247.764 154.181 246.923 154.546C246.494 154.722 246.018 154.767 245.476 154.668C244.59 154.505 243.932 153.988 243.51 153.127C243.078 152.264 242.98 151.188 243.213 149.918ZM240.527 161.493C241.201 159.01 242.715 158.093 245.082 158.736L250.405 160.18L251.07 157.726L252.355 158.075L251.689 160.529L255.187 161.477L255.194 163.284L251.233 162.209L250.13 166.277L248.845 165.928L249.949 161.861L245.099 160.545C243.331 160.065 242.388 160.598 241.956 162.192C241.772 162.868 241.735 163.501 241.847 164.081L240.36 163.677C240.259 163.017 240.312 162.285 240.527 161.493ZM237.46 170.154C238.068 168.575 239.037 167.479 240.362 166.852C241.69 166.216 243.086 166.185 244.552 166.75C246.019 167.315 247.033 168.274 247.592 169.637C248.154 170.99 248.134 172.463 247.522 174.051C246.918 175.62 245.949 176.716 244.624 177.343C243.303 177.961 241.907 177.992 240.44 177.427C238.974 176.862 237.96 175.903 237.398 174.549C236.839 173.186 236.856 171.723 237.46 170.154ZM240.832 168.417C239.858 168.857 239.174 169.602 238.768 170.658C238.361 171.713 238.369 172.724 238.796 173.704C239.223 174.684 239.974 175.38 241.066 175.801C242.159 176.222 243.183 176.209 244.157 175.769C245.131 175.329 245.815 174.584 246.222 173.528C246.628 172.473 246.621 171.462 246.194 170.482C245.766 169.502 245.016 168.806 243.923 168.385C242.83 167.964 241.806 167.977 240.832 168.417ZM233.374 179.882L234.496 177.929C234.9 178.311 235.525 178.75 236.384 179.244L241.202 182.01C242.122 182.538 242.851 182.876 243.385 183.033L242.253 185.003C241.947 184.631 241.458 184.258 240.781 183.869L240.121 183.49L240.026 183.655C241.335 185.215 241.486 186.883 240.464 188.662C239.407 190.502 237.859 191.148 236.013 190.643L235.934 190.782C237.196 192.303 237.303 194.165 236.272 195.962C234.921 198.315 232.766 198.751 230.301 197.335L227.228 195.571C226.342 195.062 225.587 194.709 224.975 194.508L226.087 192.572C226.599 193.028 227.241 193.477 228.031 193.931L230.921 195.591C232.736 196.633 234.267 196.358 235.249 194.648C235.583 194.066 235.736 193.438 235.702 192.773C235.674 192.098 235.498 191.501 235.183 190.963C234.861 190.419 234.454 190.001 233.961 189.695L231.365 188.205C230.558 187.741 229.829 187.403 229.177 187.19L230.269 185.289C230.657 185.639 231.309 186.071 232.238 186.605L235.128 188.265C236.943 189.306 238.474 189.032 239.456 187.321C239.805 186.714 239.954 186.072 239.917 185.393C239.88 184.714 239.691 184.098 239.35 183.567C239.004 183.022 238.576 182.603 238.055 182.304L235.512 180.843C234.565 180.3 233.857 179.986 233.374 179.882ZM232.481 206.167C232.436 205.859 232.521 205.56 232.73 205.279C232.939 204.998 233.201 204.83 233.515 204.777C233.829 204.724 234.111 204.797 234.36 204.982C234.875 205.364 234.969 206.058 234.545 206.629C234.121 207.199 233.441 207.292 232.927 206.91C232.678 206.724 232.527 206.475 232.481 206.167ZM222.039 198.738L223.389 196.923C223.821 197.432 224.464 198.01 225.324 198.649L230.015 202.137C230.713 202.657 231.225 202.975 231.56 203.111C231.318 203.219 231.061 203.464 230.768 203.857C230.476 204.251 230.321 204.56 230.312 204.79C230.044 204.479 229.578 204.083 228.927 203.599L224.237 200.111C223.329 199.436 222.596 198.978 222.039 198.738ZM213.885 208.288L220.458 200.725L221.417 201.559L222.169 212.093L222.293 212.148L225.629 208.31C226.161 207.698 226.536 207.175 226.746 206.735L227.741 207.971L221.837 214.762L220.893 213.942L220.131 203.451L220.004 203.368L216.064 207.901C215.519 208.528 215.14 209.087 214.933 209.584L213.885 208.288ZM207.425 214.09C208.785 212.834 210.235 212.176 211.774 212.131C213.313 212.071 214.616 212.626 215.696 213.795C216.748 214.935 217.22 216.257 217.097 217.761C216.973 219.265 216.297 220.584 215.062 221.725C213.848 222.846 212.662 223.478 211.487 223.623C210.312 223.768 209.369 223.454 208.662 222.689C207.257 221.167 207.768 219.522 210.202 217.275C211.467 216.107 212.864 215.362 214.378 215.039L214.419 214.921C213.609 214.074 212.611 213.701 211.417 213.809C210.222 213.918 209.133 214.42 208.147 215.33C207.493 215.934 206.95 216.586 206.511 217.291C206.08 217.989 205.843 218.603 205.8 219.133L204.719 217.992C204.861 217.466 205.184 216.827 205.694 216.097C206.198 215.359 206.778 214.688 207.425 214.09ZM211.29 217.7C209.54 219.317 209.093 220.588 209.955 221.522C210.377 221.978 211.001 222.137 211.828 221.986C212.656 221.835 213.445 221.406 214.203 220.706C214.931 220.034 215.381 219.223 215.567 218.274C215.754 217.325 215.562 216.439 215.007 215.631C214.406 215.763 213.773 216.021 213.114 216.385C212.455 216.748 211.842 217.191 211.29 217.7ZM191.283 226.32C192.535 225.509 193.827 225.018 195.147 224.866C196.471 224.7 197.732 224.897 198.943 225.46C200.155 226.023 201.165 226.919 201.976 228.171C203.179 230.027 203.506 232.153 202.998 234.02C202.499 235.882 201.216 237.62 199.359 238.823C197.94 239.743 196.531 240.274 195.115 240.428L194.131 238.668C195.524 238.684 196.874 238.263 198.192 237.408C201.252 235.486 202.182 231.913 200.363 229.216C199.759 228.283 198.996 227.621 198.076 227.215C197.152 226.8 196.182 226.665 195.144 226.812C194.107 226.96 193.088 227.357 192.08 228.01C190.467 229.055 189.325 230.57 188.853 232.105L187.682 230.299C188.45 228.704 189.645 227.382 191.283 226.32ZM180.81 232.187C182.063 231.581 183.215 231.458 184.262 231.808C185.31 232.158 186.149 232.997 186.785 234.313L188.327 237.503C188.793 238.468 189.204 239.181 189.561 239.642L187.551 240.613C187.429 240.039 187.152 239.305 186.725 238.422L185.262 235.394C184.325 233.456 182.769 232.974 180.904 233.876C180.282 234.176 179.779 234.631 179.408 235.221C179.038 235.811 178.837 236.431 178.797 237.084C178.752 237.728 178.861 238.321 179.122 238.861L180.389 241.484C180.851 242.439 181.254 243.112 181.593 243.492L179.557 244.477C179.417 243.844 179.163 243.133 178.775 242.331L176.358 237.329C175.927 236.437 175.506 235.75 175.097 235.248L177.151 234.255C177.204 234.708 177.402 235.301 177.754 236.031L178.077 236.698L178.221 236.629C178.037 234.661 178.963 233.079 180.81 232.187ZM168.49 237.491C169.178 237.246 169.985 237.065 170.904 236.961C171.82 236.847 172.593 236.838 173.227 236.92L173.785 238.485C173.126 238.337 172.356 238.293 171.455 238.358C170.56 238.411 169.756 238.57 169.049 238.822C167.493 239.376 166.764 240.284 167.11 241.255C167.57 242.547 169.26 242.19 170.99 241.946C171.835 241.783 172.75 241.786 173.478 241.92C174.202 242.045 174.843 242.56 175.155 243.437C175.434 244.22 175.32 245.004 174.804 245.794C174.298 246.58 173.449 247.18 172.251 247.606C171.657 247.818 171.011 247.973 170.32 248.06C169.628 248.147 169.017 248.163 168.491 248.116L167.987 246.702C168.457 246.768 169.033 246.776 169.716 246.724C170.405 246.659 171.067 246.519 171.708 246.291C173.17 245.77 173.866 244.831 173.558 243.964C173.074 242.606 170.958 243.349 168.977 243.512C167.975 243.593 167.072 243.564 166.336 243.018C165.969 242.735 165.692 242.345 165.507 241.826C165.205 240.977 165.324 240.148 165.859 239.352C166.39 238.547 167.274 237.924 168.49 237.491ZM157.114 240.92C159.604 240.274 161.151 241.135 161.766 243.509L163.15 248.848L165.611 248.21L165.945 249.499L163.484 250.137L164.393 253.644L162.828 254.546L161.798 250.574L157.719 251.631L157.385 250.342L161.464 249.285L160.203 244.421C159.744 242.648 158.814 242.092 157.215 242.507C156.537 242.683 155.969 242.964 155.521 243.349L155.134 241.857C155.657 241.442 156.319 241.126 157.114 240.92ZM148.076 242.594C149.746 242.328 151.181 242.617 152.388 243.449C153.604 244.279 154.331 245.471 154.577 247.023C154.824 248.576 154.503 249.934 153.604 251.101C152.715 252.266 151.431 252.987 149.75 253.254C148.089 253.518 146.655 253.229 145.448 252.397C144.252 251.564 143.525 250.372 143.278 248.82C143.031 247.268 143.353 245.909 144.242 244.744C145.141 243.578 146.415 242.858 148.076 242.594ZM151.269 244.64C150.4 244.018 149.413 243.8 148.296 243.978C147.179 244.156 146.308 244.669 145.674 245.53C145.041 246.391 144.814 247.39 144.998 248.546C145.182 249.703 145.707 250.582 146.576 251.204C147.445 251.826 148.433 252.044 149.55 251.867C150.667 251.689 151.538 251.176 152.172 250.315C152.805 249.454 153.031 248.455 152.847 247.298C152.664 246.142 152.139 245.262 151.269 244.64ZM137.611 243.931L139.863 243.926C139.734 244.466 139.666 245.227 139.668 246.218L139.681 251.774C139.683 252.835 139.755 253.635 139.887 254.176L137.615 254.181C137.784 253.73 137.862 253.119 137.861 252.338L137.859 251.578L137.669 251.578C136.972 253.492 135.603 254.456 133.551 254.461C131.429 254.466 130.096 253.448 129.611 251.597L129.451 251.597C128.764 253.451 127.205 254.475 125.133 254.48C122.42 254.487 120.965 252.838 120.959 249.996L120.95 246.452C120.948 245.431 120.876 244.601 120.744 243.97L122.976 243.965C122.838 244.636 122.77 245.417 122.772 246.328L122.78 249.661C122.784 251.753 123.788 252.942 125.76 252.937C126.431 252.936 127.051 252.754 127.611 252.392C128.18 252.031 128.61 251.579 128.919 251.038C129.228 250.487 129.387 249.926 129.405 249.345L129.398 246.352C129.396 245.421 129.324 244.621 129.182 243.951L131.375 243.945C131.266 244.456 131.217 245.237 131.22 246.308L131.228 249.641C131.233 251.733 132.236 252.922 134.208 252.918C134.909 252.916 135.539 252.724 136.109 252.353C136.679 251.981 137.118 251.509 137.407 250.948C137.706 250.377 137.855 249.796 137.853 249.195L137.846 246.263C137.844 245.172 137.762 244.401 137.611 243.931ZM114.397 256.3C114.641 256.107 114.942 256.031 115.29 256.071C115.638 256.112 115.913 256.255 116.117 256.5C116.32 256.746 116.398 257.027 116.362 257.335C116.288 257.971 115.734 258.401 115.028 258.319C114.322 258.236 113.902 257.694 113.976 257.057C114.012 256.749 114.152 256.493 114.397 256.3ZM115.608 243.542L117.855 243.804C117.631 244.433 117.452 245.278 117.328 246.342L116.653 252.149C116.552 253.014 116.533 253.616 116.582 253.975C116.368 253.819 116.027 253.719 115.54 253.662C115.053 253.605 114.708 253.626 114.504 253.733C114.639 253.346 114.75 252.744 114.843 251.938L115.519 246.132C115.649 245.008 115.679 244.145 115.608 243.542ZM103.256 241.279L113.096 243.169L112.857 244.417L104.123 250.354L104.138 250.489L109.131 251.448C109.928 251.601 110.568 251.663 111.055 251.624L110.485 253.105L101.648 251.407L101.884 250.179L110.574 244.254L110.583 244.103L104.685 242.97C103.869 242.814 103.195 242.766 102.662 242.836L103.256 241.279ZM95.0058 238.573C96.7728 239.127 98.0653 240.057 98.8709 241.369C99.689 242.674 99.8567 244.08 99.3807 245.599C98.9166 247.079 98.005 248.147 96.6394 248.789C95.2738 249.431 93.7934 249.502 92.1888 248.999C90.6128 248.505 89.4729 247.791 88.7625 246.844C88.0522 245.898 87.8542 244.923 88.1656 243.93C88.7854 241.952 90.4661 241.577 93.6276 242.568C95.2705 243.083 96.6121 243.923 97.6459 245.076L97.7689 245.052C98.1001 243.928 97.9261 242.877 97.2373 241.895C96.5485 240.914 95.5704 240.219 94.2905 239.818C93.4404 239.551 92.6051 239.405 91.7751 239.375C90.9547 239.349 90.3043 239.449 89.824 239.676L90.275 238.171C90.8012 238.032 91.516 237.993 92.4039 238.072C93.2948 238.142 94.1652 238.31 95.0058 238.573ZM93.8003 243.724C91.5271 243.011 90.2018 243.257 89.8216 244.47C89.6359 245.062 89.8086 245.682 90.352 246.325C90.8954 246.967 91.6605 247.438 92.6443 247.746C93.5899 248.043 94.5172 248.029 95.4329 247.718C96.3486 247.407 97.0215 246.8 97.4457 245.915C97.0323 245.461 96.4928 245.04 95.8495 244.649C95.2061 244.259 94.5167 243.948 93.8003 243.724Z" fill="#707269"/>
</svg>
