<?xml version="1.0" encoding="UTF-8"?>
<svg id="Layer_2" data-name="Layer 2" xmlns="http://www.w3.org/2000/svg" viewBox="0 0 551.39 372.58">
  <defs>
    <style>
      .cls-1 {
        fill: #707269;
      }
    </style>
  </defs>
  <path class="cls-1" d="M538.38,0c-.85-.03-1.88.44-2.69.68-.33.1-.56.15-.81.38-.51.47-.77,1.3-1,1.93-1.26,3.41-1.98,7.05-2.82,10.57-3.65,15.38-7.2,30.79-11.17,46.09-1.67,6.44-3.53,12.83-4.71,19.39-1.66,9.25-1.99,18.78-2.62,28.14-.61,9.13-1.19,18.27-1.75,27.41-.42,6.85-1.01,13.79-.65,20.66.2,3.85.93,7.56,2.67,11.02,3.37,6.69,9.01,11.92,15.45,15.63,1.39.8,2.82,1.53,4.28,2.21.66.3,1.32.59,1.98.87.17.07.72.18.82.34.13.21-.2.72-.34,1.04-1.68,3.75-3.11,7.61-4.26,11.56-2.39,8.18-3.6,16.68-3.65,25.2-.04,8.2.41,16.42.63,24.61s.43,16.87.55,25.31c.19,13.44-.07,26.85-.53,40.28-.56,16.2.41,32.33,3.55,48.26.6,3.04,1.18,6.24,2.46,9.08.28.63.73,1.71,1.5,1.89.83.2,2.07-.43,2.84-.65,1.67-.48,1.98-2.71,2.34-4.17,1.15-4.63,1.8-9.4,2.52-14.12,1.36-8.9,2.6-17.82,3.87-26.73,1.49-10.44,3.25-20.87,4.02-31.39s.15-20.44-.36-30.71c-.81-16.48-.41-32.98.33-49.46.6-13.25,1.32-26.52-1.43-39.6-.61-2.91-1.38-5.79-1.99-8.71-.97-4.57-1.71-9.19-2.23-13.84-.89-7.96-1.11-15.99-.69-23.99.22-4.11.63-8.21.77-12.32.16-4.71.16-9.42.09-14.12-.21-14.57-.91-29.14-1.55-43.69-.44-9.91-.85-19.83-1.36-29.74-.37-7.17-.69-14.37-1.59-21.49-.24-1.92-.5-3.88-1.07-5.73-.2-.65-.55-1.99-1.4-2.08-.94-.1-1.98.87-2.9.78.88.09,1.24,1.54,1.44,2.21.58,1.93.83,3.97,1.08,5.97.87,7.08,1.2,14.23,1.56,21.34.92,18.01,1.7,36.03,2.36,54.04.4,10.93.82,21.89.46,32.82-.13,3.97-.5,7.92-.74,11.89-.45,7.68-.31,15.39.44,23.05s2.36,15.28,4.08,22.86c1.37,6.05,2.12,12.21,2.31,18.42.21,6.77-.13,13.54-.43,20.3-.42,9.18-.79,18.37-.89,27.56-.08,7.39.02,14.78.34,22.16.22,4.99.57,9.98.77,14.98.37,9.41-.06,18.89-1.34,28.22-2.01,14.58-4.08,29.16-6.23,43.73-.8,5.42-1.56,10.87-2.69,16.23-.41,1.93-.73,4.24-2.02,5.81-.06.07-.18.09-.24.15,2.63-2.81,3.62-.21,2.25-.82-.76-.34-1.19-1.53-1.48-2.23-1.21-2.95-1.81-6.18-2.41-9.3-1.6-8.32-2.71-16.75-3.23-25.21-.85-13.71.18-27.38.37-41.08.22-15.35-.16-30.71-.57-46.06-.22-8.22-.63-16.46-.65-24.69s1-16.28,3.12-24.14c1.13-4.2,2.57-8.32,4.3-12.31.19-.43.93-1.52.88-1.97-.03-.32-1.33-.69-1.73-.86-1.42-.62-2.81-1.29-4.18-2.03-6.65-3.58-12.54-8.69-16.19-15.38-1.82-3.34-2.78-6.89-3.08-10.68-.5-6.27.01-12.64.38-18.9.91-15.49,1.79-31,3.1-46.46.55-6.43,1.35-12.78,2.89-19.05,2.57-10.51,5.46-20.93,8.01-31.45,1.93-7.93,3.78-15.88,5.65-23.83.98-4.17,1.88-8.39,3.14-12.49.27-.89.55-1.82,1-2.64.99-1.81,1.4-.04-1.84-.17.96.04,1.95-.81,2.9-.78Z"/>
  <path class="cls-1" d="M34.87,10.82c1.44,2.29,2.01,5.05,2.41,7.69.84,5.59.63,11.18.4,16.8-.17,4.34-.35,8.68-.36,13.03,0,1.83-.02,3.7.26,5.52.38,2.41,1.51,4.73,2.72,6.81,1.13,1.95,2.52,4.01,4.38,5.35,1.5,1.07,2.63.55,4.3.09,1.01-.28,1.51-.65,1.91-1.66.51-1.29.64-2.74.74-4.11.31-4.22.01-8.49-.37-12.7-.42-4.64-1.02-9.27-1.84-13.86-.9-5.07-2.38-10.35-2.08-15.55.11-1.87.54-3.77,1.65-5.32.42-.59.93-1.11,1.5-1.56.41-.32.86-.55,1.31-.81.77-.46-2.39.24-.93.27.28,0,.54,0,.82.03,2.12.26,3.87,1.77,5.14,3.4.81,1.04,1.53,2.22,2.02,3.45.4,1,.42,2.2.56,3.26,1.46,11.29,1.94,22.68,1.48,34.06-.2,4.8-.45,9.61-.9,14.39-.24,2.52-.49,5.09-1.13,7.55-1.14,4.39-3.16,8.32-5.35,12.26-2.72,4.87-4.56,9.96-5.21,15.52-.58,5.04-.37,10.13-.31,15.19.03,2.88.05,5.77.06,8.65.07,16.8-.08,33.6-.35,50.4-.31,19.24-.78,38.49-1.68,57.71-.83,17.86-2.53,35.65-3.42,53.51-.48,9.63-.67,19.27-1.05,28.91s-.99,18.73-1.82,28.08c-.26,2.88-.53,5.76-.83,8.64-.16,1.56-.33,3.12-.5,4.67s-.27,3.04-.85,4.5c-.44,1.1-1.01,1.85-1.84,2.66-.92.91,2.21-.23,1.55-.29-.17-.01-.35.01-.53,0-.47-.04-.92-.19-1.35-.37-1.92-.83-3.48-2.5-4.78-4.09-3.22-3.91-5.65-8.7-6.48-13.72s-.02-10,.75-14.92c.69-4.41,1.5-8.83,1.44-13.31-.08-5.22-.25-10.44-.25-15.67,0-22.61.51-45.24.98-67.85.3-14.53.59-29.1,1.66-43.6.33-4.46.73-8.92,1.43-13.34.88-5.54,2.57-10.9,3.64-16.4,2.14-11.1,2.2-22.53-.99-33.45-2.1-7.2-6.28-13.64-9.23-20.51-3.4-7.92-5.43-16.45-7.5-24.78-2.71-10.86-5.16-21.78-7.52-32.72-1.91-8.86-3.85-17.77-4.97-26.78-.54-4.35-1.2-9.27.12-13.55.38-1.23.99-2.4,1.89-3.33.66-.68,1.46-1.25,2.31-1.66.36-.18,1.41-.49-.17-.05s-.5.16-.04.2.89.15,1.3.34c.64.31,1.17.81,1.6,1.36,1.16,1.49,1.72,3.43,2.16,5.24.61,2.56.93,5.18,1.17,7.79.55,5.81.82,11.66.91,17.49.11,7.83-.29,15.72,3.36,22.91.6,1.19,1.27,2.35,2,3.47s1.86,3.04,3.3,3.45c.58.17,1.16-.09,1.72-.23.69-.18,1.69-.26,2.26-.75,1.02-.88.99-3.01,1.05-4.21.27-5.18-.36-10.41-.68-15.58-.27-4.4-.47-8.81-.6-13.22-.16-5.37-.21-10.75-.16-16.12.03-2.98.08-5.97.17-8.95.04-1.36-.01-2.56.65-3.78.54-.99,1.26-1.8,2.34-2.18l-2.84.77c3.16-.75,6.05,3.24,7.51,5.54.17.27,2.75-1.01,2.9-.78-1.39-2.19-3.69-5.35-6.49-5.61-.73-.07-1.44.17-2.14.36-.89.24-1.95.4-2.72.94s-1.33,1.43-1.72,2.3c-.56,1.26-.37,2.84-.4,4.2-.28,10.43-.2,20.88.29,31.31.21,4.55.56,9.09.83,13.63.15,2.43.28,4.88.2,7.32-.04,1.39,0,3.3-.81,4.52-.11.17-.32.3-.42.45-.38.62,3.04-.11,2.19-.63-.08-.05-.22-.04-.3-.08-.64-.33-1.14-.76-1.63-1.3-1.09-1.21-1.95-2.63-2.75-4.04-1.54-2.7-2.71-5.59-3.34-8.64-.73-3.58-.78-7.25-.81-10.89-.05-5.09-.14-10.17-.44-15.25s-.52-10.44-1.81-15.46c-.82-3.16-2.43-7.19-6.42-6.3-3.89.86-7.15,2.36-8.34,6.34s-.66,8.62-.17,12.73c.97,8.23,2.7,16.38,4.41,24.48,2.29,10.79,4.7,21.56,7.31,32.28,2.2,9.04,4.3,18.31,7.82,26.95,2.25,5.54,5.26,10.71,7.7,16.16,4.02,8.95,5.13,19.29,4.42,29-.34,4.68-1.14,9.32-2.18,13.9-.68,2.98-1.51,5.93-2.16,8.92-.75,3.49-1.19,7.04-1.55,10.58-1.22,11.98-1.54,24.06-1.88,36.09-.55,19.76-.79,39.53-1.07,59.3-.14,9.95-.34,19.91-.19,29.86.05,3.46.31,6.95.18,10.41-.22,6.1-1.82,12.08-2.35,18.15-.43,4.87.07,9.65,2.06,14.16,1.78,4.01,4.48,8.46,8.21,10.94,1.27.84,2.51,1.21,3.99.84,2.09-.53,3.71-.84,4.77-2.9,1.28-2.48,1.25-5.45,1.54-8.17.31-2.87.59-5.75.86-8.62.83-9.06,1.47-18.14,1.87-27.23s.54-17.39.91-26.07c.44-10.22,1.07-20.42,1.87-30.62,1.24-15.94,2.04-31.88,2.57-47.86.61-18.43.95-36.87,1.14-55.31.14-14.04.23-28.08.06-42.12-.06-4.89-.26-9.81.27-14.68.57-5.29,2.16-10.27,4.7-14.94,2.27-4.17,4.5-8.19,5.78-12.8.53-1.93.81-3.92,1.04-5.91,1.03-9.1,1.4-18.4,1.28-27.55-.07-5.9-.43-11.79-1.03-17.65-.25-2.44-.55-4.87-.88-7.3-.31-2.24-1.88-4.51-3.5-6.06-1.38-1.31-3.2-2.32-5.16-2.07-1.67.21-3.75.73-5.19,1.64-3.22,2.04-3.9,5.86-3.75,9.4.22,5.15,1.57,10.23,2.41,15.31.69,4.21,1.22,8.44,1.58,12.69.33,3.89.58,7.83.32,11.74-.1,1.53-.12,5.14-1.95,5.82l2.7-.73c-1.66.42-3.67-2.29-4.49-3.35-1.79-2.32-3.22-5.01-4.11-7.8-.38-1.2-.53-2.42-.6-3.68-.53-9.67,1.05-19.37.35-29.04-.29-3.99-.69-8.54-2.88-12.03-.17-.27-2.75,1.01-2.9.78Z"/>
</svg>