<svg width="259" height="259" viewBox="0 0 259 259" fill="none" xmlns="http://www.w3.org/2000/svg">
<path d="M80.8222 233.649L82.8255 234.643C82.3948 235.181 81.9602 235.903 81.5131 236.804L77.5195 244.852C77.0811 245.736 76.769 246.518 76.6007 247.187L67.1093 242.477L67.7192 240.523C67.9778 240.815 68.5685 241.184 69.487 241.64L75.5755 244.661L77.6113 240.559L72.4326 237.989C71.6541 237.603 71.0768 237.36 70.7228 237.26L71.5606 235.572C71.8845 235.82 72.4183 236.128 73.1706 236.502L78.3493 239.072L79.8859 235.975C80.3504 235.039 80.6625 234.256 80.8222 233.649ZM69.271 227.54L71.1259 228.681C70.7345 229.094 70.2957 229.695 69.8148 230.477L66.9649 235.11C66.4481 235.95 66.0887 236.646 65.8867 237.198L63.9652 236.017C64.3995 235.665 64.8204 235.167 65.2144 234.526L65.7465 233.661L65.6217 233.584C64.0834 235.023 62.3465 235.33 60.8409 234.404C60.3751 234.118 60.0084 233.801 59.7461 233.444L60.6261 232.014C60.7727 232.39 61.2692 232.925 61.8099 233.258C62.6001 233.744 63.5067 233.854 64.5213 233.584C65.5359 233.314 66.3144 232.738 66.8568 231.856L68.407 229.336C68.8829 228.562 69.1674 227.969 69.271 227.54ZM59.6418 220.52C60.9522 221.523 61.7117 222.732 61.934 224.144C62.1641 225.563 61.8092 226.878 60.8771 228.095C59.9451 229.312 58.7683 229.998 57.339 230.146C55.9175 230.3 54.5447 229.876 53.2265 228.867C51.9239 227.869 51.1643 226.66 50.9421 225.248C50.7275 223.842 51.0824 222.527 52.0145 221.309C52.9465 220.092 54.1233 219.406 55.5449 219.252C56.9741 219.105 58.3392 219.522 59.6418 220.52ZM60.3401 224.154C60.1961 223.121 59.6869 222.276 58.8107 221.605C57.9345 220.935 56.986 220.663 55.9514 220.794C54.9169 220.924 54.0582 221.435 53.3636 222.342C52.669 223.249 52.3997 224.212 52.5437 225.244C52.6878 226.277 53.197 227.122 54.0732 227.793C54.9493 228.464 55.8979 228.735 56.9324 228.605C57.967 228.474 58.8256 227.963 59.5202 227.056C60.2148 226.149 60.4842 225.187 60.3401 224.154ZM51.6425 214.035L53.172 215.613C52.705 215.889 52.1246 216.356 51.4305 217.029L47.5393 220.802C46.7961 221.523 46.2828 222.116 45.9926 222.574L44.4495 220.982C44.8805 220.796 45.3626 220.437 45.9095 219.907L46.4423 219.39L46.3132 219.257C44.4982 220.065 42.8938 219.757 41.5002 218.319C40.0591 216.833 39.8701 215.207 40.8409 213.613L40.7321 213.501C38.966 214.275 37.1904 213.874 35.7832 212.423C33.941 210.523 34.1121 208.385 36.1033 206.454L38.5852 204.048C39.3004 203.354 39.8347 202.741 40.188 202.222L41.704 203.785C41.1391 204.142 40.5446 204.624 39.9066 205.242L37.5719 207.506C36.1066 208.927 35.952 210.437 37.2912 211.818C37.7467 212.288 38.2943 212.6 38.9274 212.748C39.5673 212.903 40.1751 212.898 40.7644 212.749C41.3608 212.592 41.8622 212.324 42.2824 211.943L44.3787 209.911C45.0308 209.278 45.5441 208.686 45.9187 208.132L47.4074 209.667C46.9751 209.937 46.3942 210.432 45.644 211.16L43.3093 213.423C41.844 214.844 41.6894 216.354 43.0286 217.735C43.5045 218.226 44.0659 218.539 44.7128 218.687C45.3597 218.835 45.9884 218.824 46.5781 218.646C47.1817 218.469 47.6903 218.18 48.111 217.772L50.1652 215.781C50.9295 215.04 51.4149 214.46 51.6425 214.035ZM32.5696 191.217C33.041 191.947 33.4852 192.869 33.8805 193.986C34.2893 195.105 34.5429 196.092 34.6356 196.974L32.8563 198.053C32.892 197.1 32.7363 196.085 32.3974 195.002C32.0638 193.927 31.6307 192.986 31.1116 192.182C30.5184 191.263 29.8641 190.627 29.1352 190.273C28.4199 189.921 27.7668 189.936 27.1761 190.317C24.2553 192.203 31.1623 198.67 26.7073 201.546C25.7392 202.171 24.6597 202.264 23.4718 201.81C22.2892 201.365 21.2648 200.48 20.412 199.159C19.9194 198.396 19.5301 197.613 19.2357 196.815C18.9414 196.017 18.7516 195.291 18.6583 194.642L20.3402 193.556C20.3549 194.209 20.4931 194.945 20.7464 195.77C21.0079 196.589 21.3914 197.399 21.8946 198.179C22.4826 199.089 23.1263 199.708 23.8069 200.024C24.4929 200.349 25.1107 200.333 25.6522 199.984C27.2685 198.94 25.9211 196.439 25.0744 193.975C24.7368 192.984 24.5459 191.968 24.6105 191.078C24.6804 190.196 25.1669 189.347 26.094 188.749C27.1278 188.081 28.2318 187.973 29.4197 188.427C30.6076 188.88 31.6586 189.806 32.5696 191.217ZM25.8566 179.45C26.6702 181.063 26.8763 182.578 26.4925 184.007C26.1088 185.437 25.2302 186.492 23.8613 187.183C22.4923 187.873 21.1081 187.948 19.7261 187.398C18.3442 186.848 17.253 185.769 16.4394 184.156C16.224 183.728 16.0257 183.227 15.8534 182.646C15.6854 182.075 15.592 181.586 15.5862 181.163L16.9379 180.525C16.8927 181.368 17.1455 182.476 17.6072 183.392C18.1833 184.534 18.9853 185.322 20.0044 185.759C21.0322 186.192 22.0627 186.154 23.0829 185.639C24.1031 185.125 24.738 184.323 24.9919 183.244C25.2459 182.164 25.0804 181.034 24.4955 179.874C23.9326 178.758 23.1742 177.926 22.2159 177.392L23.5936 176.698C24.0007 176.984 24.4083 177.38 24.8249 177.881C25.2415 178.382 25.584 178.909 25.8566 179.45ZM22.3586 172.378L23.1657 174.401C22.6053 174.498 21.8943 174.719 21.0417 175.059L15.9896 177.075C15.0735 177.441 14.3696 177.785 13.8779 178.107L13.0418 176.012C13.6004 175.989 14.2352 175.84 14.9336 175.562L15.8769 175.185L15.8226 175.049C13.7297 175.285 12.1527 174.495 11.4976 172.853C11.2949 172.345 11.1901 171.872 11.1923 171.429L12.7524 170.807C12.645 171.197 12.7242 171.922 12.9595 172.512C13.3033 173.373 13.9647 174.003 14.94 174.392C15.9153 174.781 16.8837 174.784 17.8451 174.4L20.5934 173.303C21.4369 172.967 22.0193 172.661 22.3586 172.378ZM19.1528 162.275C19.5196 163.531 19.4976 164.606 19.0896 165.508C18.691 166.408 18.0009 167.006 17.026 167.291C16.0417 167.578 15.1382 167.445 14.3181 166.901C13.498 166.357 12.908 165.451 12.5385 164.186C12.273 163.276 12.2333 162.444 12.4261 161.675C12.6216 160.916 12.9523 160.342 13.4089 159.954L13.3541 159.766L11.7605 160.232C9.98876 160.749 9.43052 162.112 10.0764 164.325C10.2789 165.018 10.5658 165.687 10.9437 166.32C11.3244 166.961 11.6299 167.381 11.8605 167.578L10.5574 167.959C10.2952 167.618 9.98378 167.109 9.62969 166.419C9.27561 165.728 8.99809 165.057 8.80651 164.4C7.89241 161.269 8.64465 159.351 11.0632 158.645L14.9442 157.512C16.0691 157.183 16.828 156.891 17.2303 156.631L17.8242 158.665C17.423 158.65 16.907 158.729 16.2695 158.915L16.1195 158.959L16.1633 159.109C16.7848 159.182 17.3634 159.491 17.9085 160.034C18.4657 160.583 18.8764 161.328 19.1528 162.275ZM17.7735 161.976C17.4861 160.992 17.0687 160.259 16.5268 159.796C15.9943 159.331 15.3844 159.194 14.7001 159.394C14.1658 159.55 13.7659 159.992 13.4938 160.733C13.2218 161.473 13.2212 162.308 13.4894 163.227C13.7686 164.183 14.1844 164.875 14.7341 165.295C15.2838 165.714 15.8788 165.835 16.5256 165.646C17.163 165.46 17.5993 165.038 17.8342 164.379C18.072 163.73 18.0499 162.923 17.7735 161.976ZM15.8807 149.017C16.3674 151.479 15.441 152.936 13.0939 153.4L7.81513 154.443L8.29613 156.877L7.02195 157.129L6.54095 154.695L3.0729 155.381L2.28354 153.805L6.21145 153.028L5.41421 148.995L6.68838 148.743L7.48562 152.777L12.2949 151.826C14.0481 151.479 14.6419 150.605 14.3294 149.025C14.1968 148.354 13.9549 147.785 13.6054 147.326L15.0808 147.035C15.455 147.568 15.7255 148.231 15.8807 149.017ZM14.693 139.702C14.8798 141.499 14.5338 142.988 13.6669 144.188C12.8 145.388 11.6035 146.062 10.0785 146.22C8.55352 146.379 7.23324 145.957 6.13708 144.951C5.04093 143.946 4.40482 142.549 4.21802 140.752C4.16854 140.276 4.16157 139.737 4.20683 139.133C4.25309 138.539 4.3396 138.049 4.48477 137.651L5.97494 137.536C5.633 138.308 5.47513 139.433 5.58115 140.453C5.71342 141.726 6.18288 142.747 6.97979 143.518C7.78642 144.289 8.76333 144.619 9.89978 144.501C11.0362 144.383 11.9146 143.86 12.5358 142.941C13.157 142.022 13.4043 140.907 13.27 139.615C13.1408 138.371 12.7276 137.325 12.0218 136.485L13.5565 136.325C13.835 136.738 14.0751 137.253 14.2864 137.869C14.4978 138.486 14.6304 139.1 14.693 139.702ZM14.0122 131.826L14.0038 134.024C13.477 133.895 12.6374 133.823 11.4851 133.819L2.50074 133.785C1.35817 133.78 0.527839 133.845 1.58263e-05 133.97L0.00837378 131.773C0.56449 131.912 1.40407 131.984 2.50758 131.988L6.55052 132.003L6.55115 131.837C4.74705 131.166 3.75664 129.668 3.76426 127.666C3.77462 124.942 5.32363 123.356 8.16541 123.367L11.6224 123.38C12.5892 123.383 13.3902 123.318 14.0451 123.184L14.0367 125.371C13.383 125.232 12.6215 125.161 11.7328 125.158L8.48091 125.145C6.38132 125.137 5.27332 126.315 5.2657 128.317C5.2631 129 5.44623 129.636 5.80537 130.213C6.1645 130.791 6.62177 131.242 7.16745 131.556C7.7229 131.871 8.28871 132.029 8.87464 132.032L11.736 132.023C12.8395 132.027 13.5917 131.962 14.0122 131.826ZM15.1046 112.747L14.7364 114.953C14.0958 114.698 13.2787 114.492 12.2866 114.326L3.42486 112.847C2.45199 112.684 1.61236 112.613 0.923605 112.647L2.66835 102.196L4.71531 102.211C4.51132 102.543 4.32973 103.216 4.16088 104.227L3.04167 110.931L7.55923 111.686L8.5112 105.983C8.65432 105.126 8.7187 104.503 8.71077 104.135L10.5698 104.446C10.4268 104.828 10.287 105.428 10.1487 106.257L9.19672 111.959L12.6066 112.528C13.6372 112.7 14.4769 112.771 15.1046 112.747ZM17.5925 99.92L17.0381 102.026C16.5296 101.771 15.8268 101.525 14.9391 101.292L9.67883 99.907C8.72499 99.6559 7.95456 99.5137 7.36754 99.4804L7.94179 97.2988C8.40453 97.6125 9.00297 97.871 9.73015 98.0624L10.7123 98.321L10.7496 98.1793C8.92697 97.1239 8.1293 95.5507 8.57926 93.8414C8.71847 93.3125 8.91583 92.8696 9.18079 92.5153L10.8051 92.9428C10.487 93.1923 10.1191 93.8226 9.95756 94.4364C9.72139 95.3336 9.8784 96.2333 10.4311 97.126C10.9837 98.0188 11.7606 98.5969 12.7616 98.8604L15.6232 99.6137C16.5014 99.8449 17.1516 99.9453 17.5925 99.92ZM21.5232 88.671C20.942 90.2156 20.0047 91.2924 18.717 91.9139C17.4259 92.5446 16.0645 92.5853 14.6296 92.0454C13.1946 91.5055 12.1978 90.5774 11.6426 89.2521C11.084 87.9359 11.0924 86.4992 11.6771 84.9454C12.2548 83.4099 13.1921 82.3331 14.4798 81.7116C15.7641 81.0992 17.1254 81.0584 18.5604 81.5983C19.9954 82.1383 20.9922 83.0663 21.5508 84.3825C22.1059 85.7078 22.1009 87.1354 21.5232 88.671ZM18.2466 90.3909C19.1935 89.9542 19.855 89.2223 20.2436 88.1895C20.6322 87.1567 20.6173 86.1703 20.1931 85.2177C19.769 84.2651 19.0314 83.5911 17.962 83.1887C16.8926 82.7863 15.8936 82.807 14.9467 83.2437C13.9999 83.6804 13.3384 84.4123 12.9498 85.4451C12.5612 86.478 12.5761 87.4644 13.0002 88.4169C13.4244 89.3695 14.162 90.0435 15.2314 90.4459C16.3008 90.8483 17.2998 90.8277 18.2466 90.3909ZM25.4207 79.1408L24.3501 81.0596C23.9514 80.6918 23.3366 80.2705 22.4923 79.7994L17.7592 77.1587C16.8553 76.6544 16.1397 76.3334 15.6173 76.1873L16.6974 74.2515C17.0003 74.6105 17.4824 74.969 18.1476 75.3401L18.7958 75.7018L18.8862 75.5397C17.5904 74.034 17.4235 72.4088 18.3989 70.6606C19.4077 68.8526 20.9103 68.2037 22.7164 68.6746L22.7926 68.5382C21.5432 67.0695 21.4156 65.2538 22.4005 63.4885C23.6899 61.1774 25.787 60.7259 28.2089 62.0772L31.2279 63.7615C32.0978 64.2468 32.8389 64.5821 33.438 64.771L32.377 66.6727C31.8722 66.2345 31.2403 65.8037 30.4643 65.3707L27.6244 63.7863C25.842 62.7919 24.3514 63.0785 23.414 64.7585C23.0953 65.3299 22.9538 65.9443 22.9943 66.5931C23.0301 67.2505 23.2093 67.8313 23.5223 68.3526C23.8438 68.8787 24.2453 69.2816 24.7304 69.5746L27.2803 70.9973C28.0734 71.4398 28.789 71.7607 29.427 71.9601L28.3849 73.8278C28.0023 73.4913 27.3609 73.0775 26.4484 72.5684L23.6086 70.984C21.8262 69.9896 20.3356 70.2762 19.3982 71.9562C19.0652 72.5532 18.9274 73.1808 18.9718 73.843C19.0161 74.5051 19.2076 75.104 19.5472 75.6178C19.8905 76.1448 20.3138 76.5487 20.8255 76.8342L23.3242 78.2283C24.2537 78.7469 24.9485 79.0451 25.4207 79.1408ZM41.7936 54.315C41.229 54.9758 40.4728 55.6656 39.5164 56.3641C38.5611 57.0764 37.6881 57.6022 36.8698 57.9435L35.3264 56.5479C36.2496 56.3091 37.1779 55.8691 38.1185 55.2341C39.0527 54.6066 39.8302 53.9221 40.4518 53.1944C41.1622 52.3628 41.5835 51.5539 41.7146 50.754C41.8468 49.9678 41.6456 49.3464 41.111 48.8897C38.4677 46.6315 34.2499 55.1017 30.2181 51.6573C29.342 50.9088 28.9442 49.9011 29.0385 48.633C29.1265 47.3724 29.6805 46.1375 30.7018 44.9421C31.2917 44.2515 31.9305 43.6541 32.6108 43.1435C33.291 42.6329 33.9323 42.2431 34.5271 41.9678L36.0492 43.2682C35.4278 43.4694 34.7621 43.8126 34.0447 44.2915C33.3348 44.7767 32.6684 45.3763 32.0658 46.0817C31.3617 46.9059 30.9531 47.6999 30.8452 48.4426C30.731 49.1927 30.9226 49.7803 31.4127 50.1989C32.8754 51.4485 34.8857 49.4412 37.0038 47.924C37.8566 47.3168 38.7752 46.8428 39.6466 46.6497C40.5117 46.464 41.4643 46.687 42.3034 47.4037C43.2389 48.203 43.659 49.2298 43.5647 50.4978C43.4704 51.7659 42.8846 53.0379 41.7936 54.315ZM51.1377 44.504C49.8271 45.7476 48.4359 46.3812 46.9565 46.4253C45.4771 46.4694 44.2132 45.932 43.1579 44.8198C42.1025 43.7076 41.6325 42.4035 41.7611 40.9217C41.8898 39.44 42.6092 38.0842 43.9197 36.8406C44.2668 36.5112 44.6901 36.177 45.1961 35.8448C45.6951 35.5195 46.1363 35.2893 46.5403 35.1617L47.5405 36.2724C46.7201 36.472 45.7314 37.0332 44.9876 37.739C44.0596 38.6196 43.5361 39.6144 43.4105 40.7163C43.2917 41.8253 43.6253 42.8012 44.4117 43.63C45.1982 44.4588 46.1485 44.836 47.2555 44.7684C48.3625 44.7007 49.3975 44.2166 50.3397 43.3226C51.2465 42.4622 51.8244 41.4965 52.0597 40.425L53.1218 41.5443C52.9643 42.0168 52.7024 42.5211 52.3428 43.0643C51.9832 43.6075 51.5769 44.0873 51.1377 44.504ZM56.8996 39.1137L55.1969 40.4715C54.9415 39.9632 54.5246 39.3464 53.9523 38.6287L50.561 34.3758C49.946 33.6047 49.4132 33.0304 48.9623 32.6529L50.7261 31.2465C50.9098 31.7745 51.2353 32.3393 51.7041 32.9272L52.3373 33.7213L52.4518 33.63C51.6206 31.6948 51.9208 29.9566 53.3027 28.8546C53.7303 28.5136 54.1532 28.2764 54.5773 28.1505L55.6246 29.4637C55.2204 29.4738 54.5489 29.7594 54.0526 30.1552C53.3272 30.7336 52.9157 31.5489 52.8256 32.595C52.7355 33.6411 53.0131 34.5688 53.6585 35.3781L55.5033 37.6916C56.0695 38.4017 56.5309 38.8707 56.8996 39.1137ZM65.6427 33.1209C64.5465 33.8357 63.5116 34.1258 62.5297 33.9966C61.5531 33.8756 60.7807 33.3883 60.226 32.5375C59.6659 31.6786 59.5316 30.7753 59.8147 29.8328C60.0979 28.8904 60.7944 28.0632 61.8987 27.3432C62.6922 26.8258 63.4778 26.5467 64.2691 26.5087C65.0523 26.4761 65.6981 26.6262 66.2013 26.9509L66.3649 26.8443L65.4582 25.4536C64.4501 23.9075 62.9834 23.768 61.0528 25.0268C60.4475 25.4215 59.8902 25.8898 59.3943 26.4346C58.8903 26.9847 58.5773 27.3987 58.4553 27.6764L57.7139 26.5394C57.964 26.1898 58.3613 25.7442 58.9193 25.2055C59.4774 24.6667 60.0401 24.2066 60.6127 23.8332C63.3449 22.0517 65.3991 22.2162 66.7752 24.3267L68.9834 27.7134C69.6235 28.695 70.1235 29.3366 70.4887 29.6464L68.7136 30.8039C68.6119 30.4155 68.3864 29.9446 68.0237 29.3883L67.9384 29.2575L67.8075 29.3428C67.9177 29.9588 67.7893 30.6021 67.4275 31.281C67.0629 31.9734 66.4689 32.5822 65.6427 33.1209ZM65.5297 31.714C66.3887 31.154 66.9691 30.5423 67.2548 29.8897C67.5458 29.2453 67.5007 28.6219 67.1113 28.0247C66.8073 27.5584 66.2681 27.3038 65.4804 27.2578C64.6926 27.2118 63.8938 27.4529 63.0922 27.9756C62.2578 28.5197 61.7154 29.1182 61.4731 29.7658C61.2309 30.4134 61.287 31.018 61.655 31.5824C62.0177 32.1387 62.5483 32.4339 63.2468 32.4681C63.9371 32.5077 64.7035 32.2527 65.5297 31.714ZM77.3846 26.1468C75.1695 27.3267 73.5061 26.8628 72.3813 24.7511L69.8516 20.002L67.6624 21.1681L67.0517 20.0218L69.241 18.8556L67.579 15.7355L68.8584 14.5229L70.7407 18.0568L74.3694 16.1239L74.98 17.2703L71.3513 19.2031L73.6561 23.5299C74.4962 25.1072 75.5048 25.422 76.927 24.6644C77.5303 24.3431 78.005 23.9464 78.3425 23.4789L79.0495 24.8063C78.6477 25.3191 78.0914 25.7703 77.3846 26.1468ZM85.9514 22.3023C84.2865 23.0038 82.7612 23.1061 81.3613 22.6257C79.9614 22.1453 78.9682 21.1968 78.3728 19.7839C77.7774 18.371 77.7974 16.985 78.4403 15.6437C79.0832 14.3025 80.2344 13.2875 81.8993 12.5859C82.3403 12.4001 82.8542 12.2365 83.4449 12.1042C84.0265 11.9756 84.5206 11.9158 84.9436 11.9389L85.4878 13.331C84.6498 13.2284 83.5267 13.405 82.5818 13.8031C81.4029 14.2999 80.5623 15.0463 80.0562 16.0331C79.5539 17.029 79.522 18.0598 79.9657 19.1127C80.4094 20.1656 81.1656 20.8537 82.2254 21.1807C83.2851 21.5077 84.4244 21.4197 85.6213 20.9154C86.7732 20.43 87.6545 19.73 88.2525 18.8104L88.8517 20.2323C88.5378 20.6189 88.1149 20.9985 87.5868 21.38C87.0587 21.7614 86.5093 22.0671 85.9514 22.3023ZM93.2937 19.3756L91.1862 19.9973C91.1587 19.4556 90.9867 18.6307 90.6606 17.5254L88.1186 8.90817C87.7953 7.81228 87.4949 7.03547 87.2239 6.56559L89.3314 5.9439C89.3578 6.51648 89.5298 7.34135 89.8421 8.39977L90.986 12.2775L91.1452 12.2306C91.271 10.3099 92.4222 8.93172 94.3424 8.36529C96.9557 7.5944 98.919 8.62394 99.723 11.3496L100.701 14.6654C100.975 15.5927 101.267 16.3414 101.583 16.9303L99.485 17.5492C99.431 16.883 99.281 16.133 99.0296 15.2807L98.1095 12.1616C97.5154 10.1478 96.0698 9.42368 94.1497 9.99011C93.494 10.1835 92.9377 10.5411 92.4873 11.0507C92.0369 11.5603 91.7359 12.1276 91.5909 12.7405C91.4487 13.3628 91.4591 13.9503 91.6249 14.5123L92.4532 17.2512C92.7654 18.3096 93.0437 19.0115 93.2937 19.3756ZM111.888 14.9608L109.669 15.2424C109.73 14.5555 109.692 13.7137 109.565 12.7159L108.434 3.80301C108.31 2.82453 108.136 1.99998 107.906 1.34996L118.417 0.015829L118.991 1.98065C118.615 1.88083 117.918 1.90031 116.901 2.02942L110.158 2.88523L110.735 7.42886L116.47 6.70093C117.332 6.59149 117.947 6.47405 118.297 6.36073L118.535 8.2305C118.127 8.20341 117.512 8.24213 116.679 8.34787L110.944 9.0758L111.379 12.5053C111.511 13.5419 111.684 14.3665 111.888 14.9608ZM124.888 13.662L122.711 13.7327C122.81 13.1726 122.845 12.4289 122.815 11.5114L122.638 6.07481C122.606 5.089 122.522 4.31006 122.387 3.738L124.641 3.66477C124.473 4.19786 124.396 4.84522 124.421 5.59678L124.454 6.61187L124.6 6.60712C125.09 4.55887 126.37 3.34482 128.137 3.28745C128.683 3.2697 129.164 3.33225 129.579 3.48486L129.634 5.16366C129.304 4.93011 128.595 4.75773 127.96 4.77833C127.033 4.80844 126.216 5.21604 125.518 6.00082C124.821 6.78559 124.489 7.69528 124.522 8.7299L124.619 11.6873C124.648 12.595 124.738 13.2468 124.888 13.662ZM136.793 14.1835C135.146 14.0756 133.843 13.4911 132.875 12.4392C131.897 11.3867 131.463 10.0958 131.563 8.56588C131.663 7.03595 132.262 5.81272 133.369 4.89681C134.467 3.98026 135.844 3.57138 137.501 3.67991C139.138 3.78716 140.44 4.3716 141.409 5.42349C142.367 6.47474 142.801 7.76565 142.701 9.29557C142.601 10.8255 142.002 12.0487 140.905 12.9653C139.798 13.8812 138.43 14.2907 136.793 14.1835ZM134.196 11.5471C134.889 12.3265 135.781 12.7471 136.882 12.8192C137.983 12.8913 138.923 12.5908 139.711 11.9085C140.5 11.2261 140.931 10.3246 141.006 9.18449C141.08 8.04436 140.771 7.09435 140.078 6.31497C139.385 5.5356 138.493 5.11503 137.392 5.04289C136.29 4.97076 135.351 5.2713 134.562 5.95364C133.774 6.63597 133.343 7.53746 133.268 8.6776C133.194 9.81773 133.503 10.7677 134.196 11.5471ZM147.043 15.149L144.896 14.6804C145.133 14.1923 145.358 13.4818 145.564 12.5372L146.72 7.24197C146.941 6.23063 147.041 5.45278 147.029 4.91049L149.195 5.38327C148.939 5.77721 148.736 6.34254 148.573 7.08674L148.415 7.81185L148.596 7.85142C149.662 6.17489 151.169 5.54429 153.125 5.97125C155.147 6.41279 156.204 7.66297 156.277 9.52801L156.429 9.56134C157.473 7.93997 159.174 7.2917 161.149 7.72282C163.734 8.28724 164.774 10.1635 164.183 12.8731L163.445 16.2506C163.233 17.2238 163.127 18.0303 163.12 18.6584L160.992 18.194C161.265 17.5839 161.494 16.8543 161.684 15.9861L162.377 12.8089C162.813 10.8149 162.106 9.47121 160.227 9.06092C159.588 8.92137 158.959 8.96398 158.349 9.19082C157.731 9.41558 157.227 9.75537 156.818 10.206C156.408 10.6662 156.139 11.1672 155.999 11.7164L155.376 14.5691C155.182 15.4564 155.083 16.2343 155.077 16.9027L152.987 16.4466C153.198 15.9829 153.408 15.2491 153.631 14.2282L154.325 11.0511C154.76 9.05704 154.054 7.71339 152.174 7.3031C151.507 7.15731 150.866 7.20737 150.245 7.44167C149.624 7.67597 149.106 8.03276 148.713 8.50665C148.308 8.988 148.044 9.51014 147.919 10.0826L147.309 12.8781C147.082 13.9181 146.998 14.6694 147.043 15.149ZM175.546 23.6265C174.75 23.2784 173.87 22.7553 172.923 22.0432C171.964 21.3361 171.207 20.6536 170.643 19.9699L171.53 18.0875C172.027 18.9015 172.717 19.6617 173.598 20.3772C174.47 21.0887 175.351 21.6336 176.228 22.0169C177.23 22.455 178.127 22.623 178.93 22.516C179.721 22.4139 180.257 22.0408 180.539 21.3965C181.931 18.211 172.601 16.6372 174.725 11.7783C175.186 10.7224 176.035 10.0489 177.275 9.7706C178.507 9.48837 179.85 9.6596 181.291 10.2893C182.123 10.6531 182.88 11.0907 183.566 11.5931C184.253 12.0956 184.812 12.5959 185.248 13.085L184.446 14.9194C184.073 14.3833 183.551 13.8461 182.885 13.2989C182.214 12.7606 181.447 12.2973 180.597 11.9257C179.603 11.4915 178.725 11.3313 177.983 11.444C177.232 11.5527 176.725 11.9068 176.467 12.4974C175.697 14.2602 178.202 15.6003 180.269 17.186C181.098 17.8254 181.818 18.5667 182.256 19.3443C182.686 20.1181 182.749 21.0944 182.307 22.1055C181.814 23.233 180.954 23.9334 179.713 24.2117C178.472 24.49 177.085 24.2992 175.546 23.6265ZM187.642 29.7258C186.073 28.8305 185.064 27.6817 184.594 26.2782C184.125 24.8746 184.274 23.5094 185.034 22.1777C185.794 20.846 186.906 20.0192 188.362 19.7141C189.818 19.4091 191.324 19.7061 192.893 20.6014C193.308 20.8385 193.751 21.1471 194.215 21.5356C194.671 21.9192 195.018 22.2751 195.257 22.625L194.483 23.9034C194.055 23.1757 193.232 22.3914 192.341 21.8833C191.23 21.2493 190.126 21.0357 189.035 21.2338C187.939 21.4405 187.101 22.0419 186.535 23.0343C185.969 24.0267 185.882 25.0454 186.267 26.0857C186.652 27.1259 187.414 27.9769 188.542 28.6205C189.628 29.24 190.72 29.5142 191.813 29.4299L191.049 30.7701C190.551 30.7559 189.992 30.6509 189.369 30.4635C188.745 30.2762 188.168 30.0259 187.642 29.7258ZM194.46 33.6985L192.673 32.453C193.088 32.0634 193.56 31.4881 194.085 30.7351L197.196 26.2729C197.76 25.4638 198.159 24.7894 198.392 24.2497L200.243 25.5398C199.789 25.8663 199.34 26.3392 198.91 26.956L198.329 27.7892L198.45 27.873C200.068 26.525 201.819 26.3176 203.269 27.3285C203.718 27.6413 204.066 27.979 204.307 28.3498L203.347 29.7276C203.222 29.3431 202.757 28.7807 202.236 28.4177C201.475 27.8872 200.577 27.7249 199.548 27.9365C198.52 28.148 197.709 28.6784 197.117 29.5276L195.425 31.9549C194.906 32.7 194.588 33.2758 194.46 33.6985ZM202.709 40.3596C201.708 39.5159 201.132 38.6086 200.973 37.6311C200.807 36.6611 201.051 35.781 201.706 35.0046C202.367 34.2207 203.193 33.8316 204.177 33.8311C205.161 33.8306 206.154 34.2591 207.162 35.109C207.886 35.7196 208.38 36.3915 208.644 37.1383C208.901 37.8787 208.944 38.5404 208.778 39.1159L208.927 39.2418L209.997 37.9727C211.187 36.5617 210.898 35.1171 209.136 33.6313C208.584 33.1654 207.975 32.7668 207.31 32.449C206.638 32.125 206.151 31.9446 205.85 31.9078L206.725 30.8701C207.132 31.0088 207.673 31.2608 208.35 31.6399C209.027 32.0189 209.63 32.4251 210.152 32.8658C212.646 34.9685 213.08 36.9829 211.456 38.909L208.85 41.9997C208.094 42.8955 207.624 43.5592 207.433 43.9983L205.813 42.6321C206.155 42.4228 206.541 42.0712 206.969 41.5636L207.07 41.4441L206.951 41.3434C206.392 41.6265 205.739 41.6889 204.985 41.5382C204.217 41.3887 203.463 40.9954 202.709 40.3596ZM204.023 39.8458C204.807 40.5069 205.56 40.8864 206.268 40.9718C206.968 41.0647 207.552 40.8418 208.012 40.2968C208.371 39.8712 208.459 39.2816 208.276 38.514C208.093 37.7465 207.632 37.0511 206.9 36.4341C206.139 35.792 205.41 35.4451 204.72 35.3998C204.03 35.3545 203.467 35.5825 203.033 36.0976C202.604 36.6053 202.475 37.1985 202.643 37.8772C202.804 38.5496 203.269 39.21 204.023 39.8458ZM212.751 49.6132C210.991 47.8243 210.963 46.0977 212.669 44.4195L216.504 40.6454L214.764 38.8774L215.69 37.9664L217.43 39.7344L219.949 37.2548L221.475 38.1372L218.622 40.9455L221.505 43.8759L220.579 44.7869L217.696 41.8565L214.202 45.295C212.928 46.5485 212.912 47.6049 214.043 48.7534C214.522 49.2407 215.037 49.5832 215.581 49.774L214.509 50.8289C213.903 50.5892 213.313 50.1839 212.751 49.6132ZM218.899 56.7138C217.746 55.3227 217.208 53.8919 217.263 52.4129C217.319 50.9339 217.94 49.7091 219.121 48.7309C220.301 47.7527 221.634 47.3714 223.104 47.5994C224.574 47.8274 225.878 48.6364 227.03 50.0276C227.336 50.3961 227.641 50.8408 227.938 51.3681C228.229 51.8878 228.429 52.3435 228.529 52.7552L227.354 53.6783C227.21 52.8464 226.717 51.8222 226.062 51.0326C225.246 50.0475 224.289 49.4583 223.198 49.2589C222.099 49.0657 221.103 49.333 220.223 50.0619C219.344 50.7909 218.903 51.7136 218.896 52.8227C218.889 53.9318 219.303 54.997 220.131 55.9971C220.929 56.9597 221.854 57.6013 222.907 57.9081L221.719 58.8925C221.258 58.7037 220.772 58.4084 220.254 58.0131C219.737 57.6177 219.285 57.1801 218.899 56.7138ZM223.831 62.8906L222.621 61.0563C223.132 60.8719 223.87 60.4667 224.832 59.8323L232.333 54.8864C233.287 54.2574 233.942 53.7433 234.312 53.347L235.522 55.1814C234.982 55.3737 234.243 55.779 233.322 56.3864L229.947 58.6121L230.038 58.7507C231.912 58.3105 233.566 59.0095 234.668 60.6808C236.168 62.9554 235.756 65.1337 233.384 66.6981L230.498 68.6012C229.691 69.1335 229.06 69.6314 228.589 70.1057L227.385 68.2795C228.006 68.0335 228.68 67.6712 229.421 67.182L232.136 65.3918C233.889 64.2359 234.16 62.642 233.058 60.9707C232.681 60.4 232.177 59.9722 231.558 59.6901C230.939 59.408 230.309 59.2857 229.68 59.3258C229.044 59.3714 228.485 59.5527 227.996 59.8753L225.618 61.4668C224.696 62.0743 224.106 62.5453 223.831 62.8906ZM233.458 79.3997L232.545 77.3583C233.22 77.2169 234.014 76.9364 234.932 76.5257L243.134 72.8574C244.034 72.4547 244.773 72.0494 245.328 71.6406L249.654 81.3129L247.941 82.4324C247.927 82.0428 247.706 81.3819 247.287 80.4459L244.512 74.2414L240.331 76.1114L242.692 81.3888C243.047 82.1822 243.338 82.7368 243.548 83.0387L241.827 83.8082C241.735 83.4109 241.519 82.8333 241.176 82.0666L238.816 76.7892L235.66 78.2007C234.706 78.6273 233.968 79.0326 233.458 79.3997ZM238.462 91.4684L237.769 89.4038C238.334 89.3378 239.056 89.1572 239.926 88.8652L245.083 87.1349C246.018 86.8211 246.741 86.5171 247.249 86.2227L247.967 88.3614C247.408 88.3532 246.766 88.4656 246.053 88.7049L245.09 89.0279L245.137 89.1668C247.24 89.0484 248.77 89.9255 249.332 91.6012C249.506 92.1197 249.584 92.5982 249.557 93.0399L247.965 93.5742C248.094 93.191 248.055 92.4623 247.854 91.8605C247.558 90.9809 246.933 90.3151 245.981 89.8723C245.029 89.4295 244.063 89.3728 243.081 89.702L240.276 90.6433C239.415 90.9322 238.816 91.2052 238.462 91.4684ZM241.386 103.022C241.015 101.413 241.2 99.9978 241.929 98.7675C242.655 97.5276 243.766 96.7402 245.26 96.3958C246.754 96.0513 248.098 96.2726 249.294 97.0692C250.488 97.8562 251.276 99.0575 251.649 100.675C252.017 102.274 251.833 103.69 251.104 104.92C250.373 106.141 249.262 106.928 247.768 107.272C246.274 107.617 244.93 107.396 243.737 106.609C242.541 105.812 241.755 104.62 241.386 103.022ZM243.163 99.7756C242.616 100.663 242.471 101.639 242.718 102.714C242.966 103.79 243.525 104.603 244.405 105.162C245.286 105.72 246.273 105.873 247.386 105.617C248.5 105.36 249.32 104.79 249.867 103.902C250.414 103.014 250.56 102.039 250.312 100.963C250.064 99.8881 249.506 99.0748 248.625 98.5161C247.745 97.9575 246.758 97.8043 245.644 98.061C244.531 98.3178 243.71 98.8878 243.163 99.7756ZM243.41 113.116L243.242 110.925C243.778 111.011 244.523 111.023 245.487 110.949L250.891 110.535C251.923 110.456 252.697 110.328 253.213 110.161L253.382 112.372C252.931 112.24 252.332 112.207 251.572 112.265L250.832 112.322L250.846 112.507C252.758 113.046 253.795 114.309 253.948 116.305C254.106 118.369 253.212 119.74 251.447 120.345L251.459 120.501C253.311 121.035 254.421 122.478 254.575 124.494C254.777 127.132 253.279 128.667 250.514 128.879L247.067 129.143C246.073 129.219 245.27 129.349 244.667 129.523L244.5 127.351C245.163 127.438 245.928 127.448 246.814 127.38L250.056 127.132C252.092 126.976 253.176 125.913 253.029 123.995C252.979 123.343 252.757 122.752 252.365 122.234C251.972 121.706 251.502 121.321 250.953 121.059C250.394 120.798 249.837 120.684 249.271 120.708L246.359 120.931C245.454 121 244.68 121.128 244.038 121.314L243.875 119.182C244.379 119.251 245.143 119.242 246.185 119.162L249.427 118.913C251.462 118.758 252.546 117.695 252.399 115.777C252.347 115.095 252.115 114.496 251.712 113.969C251.31 113.441 250.819 113.048 250.252 112.807C249.675 112.558 249.099 112.455 248.515 112.5L245.662 112.718C244.6 112.799 243.857 112.935 243.41 113.116ZM243.479 142.857C243.582 141.994 243.83 141.001 244.239 139.89C244.639 138.767 245.074 137.846 245.566 137.108L247.624 137.415C246.988 138.125 246.459 139.006 246.028 140.055C245.599 141.096 245.331 142.096 245.217 143.046C245.086 144.132 245.184 145.039 245.518 145.778C245.844 146.505 246.356 146.911 247.054 146.995C250.505 147.41 249.322 138.022 254.587 138.654C255.731 138.792 256.62 139.41 257.245 140.518C257.87 141.616 258.093 142.951 257.906 144.512C257.797 145.414 257.597 146.265 257.314 147.067C257.03 147.869 256.713 148.549 256.37 149.108L254.382 148.869C254.788 148.357 255.152 147.702 255.484 146.906C255.806 146.109 256.028 145.24 256.139 144.319C256.268 143.243 256.168 142.356 255.846 141.678C255.526 140.99 255.041 140.607 254.401 140.53C252.491 140.301 251.93 143.086 251.007 145.522C250.634 146.501 250.132 147.404 249.514 148.048C248.897 148.682 247.98 149.024 246.885 148.893C245.663 148.746 244.744 148.124 244.12 147.016C243.496 145.908 243.278 144.525 243.479 142.857ZM242.168 153.051L242.63 150.922C243.149 151.155 243.862 151.369 244.759 151.564L250.075 152.716C251.039 152.925 251.815 153.033 252.403 153.041L251.925 155.245C251.449 154.952 250.84 154.72 250.105 154.561L249.112 154.346L249.081 154.489C250.948 155.463 251.814 157 251.44 158.727C251.324 159.262 251.146 159.713 250.897 160.079L249.256 159.723C249.563 159.46 249.902 158.814 250.037 158.194C250.233 157.287 250.037 156.395 249.446 155.527C248.854 154.66 248.053 154.116 247.041 153.897L244.149 153.27C243.262 153.078 242.608 153.006 242.168 153.051ZM239.166 163.216C239.568 161.97 240.189 161.093 241.033 160.575C241.868 160.054 242.775 159.946 243.741 160.258C244.717 160.572 245.39 161.189 245.764 162.1C246.138 163.01 246.117 164.091 245.713 165.346C245.423 166.248 244.988 166.959 244.397 167.487C243.81 168.006 243.213 168.296 242.618 168.36L242.558 168.546L244.138 169.055C245.895 169.621 247.122 168.806 247.829 166.613C248.051 165.925 248.189 165.21 248.231 164.475C248.276 163.73 248.258 163.211 248.178 162.919L249.47 163.335C249.496 163.764 249.468 164.36 249.374 165.13C249.279 165.9 249.132 166.612 248.923 167.263C247.922 170.367 246.223 171.533 243.825 170.76L239.977 169.52C238.861 169.161 238.069 168.977 237.59 168.967L238.24 166.95C238.564 167.187 239.035 167.411 239.667 167.615L239.816 167.663L239.864 167.514C239.39 167.105 239.085 166.524 238.938 165.769C238.786 165.001 238.864 164.155 239.166 163.216ZM240.14 164.237C239.825 165.213 239.76 166.054 239.949 166.741C240.129 167.425 240.556 167.881 241.235 168.099C241.765 168.27 242.344 168.128 242.985 167.668C243.625 167.208 244.094 166.517 244.388 165.606C244.693 164.658 244.738 163.852 244.518 163.196C244.298 162.541 243.874 162.106 243.233 161.9C242.601 161.696 242.003 161.801 241.438 162.214C240.877 162.618 240.442 163.299 240.14 164.237ZM234.425 176.022C235.407 173.713 236.993 173.029 239.194 173.966L244.146 176.072L245.117 173.79L246.312 174.299L245.341 176.581L248.594 177.965L248.36 179.712L244.676 178.145L243.066 181.928L241.871 181.419L243.48 177.636L238.969 175.717C237.325 175.017 236.342 175.406 235.712 176.888C235.444 177.517 235.324 178.124 235.355 178.7L233.971 178.111C233.962 177.46 234.111 176.759 234.425 176.022ZM230.185 184.402C231.037 182.808 232.157 181.769 233.547 181.26C234.937 180.752 236.306 180.864 237.658 181.587C239.011 182.309 239.868 183.399 240.213 184.845C240.558 186.292 240.302 187.806 239.451 189.399C239.225 189.821 238.929 190.272 238.553 190.746C238.182 191.212 237.836 191.57 237.493 191.818L236.194 191.08C236.909 190.632 237.671 189.787 238.154 188.883C238.757 187.755 238.94 186.646 238.712 185.56C238.475 184.47 237.851 183.65 236.844 183.111C235.836 182.572 234.815 182.514 233.786 182.927C232.757 183.34 231.927 184.126 231.315 185.271C230.725 186.374 230.481 187.472 230.596 188.563L229.235 187.836C229.236 187.338 229.325 186.777 229.495 186.148C229.665 185.519 229.9 184.936 230.185 184.402ZM226.33 191.302L227.573 189.489C227.936 189.892 228.59 190.423 229.54 191.075L236.951 196.154C237.894 196.8 238.617 197.213 239.124 197.406L237.882 199.218C237.5 198.791 236.846 198.26 235.936 197.636L232.601 195.35L232.507 195.487C233.622 197.056 233.599 198.852 232.467 200.503C230.927 202.751 228.754 203.192 226.41 201.585L223.558 199.631C222.761 199.084 222.062 198.688 221.445 198.431L222.681 196.626C223.144 197.109 223.733 197.596 224.466 198.098L227.149 199.937C228.881 201.124 230.459 200.773 231.591 199.121C231.977 198.558 232.183 197.929 232.211 197.25C232.238 196.57 232.114 195.94 231.839 195.373C231.557 194.801 231.178 194.352 230.695 194.02L228.323 192.419C227.413 191.795 226.754 191.426 226.33 191.302ZM214.696 206.462L216.238 204.843C216.625 205.414 217.186 206.043 217.914 206.737L224.419 212.934C225.133 213.614 225.789 214.144 226.378 214.502L219.069 222.174L217.383 221.013C217.738 220.853 218.266 220.398 218.973 219.655L223.662 214.734L220.346 211.575L216.358 215.761C215.758 216.39 215.356 216.87 215.156 217.178L213.791 215.878C214.124 215.642 214.577 215.224 215.156 214.616L219.144 210.43L216.641 208.045C215.884 207.325 215.229 206.795 214.696 206.462ZM205.43 215.673L207.076 214.247C207.352 214.745 207.793 215.344 208.395 216.038L211.957 220.149C212.603 220.894 213.158 221.446 213.624 221.805L211.919 223.282C211.714 222.762 211.366 222.211 210.874 221.643L210.209 220.875L210.098 220.971C211.007 222.871 210.778 224.62 209.443 225.777C209.029 226.135 208.616 226.39 208.198 226.533L207.098 225.263C207.501 225.237 208.161 224.924 208.64 224.508C209.341 223.901 209.719 223.069 209.767 222.02C209.814 220.971 209.499 220.056 208.821 219.274L206.883 217.037C206.288 216.351 205.808 215.901 205.43 215.673ZM195.863 222.779C197.208 221.823 198.587 221.453 200.002 221.657C201.425 221.856 202.577 222.583 203.465 223.833C204.353 225.082 204.661 226.409 204.381 227.818C204.109 229.222 203.299 230.409 201.946 231.37C200.609 232.321 199.23 232.69 197.815 232.486C196.407 232.276 195.256 231.549 194.367 230.3C193.479 229.05 193.171 227.723 193.443 226.32C193.723 224.91 194.525 223.729 195.863 222.779ZM199.541 223.183C198.512 223.016 197.554 223.254 196.655 223.893C195.755 224.532 195.216 225.359 195.036 226.386C194.855 227.413 195.09 228.384 195.752 229.315C196.414 230.246 197.254 230.788 198.284 230.955C199.313 231.122 200.27 230.884 201.17 230.245C202.069 229.605 202.608 228.779 202.789 227.752C202.969 226.725 202.734 225.754 202.072 224.823C201.41 223.891 200.57 223.35 199.541 223.183ZM187.302 228.497L189.264 227.508C189.388 228.036 189.661 228.729 190.096 229.593L192.536 234.433C193.002 235.357 193.414 236.024 193.765 236.438L191.785 237.435C191.736 236.968 191.538 236.401 191.195 235.721L190.861 235.058L190.695 235.142C190.924 237.115 190.151 238.554 188.364 239.455C186.515 240.387 184.907 240.082 183.675 238.68L183.535 238.75C183.747 240.667 182.835 242.242 181.03 243.152C178.666 244.343 176.677 243.542 175.428 241.065L173.872 237.978C173.424 237.089 172.998 236.395 172.608 235.903L174.553 234.923C174.725 235.569 175.007 236.28 175.407 237.073L176.87 239.977C177.789 241.8 179.184 242.398 180.902 241.532C181.486 241.238 181.948 240.808 182.278 240.248C182.617 239.684 182.794 239.102 182.827 238.495C182.856 237.879 182.749 237.32 182.512 236.806L181.197 234.198C180.789 233.387 180.376 232.721 179.959 232.198L181.869 231.235C181.997 231.728 182.297 232.431 182.767 233.364L184.231 236.268C185.149 238.09 186.544 238.688 188.262 237.822C188.873 237.515 189.339 237.072 189.673 236.499C190.007 235.926 190.185 235.322 190.191 234.707C190.202 234.078 190.078 233.506 189.814 232.983L188.527 230.428C188.048 229.477 187.639 228.841 187.302 228.497ZM159.83 239.882C160.667 239.65 161.68 239.501 162.864 239.457C164.054 239.4 165.072 239.453 165.941 239.627L166.44 241.647C165.541 241.329 164.525 241.175 163.39 241.175C162.265 241.173 161.238 241.305 160.315 241.561C159.261 241.853 158.46 242.288 157.904 242.878C157.354 243.456 157.174 244.083 157.362 244.761C158.29 248.111 166.523 243.448 167.939 248.558C168.247 249.669 168.013 250.727 167.226 251.725C166.448 252.721 165.298 253.435 163.783 253.855C162.908 254.097 162.044 254.235 161.195 254.278C160.345 254.321 159.596 254.286 158.949 254.181L158.414 252.252C159.042 252.433 159.785 252.521 160.648 252.525C161.508 252.52 162.396 252.395 163.29 252.147C164.334 251.858 165.117 251.428 165.622 250.873C166.136 250.315 166.306 249.721 166.134 249.099C165.62 247.245 162.831 247.785 160.226 247.858C159.18 247.885 158.153 247.764 157.323 247.437C156.502 247.107 155.837 246.389 155.542 245.326C155.213 244.14 155.439 243.054 156.227 242.056C157.014 241.057 158.211 240.33 159.83 239.882ZM146.594 242.759C148.377 242.469 149.883 242.728 151.131 243.524C152.379 244.321 153.121 245.476 153.367 246.989C153.614 248.503 153.269 249.845 152.328 250.998C151.388 252.15 150.03 252.866 148.247 253.156C147.775 253.233 147.237 253.271 146.632 253.261C146.036 253.249 145.542 253.191 145.136 253.069L144.935 251.588C145.725 251.885 146.858 251.977 147.87 251.813C149.133 251.607 150.125 251.079 150.849 250.239C151.572 249.389 151.845 248.395 151.661 247.267C151.478 246.139 150.905 245.293 149.951 244.726C148.998 244.159 147.87 243.976 146.588 244.185C145.355 244.386 144.333 244.859 143.536 245.612L143.288 244.089C143.684 243.787 144.184 243.518 144.787 243.271C145.39 243.025 145.996 242.857 146.594 242.759ZM138.797 243.976L140.968 243.81C140.894 244.374 140.892 245.118 140.962 246.034L141.377 251.457C141.452 252.441 141.57 253.215 141.731 253.781L139.481 253.953C139.626 253.413 139.674 252.763 139.617 252.013L139.54 251L139.394 251.012C138.993 253.079 137.768 254.348 136.006 254.483C135.461 254.525 134.978 254.483 134.556 254.349L134.428 252.674C134.768 252.893 135.484 253.034 136.117 252.986C137.042 252.915 137.84 252.472 138.503 251.658C139.165 250.843 139.457 249.92 139.378 248.887L139.152 245.937C139.083 245.031 138.965 244.384 138.797 243.976ZM128.197 244.015C129.505 244.041 130.524 244.383 131.263 245.043C132.002 245.692 132.366 246.53 132.346 247.545C132.326 248.57 131.929 249.393 131.164 250.012C130.4 250.632 129.359 250.924 128.041 250.898C127.094 250.879 126.287 250.668 125.612 250.254C124.946 249.84 124.496 249.353 124.263 248.801L124.068 248.797L124.035 250.457C123.998 252.303 125.132 253.243 127.437 253.289C128.159 253.303 128.883 253.23 129.6 253.058C130.326 252.887 130.818 252.721 131.075 252.56L131.048 253.917C130.644 254.065 130.065 254.21 129.301 254.342C128.536 254.473 127.812 254.537 127.129 254.523C123.868 254.459 122.262 253.167 122.312 250.648L122.392 246.606C122.415 245.434 122.363 244.622 122.235 244.161L124.354 244.203C124.22 244.581 124.141 245.097 124.128 245.761L124.125 245.917L124.281 245.92C124.537 245.349 125.005 244.889 125.686 244.532C126.377 244.165 127.21 243.995 128.197 244.015ZM127.498 245.242C126.473 245.221 125.649 245.4 125.046 245.779C124.443 246.148 124.129 246.689 124.115 247.402C124.104 247.958 124.406 248.472 125.032 248.953C125.657 249.435 126.453 249.685 127.41 249.704C128.406 249.723 129.191 249.534 129.756 249.135C130.32 248.736 130.614 248.204 130.627 247.531C130.641 246.867 130.368 246.324 129.81 245.903C129.261 245.482 128.484 245.261 127.498 245.242ZM114.564 243.185C117.06 243.451 118.176 244.769 117.922 247.148L117.35 252.498L119.816 252.762L119.678 254.053L117.212 253.79L116.836 257.305L115.097 257.59L115.522 253.609L111.434 253.172L111.572 251.881L115.66 252.318L116.181 247.443C116.371 245.666 115.713 244.839 114.111 244.668C113.431 244.596 112.816 244.657 112.274 244.855L112.434 243.36C113.054 243.161 113.768 243.099 114.564 243.185ZM105.316 241.559C107.088 241.912 108.408 242.684 109.297 243.867C110.186 245.05 110.476 246.393 110.175 247.896C109.875 249.4 109.081 250.536 107.796 251.285C106.511 252.034 104.989 252.228 103.217 251.875C102.748 251.781 102.231 251.628 101.668 251.406C101.114 251.186 100.671 250.958 100.334 250.702L100.665 249.244C101.301 249.799 102.33 250.284 103.335 250.484C104.59 250.735 105.704 250.589 106.677 250.056C107.652 249.514 108.257 248.678 108.48 247.558C108.704 246.437 108.464 245.443 107.771 244.578C107.077 243.713 106.085 243.146 104.811 242.892C103.585 242.647 102.463 242.732 101.452 243.157L101.754 241.644C102.231 241.501 102.794 241.424 103.445 241.404C104.096 241.385 104.722 241.44 105.316 241.559ZM97.595 239.868L99.6896 240.532C99.4092 240.996 99.0903 241.776 98.742 242.875L96.0271 251.439C95.6819 252.528 95.4962 253.34 95.4579 253.881L93.3633 253.217C93.6619 252.728 93.9808 251.948 94.3143 250.896L95.536 247.042L95.3777 246.992C94.1988 248.513 92.4735 249.011 90.5651 248.406C87.9679 247.583 86.9168 245.631 87.7755 242.922L88.8201 239.627C89.1123 238.705 89.2891 237.921 89.3565 237.256L91.4417 237.917C91.1137 238.5 90.8183 239.205 90.5498 240.052L89.5671 243.152C88.9327 245.154 89.7256 246.563 91.634 247.168C92.2856 247.374 92.9468 247.389 93.6052 247.219C94.2636 247.048 94.8305 246.747 95.2937 246.32C95.7598 245.884 96.0799 245.391 96.2569 244.832L97.1029 242.099C97.4364 241.047 97.5985 240.31 97.595 239.868Z" fill="#707269"/>
</svg>
