<svg width="242" height="305" viewBox="0 0 242 305" fill="none" xmlns="http://www.w3.org/2000/svg">
<path d="M23.3766 304.315C27.1466 304.925 30.9666 304.855 34.7066 304.035C35.9866 303.755 37.2466 303.395 38.4866 302.955C38.9666 302.785 39.5366 302.635 39.9866 302.375C40.7766 301.905 41.0966 300.935 41.5466 300.115C45.9866 292.125 50.4366 284.135 54.8766 276.145C63.6666 260.335 72.4566 244.535 81.2466 228.725C90.0366 212.915 98.8266 197.115 107.617 181.305C109.837 177.305 112.057 173.315 114.277 169.315C114.527 168.865 115.077 167.375 115.527 167.265C115.657 167.235 116.027 167.425 116.157 167.475C116.707 167.655 117.247 167.825 117.797 167.985C121.157 169.005 124.557 169.845 127.997 170.545C139.517 172.885 151.417 173.575 163.117 172.265C177.277 170.675 190.727 165.965 202.817 158.435C210.827 153.445 218.207 147.435 224.307 140.205C233.367 129.465 239.267 116.245 240.907 102.265C242.437 89.1647 241.197 75.6147 237.017 63.1047C234.087 54.3447 229.897 45.9547 224.667 38.3347C212.477 20.6047 193.657 8.74474 172.967 3.48474C161.857 0.664743 149.817 -0.815276 138.357 0.464724C122.677 2.21472 106.917 7.42472 93.7166 16.1147C84.0466 22.4847 75.8266 30.9547 70.2566 41.1347C64.6866 51.3147 61.8966 62.7347 61.5866 74.2647C61.2466 86.7247 62.5666 98.8747 66.7166 110.685C71.0566 123.035 77.9166 134.455 86.5666 144.275C91.0266 149.335 95.9466 153.945 101.237 158.125V153.125C81.7366 176.215 62.2466 199.305 42.7466 222.395C32.9966 233.945 23.2466 245.485 13.4966 257.035C11.0566 259.925 8.62663 262.805 6.18662 265.695C4.96662 267.135 3.74662 268.585 2.52662 270.025C1.63662 271.075 0.0266165 272.295 0.0066165 273.715C-0.0433835 277.215 0.176627 280.355 1.12663 283.725C2.58663 288.905 5.25662 293.795 9.22662 297.485C13.1966 301.175 18.1566 303.355 23.3966 304.305C23.1366 304.255 23.7266 299.365 23.3966 299.305C16.0366 297.965 9.48662 294.105 5.27662 287.845C2.32662 283.455 0.556621 278.235 0.0266208 272.975V277.975C13.1766 262.405 26.3266 246.835 39.4666 231.265C52.6166 215.695 65.7666 200.125 78.9066 184.555C86.3466 175.745 93.7866 166.935 101.227 158.125C101.507 157.785 101.247 156.075 101.247 155.625C101.247 155.265 101.517 153.355 101.227 153.125C81.0766 137.225 66.2366 114.255 62.4666 88.6447C62.0266 85.6847 61.7466 82.7047 61.6266 79.7147C61.5866 78.8247 61.7866 76.3447 61.5766 79.6147C61.6266 78.7947 61.6166 77.9747 61.6666 77.1647C61.7466 75.6547 61.8666 74.1547 62.0266 72.6547C62.6466 66.9847 63.9066 61.3847 65.8266 56.0147C69.7266 45.0947 76.3966 35.3547 85.0866 27.6947C98.4366 15.9347 115.797 9.10474 133.207 6.19474C142.527 4.64474 151.937 4.87473 161.277 6.19474C183.117 9.28473 203.997 18.9747 218.707 35.7047C230.867 49.5347 239.057 67.7847 240.977 86.0847C241.157 87.7747 241.277 89.4647 241.337 91.1547C241.357 91.7947 241.277 93.0247 241.367 90.5047C241.347 91.0447 241.337 91.5847 241.317 92.1247C241.267 93.2047 241.197 94.2747 241.107 95.3447C240.787 98.9547 240.187 102.535 239.317 106.045C237.597 112.985 234.817 119.645 231.117 125.755C225.467 135.075 217.737 142.985 208.927 149.355C199.657 156.055 189.347 161.275 178.307 164.345C165.757 167.835 152.557 168.635 139.617 167.315C131.797 166.515 124.027 164.975 116.527 162.585C116.317 162.515 116.057 162.385 115.827 162.365C115.287 162.315 115.667 161.985 115.147 162.755C113.827 164.695 112.807 166.955 111.667 169.005C109.547 172.825 107.417 176.645 105.297 180.465C100.997 188.195 96.6966 195.925 92.4066 203.655C83.7666 219.205 75.1166 234.745 66.4766 250.295C62.2266 257.935 57.9766 265.585 53.7266 273.225C51.6066 277.045 49.4766 280.865 47.3566 284.685C45.2366 288.505 43.1266 292.835 40.6966 296.675C40.1566 297.525 39.1666 297.715 38.2166 298.045C36.9466 298.485 35.6466 298.835 34.3266 299.105C30.7166 299.845 27.0366 299.885 23.4066 299.295C23.6366 299.335 23.1066 304.245 23.4066 304.295L23.3766 304.315Z" fill="#E0DEDA"/>
<path d="M115.497 147.405C125.617 152.905 136.727 156.545 148.227 157.595C156.757 158.375 165.167 157.505 173.497 155.575C191.567 151.395 209.367 142.425 220.157 126.855C225.827 118.685 228.827 109.055 229.477 99.1747C230.067 90.2847 229.567 81.2647 227.627 72.5647C226.467 67.3347 224.867 62.1647 222.737 57.2447C219.987 50.8947 215.957 45.0047 211.307 39.9047C201.397 29.0447 188.147 21.7147 174.147 17.5547C167.437 15.5647 160.567 14.3047 153.577 13.9147C141.007 13.2247 128.077 14.6047 116.247 19.0147C108.647 21.8447 101.537 26.0047 95.6271 31.5747C88.4171 38.3747 83.1271 47.1447 80.4071 56.6647C79.0671 61.3647 78.337 66.2347 78.137 71.1147C77.937 75.9947 77.957 81.1547 78.457 86.1247C79.217 93.8547 81.107 101.465 83.827 108.725C87.997 119.875 94.3371 130.365 103.127 138.475C106.877 141.935 111.037 144.925 115.507 147.385C115.357 147.305 115.527 145.135 115.527 144.885C115.527 144.595 115.747 142.515 115.507 142.385C102.627 135.285 93.0571 123.895 86.7871 110.735C84.4171 105.765 82.5371 100.555 81.0971 95.2447C80.0171 91.2747 79.1971 87.2347 78.6871 83.1547C78.4071 80.8847 78.217 78.6147 78.137 76.3347C78.137 76.0647 78.137 75.7847 78.117 75.5147V77.3147C78.117 77.0347 78.117 76.7547 78.137 76.4747C78.157 75.9847 78.1771 75.5047 78.1971 75.0147C78.2671 73.6847 78.3871 72.3647 78.5371 71.0447C80.7271 52.5047 91.787 36.2947 108.267 27.5647C120.237 21.2247 134.027 18.7847 147.477 18.7447C154.087 18.7247 160.647 19.3247 167.107 20.7247C179.457 23.4147 191.467 28.4547 201.597 36.0747C211.727 43.6947 220.157 54.5147 224.527 66.7847C226.807 73.1947 228.397 79.8747 229.147 86.6447C229.397 88.8747 229.307 91.1647 229.587 93.3847C229.587 93.4647 229.627 90.3347 229.577 91.8947C229.577 92.1247 229.567 92.3547 229.557 92.5847C229.537 93.1647 229.507 93.7447 229.467 94.3247C229.387 95.5947 229.257 96.8547 229.097 98.1147C228.487 102.825 227.327 107.465 225.537 111.865C218.257 129.825 201.427 141.615 183.597 147.675C176.137 150.215 168.237 152.085 160.357 152.675C150.657 153.405 140.837 152.115 131.567 149.225C125.987 147.485 120.617 145.155 115.487 142.375C115.637 142.455 115.467 144.625 115.467 144.875C115.467 145.155 115.257 147.245 115.487 147.375L115.497 147.405Z" fill="#E0DEDA"/>
<path d="M155.877 29.7747C155.877 29.7747 155.917 24.7747 155.877 24.7747C155.837 24.7747 155.837 29.7747 155.877 29.7747Z" fill="#E0DEDA"/>
<path d="M181.317 27.2947C181.187 27.5547 175.987 26.2147 175.627 26.1447C170.787 25.2047 165.907 24.4647 160.997 23.9847C147.587 22.6547 133.497 22.9547 120.657 27.4547C113.977 29.7947 107.697 33.3847 102.667 38.4047C96.7569 44.3147 92.7169 51.9047 90.0269 59.7647C88.6669 63.7547 87.5569 67.8947 87.0769 72.0947C86.6269 76.0047 86.6369 79.9347 86.6769 83.8647C86.7269 88.3847 87.1869 92.8947 88.2169 97.3047C92.2469 114.675 104.197 129.005 120.407 136.345C121.657 136.915 122.927 137.435 124.207 137.915C124.107 137.875 124.227 135.635 124.227 135.415C124.227 135.055 124.487 133.145 124.207 132.915C113.807 124.805 105.247 114.325 98.9369 102.755C95.4869 96.4247 93.2368 89.5647 92.5768 82.3647C92.4969 81.4647 92.4268 80.5747 92.3868 79.6747C92.3768 79.4347 92.3668 79.2047 92.3568 78.9647C92.3568 78.8447 92.3569 78.7147 92.3469 78.5947C92.2869 77.2547 92.3169 81.1047 92.3469 80.7147C92.4069 79.9747 92.3969 79.2347 92.4469 78.4947C92.6769 75.0347 93.2769 71.5947 94.2269 68.2647C97.5669 56.6547 105.297 47.6747 115.387 41.2647C127.907 33.3047 142.747 29.7247 157.477 29.5247C162.707 29.4547 167.947 29.7847 173.127 30.5547C174.817 30.8047 176.507 31.1047 178.177 31.4647C179.087 31.6647 180.027 32.0347 180.937 32.1647C180.997 32.1647 181.267 32.2447 181.287 32.3047C181.057 31.6947 181.307 30.4647 181.307 29.8047C181.307 29.0847 181.537 27.9847 181.287 27.3047C181.197 27.0547 179.967 26.8847 179.747 26.8247C178.317 26.4647 176.877 26.1747 175.427 25.9147C170.487 25.0447 165.467 24.6047 160.457 24.5147C145.487 24.2747 130.307 27.4247 117.317 35.0647C106.487 41.4447 97.9569 50.6547 94.3268 62.8547C92.3369 69.5547 92.1169 76.4747 92.3169 83.4147C92.4869 89.6547 93.6669 95.8247 96.0069 101.625C98.4669 107.715 102.077 113.245 105.827 118.615C110.157 124.815 115.277 130.445 121.027 135.345C122.057 136.225 123.107 137.075 124.177 137.915V132.915C109.597 127.405 97.6269 116.495 91.4169 102.135C89.3369 97.3247 87.9269 92.2347 87.2169 87.0547C87.0669 85.9447 86.9468 84.8347 86.8568 83.7247C86.8068 83.1347 86.7669 82.5447 86.7469 81.9647C86.7369 81.7247 86.7269 81.4847 86.7169 81.2447C86.7169 81.0547 86.7069 80.8647 86.6969 80.6647C86.6769 79.7747 86.6669 80.3647 86.6969 82.4447C86.7669 80.8047 86.8369 79.1747 87.0069 77.5447C87.4269 73.5647 88.4068 69.6647 89.6368 65.8547C92.0968 58.2747 95.7769 50.9147 101.147 44.9747C105.867 39.7447 111.867 35.8747 118.397 33.2847C130.797 28.3547 144.617 27.6947 157.787 28.7047C162.937 29.0947 168.057 29.7747 173.137 30.6847C174.827 30.9847 176.517 31.3147 178.197 31.6747C179.017 31.8447 180.087 32.2847 180.927 32.2547C180.967 32.2547 181.257 32.3447 181.287 32.2947C181.567 31.7447 181.307 30.4047 181.307 29.7947C181.307 29.1847 181.307 28.6147 181.307 28.0247C181.307 27.8547 181.217 27.4347 181.287 27.2947H181.317Z" fill="#E0DEDA"/>
<path d="M8.04664 277.735C19.0566 264.045 30.0666 250.355 41.0766 236.665C52.0866 222.975 63.1966 209.155 74.2566 195.405C80.4666 187.685 86.6766 179.965 92.8866 172.245V167.245C82.1366 182.065 71.3866 196.885 60.6466 211.705C49.8966 226.525 39.1466 241.345 28.4066 256.165C25.4266 260.275 22.4466 264.385 19.4666 268.495C17.9566 270.585 16.4366 272.675 14.9266 274.755C14.8266 274.895 14.4466 275.535 14.3366 275.565C14.1766 275.605 13.5966 275.235 13.4366 275.165C12.8366 274.895 12.2366 274.625 11.6466 274.355C10.4466 273.815 9.25663 273.275 8.05663 272.735C8.17663 272.795 8.03663 275.005 8.03663 275.235C8.03663 275.495 7.84663 277.635 8.05663 277.735C9.02663 278.175 9.99664 278.615 10.9666 279.055C11.4866 279.295 12.0166 279.525 12.5366 279.765C12.8566 279.915 14.0266 280.655 14.3266 280.575C14.5666 280.515 15.0466 279.585 15.2066 279.365C15.5466 278.895 15.8866 278.425 16.2366 277.955C16.9166 277.015 17.6066 276.065 18.2866 275.125C20.9766 271.425 23.6566 267.715 26.3466 264.015C31.7166 256.605 37.0966 249.195 42.4666 241.785C53.2166 226.965 63.9666 212.145 74.7066 197.325C80.7666 188.975 86.8266 180.615 92.8766 172.265C93.1666 171.865 92.8966 170.265 92.8966 169.765C92.8966 169.175 92.8966 168.585 92.8966 167.995C92.8966 167.865 92.8166 167.345 92.8766 167.265C81.8666 180.955 70.8566 194.645 59.8466 208.335C48.8366 222.025 37.7266 235.845 26.6666 249.595C20.4566 257.315 14.2466 265.035 8.03663 272.755C7.74663 273.115 8.01664 274.795 8.01664 275.255C8.01664 275.845 8.01664 276.435 8.01664 277.025C8.01664 277.155 8.09663 277.675 8.03663 277.755L8.04664 277.735Z" fill="#E0DEDA"/>
</svg>
