<svg width="339" height="290" viewBox="0 0 339 290" fill="none" xmlns="http://www.w3.org/2000/svg">
<path d="M141.01 102.728C142.37 103.038 143.68 100.848 144.27 99.9784C146.76 96.2784 148.57 92.0884 150.35 88.0184C151.88 84.5184 153.32 80.9785 154.71 77.4285C154.92 76.8985 155.04 76.2684 155.49 75.9884C155.9 75.7384 156.67 75.6884 157.16 75.5684C158.23 75.3084 159.3 75.0584 160.38 74.8284C162.36 74.3984 164.35 74.0084 166.36 73.6584C173.12 72.4984 179.95 71.9185 186.81 71.7785C192.14 71.6685 197.65 71.8984 202.66 69.7984C206.72 68.0984 210.6 65.3384 213.36 61.9084C215.37 59.3984 216.74 56.4184 217.03 53.1984C217.28 50.4284 217.15 47.5784 217.1 44.7984C217.07 43.2184 216.92 41.6584 216.52 40.1284C214.92 33.9284 210.63 28.6685 206.27 24.1485C201.59 19.2885 196.48 14.9684 190.64 11.5684C184.8 8.16843 178.45 5.65843 171.92 3.90843C161.04 1.00843 149.63 0.148436 138.4 0.00843603C132.23 -0.061564 125.89 0.278457 119.93 1.99846C117 2.84846 114.16 4.06844 111.72 5.91844C109.11 7.89844 106.86 10.4385 105.03 13.1485C103.36 15.6185 102.02 18.3284 101.21 21.2084C99.9696 25.6184 100.22 30.3284 100.31 34.8584C100.44 42.2284 103.91 48.4384 108.48 54.0184C113.05 59.5984 118.32 65.1684 124.27 69.5684C128.1 72.4084 132.34 74.8384 135.09 78.8484C139.11 84.6984 139.85 91.6385 139.98 98.5285C140 99.5285 139.69 102.318 141.01 102.738C140.89 102.698 141.05 99.2984 141.05 98.9884C141.05 98.6485 141.26 95.3185 141.01 95.2384C139.71 94.8284 140.02 92.1484 140.01 91.2684C139.97 88.0184 139.87 84.7685 139.23 81.5585C138.09 75.8385 135.45 70.5685 130.89 66.8685C129.05 65.3685 127.05 64.0685 125.13 62.6784C122.53 60.7984 120.05 58.7785 117.73 56.5585C114.97 53.9185 112.39 51.0684 109.9 48.1784C107.59 45.5084 105.4 42.6984 103.67 39.5984C101.94 36.4984 100.79 33.2885 100.44 29.8385C100.42 29.5985 100.4 29.3585 100.38 29.1185C100.2 26.9385 100.24 34.9484 100.35 34.0184C100.41 33.4984 100.41 32.9684 100.47 32.4384C100.57 31.5884 100.71 30.7385 100.9 29.8985C101.25 28.3685 101.74 26.8784 102.36 25.4484C104.15 21.3184 106.95 17.5584 110.31 14.5684C115.5 9.93843 122.61 8.42843 129.35 7.81843C135.39 7.26843 141.46 7.51845 147.51 7.83845C152.83 8.12845 158.15 8.62844 163.4 9.53843C176.27 11.7584 188.75 16.5185 198.96 24.8085C203.58 28.5685 207.99 32.9884 211.52 37.7984C213.42 40.3884 215.08 43.1984 216.1 46.2584C216.61 47.7884 216.9 49.3384 217.03 50.9384V45.1084C217.03 45.2984 217.02 45.4884 217 45.6784C216.99 45.8584 216.96 46.0284 216.94 46.2084C216.9 46.5684 216.84 46.9185 216.77 47.2785C216.61 48.0885 216.38 48.8884 216.08 49.6584C214.26 54.4384 210.22 58.0884 205.89 60.6284C201.9 62.9684 197.69 63.9185 193.1 64.1185C186.77 64.3885 180.47 64.3385 174.16 65.0285C170.77 65.3985 167.4 65.9084 164.05 66.5484C162.04 66.9284 160.05 67.3584 158.06 67.8284C157.26 68.0184 155.62 68.1484 155.13 68.7684C154.82 69.1584 154.69 69.8884 154.51 70.3584C154.31 70.8684 154.11 71.3784 153.9 71.8884C151.65 77.5284 149.34 83.1785 146.52 88.5585C145.43 90.6385 144.19 93.3684 142.23 94.8184C141.87 95.0784 141.44 95.3184 140.99 95.2184C141.07 95.2384 140.95 98.6784 140.95 98.9684C140.95 99.2784 140.79 102.668 140.99 102.718L141.01 102.728Z" fill="#CFCDC8"/>
<path d="M253.58 150.488C254.77 142.428 255.96 134.358 257.15 126.298C257.42 124.488 257.68 122.678 257.95 120.868C257.97 120.718 258.06 119.428 258.17 119.388C258.25 119.358 258.58 119.488 258.66 119.508C259.11 119.608 259.57 119.708 260.02 119.798C262.21 120.228 264.43 120.508 266.66 120.638C277.13 121.228 287.89 118.178 296.55 112.248C301.13 109.108 305.01 104.998 307.6 100.068C310.78 94.0184 311.49 87.5684 311.48 80.8484C311.46 74.6684 310.6 68.6484 307.88 63.0284C305.55 58.2084 302.03 54.1084 297.6 51.1084C289.08 45.3484 278.27 43.8184 268.2 44.4484C258.13 45.0784 247.05 48.0784 237.99 53.5584C228.93 59.0384 220.52 67.4784 214.9 76.9384C212.55 80.8884 210.59 85.1184 209.45 89.5784C208.31 94.0384 208.17 98.6684 208.64 103.078C209.01 106.578 210.61 109.818 213.81 111.518C215.74 112.548 217.9 113.068 219.99 113.648C222.82 114.438 225.61 115.328 228.26 116.588C239.44 121.888 246.98 132.218 251.3 143.548C252.17 145.828 252.92 148.148 253.58 150.498C253.39 149.808 253.6 148.718 253.6 147.998C253.6 147.238 253.78 146.238 253.58 145.498C250.68 135.188 245.82 125.158 237.73 117.918C233.04 113.728 227.54 110.848 221.52 109.088C217.63 107.948 212.98 107.238 210.53 103.628C209.69 102.378 209.15 100.948 208.85 99.4784C208.69 98.6984 208.62 97.9084 208.56 97.1184C208.45 95.3684 208.43 101.958 208.56 100.188C208.58 99.9184 208.59 99.6484 208.61 99.3684C208.65 98.8984 208.7 98.4384 208.76 97.9684C209.34 93.7884 210.84 89.7384 212.7 85.9684C217.26 76.7284 224.24 68.5584 232.42 62.3384C240.69 56.0484 250.38 52.1084 260.59 50.3384C270.8 48.5684 281.09 48.7784 290.53 52.4284C294.91 54.1184 298.99 56.6184 302.29 59.9784C306.19 63.9484 308.82 69.0184 310.23 74.3784C310.59 75.7484 310.87 77.1384 311.07 78.5384C311.18 79.3084 311.27 80.0884 311.33 80.8584C311.36 81.2884 311.39 81.7084 311.41 82.1384C311.51 84.3784 311.53 78.7484 311.41 80.6584C311.21 83.8784 310.71 87.0184 309.7 90.0884C307.89 95.5984 304.61 100.488 300.28 104.338C293.1 110.708 283.14 114.658 273.66 115.518C268.84 115.958 263.94 115.648 259.21 114.628C258.99 114.578 258.53 114.378 258.32 114.428C257.94 114.528 257.87 116.338 257.8 116.858C257.51 118.828 257.22 120.808 256.93 122.778C256.37 126.568 255.81 130.348 255.25 134.138C254.69 137.928 254.13 141.708 253.57 145.498C253.33 147.138 253.81 148.878 253.57 150.498L253.58 150.488Z" fill="#CFCDC8"/>
<path d="M196.47 207.088C197.45 202.788 198.42 198.498 199.4 194.198C199.89 192.048 200.38 189.898 200.86 187.758C200.99 187.198 201.11 186.648 201.24 186.088C201.3 185.818 201.37 184.818 201.57 184.658C201.66 184.578 202.02 184.588 202.15 184.568C205.87 183.938 209.5 182.728 212.89 181.068C222.68 176.288 230.11 167.138 232.57 156.488C233.42 152.818 233.38 149.088 233.34 145.338C233.3 141.938 232.74 138.588 231.42 135.438C228.97 129.578 224.25 125.128 219.08 121.638C214.36 118.458 209.23 115.898 204.15 113.358C199.75 111.168 195.21 109.248 190.51 107.788C184.01 105.778 177.24 104.638 170.42 104.528C165.12 104.448 159.85 105.078 154.64 105.988C145.38 107.588 136.09 110.378 128.23 115.648C123.66 118.718 119.67 122.648 116.82 127.368C113.69 132.558 112.04 138.518 111.54 144.528C110.54 156.478 111.72 170.558 121.08 179.208C130.44 187.858 144.25 185.488 156 185.028C162.57 184.768 169.26 185.038 175.52 187.258C182.38 189.688 188.22 194.368 192.47 200.238C194.02 202.388 195.36 204.678 196.5 207.068C196.45 206.968 196.52 206.368 196.52 206.338C196.52 205.748 196.52 205.158 196.52 204.568C196.52 203.918 196.79 202.668 196.5 202.068C193.84 196.538 190.12 191.518 185.3 187.688C179.97 183.458 173.6 181.078 166.88 180.298C160.59 179.568 154.27 180.098 147.98 180.458C142.23 180.778 136.3 181.028 130.69 179.488C118.91 176.228 112.88 164.778 111.65 153.318C111.56 152.488 111.49 151.658 111.45 150.818C111.43 150.468 111.43 150.128 111.41 149.778C111.38 149.298 111.36 153.338 111.41 152.048C111.42 151.798 111.42 151.558 111.44 151.308C111.51 149.678 111.67 148.058 111.91 146.448C112.34 143.598 113.04 140.788 114.05 138.098C115.99 132.938 119.15 128.328 123.2 124.588C130.39 117.948 139.81 114.218 149.23 112.048C159.46 109.688 170.04 108.708 180.45 110.388C190.86 112.068 200.1 116.178 209.28 120.938C220.08 126.538 231.65 133.868 233.17 147.088C233.23 147.608 233.25 148.138 233.3 148.658C233.41 149.928 233.36 145.558 233.32 146.058C233.3 146.258 233.3 146.458 233.29 146.648C233.23 147.648 233.12 148.638 232.95 149.628C232.69 151.168 232.31 152.688 231.83 154.178C231.05 156.588 230.01 158.908 228.77 161.108C226.24 165.578 222.84 169.508 218.69 172.548C214.82 175.378 210.4 177.448 205.79 178.718C204.56 179.058 203.13 179.128 201.94 179.568C201.5 179.728 201.57 179.748 201.43 180.338C201.18 181.448 200.92 182.568 200.67 183.678C200.2 185.748 199.73 187.818 199.26 189.888C198.34 193.948 197.42 198.008 196.49 202.058C196.32 202.818 196.47 203.778 196.47 204.558C196.47 205.338 196.67 206.308 196.49 207.058L196.47 207.088Z" fill="#CFCDC8"/>
<path d="M26.5298 152.498C29.3398 148.628 32.1598 144.758 34.9698 140.888C35.4498 140.228 36.2498 138.638 36.9698 138.328C37.4998 138.098 38.6098 138.248 39.1898 138.218C40.7998 138.128 42.4198 138.018 44.0298 137.898C52.4398 137.238 60.7498 135.968 69.0298 134.388C77.3098 132.808 85.2398 131.068 92.9198 127.988C100.6 124.908 107.8 120.618 114.41 115.798C119.93 111.768 125.12 106.518 125.8 99.3784C125.99 97.4184 125.91 95.4184 125.89 93.4484C125.88 91.9584 125.79 90.4884 125.49 89.0285C124.86 85.9484 123.51 83.0584 121.83 80.4084C118.62 75.3484 114.23 71.0884 109.62 67.3084C104.68 63.2684 99.4198 59.6384 93.6398 56.9084C82.1198 51.4684 69.1398 49.2884 56.4598 49.9884C52.0698 50.2284 47.8898 50.9084 43.6598 52.0784C35.6398 54.2884 27.7598 57.3484 20.5798 61.5884C12.1498 66.5684 4.20981 73.6484 1.26981 83.2884C0.489814 85.8284 0.119812 88.4584 0.0498123 91.1184C-0.0301877 94.7284 -0.100191 98.4084 0.569809 101.968C1.69981 107.938 4.57982 113.458 8.21982 118.268C11.2498 122.278 14.8098 125.868 18.6898 129.058C19.8498 130.008 21.0398 130.938 22.2598 131.798C22.5298 131.988 23.0298 132.208 23.2298 132.468C23.6098 132.968 23.5898 134.288 23.6998 134.948C23.8998 136.168 24.0898 137.378 24.2898 138.598C25.0398 143.228 25.7798 147.848 26.5298 152.478C26.2698 150.858 26.7898 149.108 26.5298 147.478C25.7798 142.848 25.0398 138.228 24.2898 133.598C24.1098 132.458 23.9198 131.328 23.7398 130.188C23.6198 129.468 23.6598 128.018 23.2498 127.478C23.0698 127.238 22.5898 127.028 22.3498 126.858C19.4498 124.808 16.7298 122.498 14.1898 120.008C10.2798 116.178 6.78981 111.858 4.20981 107.018C2.79981 104.378 1.66981 101.588 0.959808 98.6784C0.599808 97.2084 0.339812 95.7184 0.189812 94.2084C0.149812 93.7484 0.159813 93.2684 0.0898132 92.8084C-0.0701868 91.7684 0.049811 95.8684 0.079811 95.4484C0.099811 95.2184 0.0998098 94.9984 0.10981 94.7684C0.14981 94.0084 0.229813 93.2484 0.339813 92.4884C1.71981 82.6584 8.40981 74.8584 16.2998 69.3184C23.4598 64.2884 31.6498 60.7484 39.9698 58.1384C43.7498 56.9484 47.5798 55.8884 51.5098 55.3984C61.8398 54.1084 72.5698 54.9384 82.5898 57.7584C94.8198 61.1984 105.85 68.0884 114.88 76.9784C119.14 81.1684 123.11 86.0984 124.94 91.8684C125.41 93.3484 125.73 94.8884 125.84 96.4484C126.01 98.9084 125.99 92.1684 125.86 93.7984C125.83 94.1984 125.8 94.5984 125.75 94.9884C125.64 95.8384 125.46 96.6884 125.22 97.5084C124.3 100.658 122.45 103.428 120.21 105.798C117.74 108.408 114.83 110.568 111.86 112.558C108.55 114.768 105.14 116.898 101.66 118.828C94.6198 122.718 87.0198 125.358 79.2098 127.228C71.0298 129.188 62.6798 130.708 54.3398 131.788C50.6298 132.268 46.8998 132.648 43.1698 132.928C41.6498 133.038 40.1298 133.138 38.5998 133.218C38.2498 133.238 37.9098 133.248 37.5598 133.268C36.9898 133.298 36.9598 133.238 36.5598 133.698C35.8198 134.528 35.2098 135.548 34.5598 136.448C31.8898 140.118 29.2198 143.798 26.5498 147.468C26.2598 147.868 26.5298 149.468 26.5298 149.968C26.5298 150.558 26.5298 151.148 26.5298 151.738C26.5298 151.878 26.6198 152.378 26.5498 152.468L26.5298 152.498Z" fill="#CFCDC8"/>
<path d="M75.4697 237.488C77.2097 234.578 78.9597 231.668 80.6997 228.768C81.1197 228.078 81.5297 227.388 81.9497 226.688C82.2797 226.148 82.7297 224.938 83.2397 224.598C83.5097 224.428 84.0997 224.408 84.4097 224.328C87.3697 223.598 90.2597 222.538 92.9897 221.178C101.59 216.878 108.22 209.078 108.94 199.218C109.35 193.668 108.99 188.068 107.96 182.618C106.87 176.858 105.57 171.098 104.07 165.428C102.82 160.718 101.29 156.018 98.7597 151.828C96.2297 147.638 92.7897 144.258 88.6397 141.798C79.8697 136.608 69.0297 136.108 59.2497 138.188C49.4697 140.268 41.1997 144.728 34.0997 151.258C26.9997 157.788 20.6397 167.078 19.8597 177.278C19.4597 182.478 19.5197 188.008 21.1497 193.008C22.4897 197.148 24.7897 200.908 27.6297 204.188C32.4897 209.808 38.7897 214.068 45.3797 217.408C48.3597 218.918 51.4197 220.298 54.5797 221.388C57.2197 222.298 59.9197 223.018 62.6597 223.538C63.1997 223.638 63.7297 223.738 64.2697 223.828C64.5097 223.868 64.9497 223.858 65.1697 223.968C65.4397 224.108 65.7397 224.708 65.9297 224.958C66.9897 226.348 68.0497 227.738 69.1097 229.138C71.2297 231.918 73.3497 234.708 75.4697 237.488C75.4297 237.438 75.4897 236.718 75.4897 236.758C75.4897 236.168 75.4897 235.578 75.4897 234.988C75.4897 234.398 75.4897 233.808 75.4897 233.218C75.4897 233.068 75.5597 232.598 75.4697 232.488C73.4497 229.838 71.4297 227.188 69.4097 224.538C68.3997 223.208 67.3897 221.888 66.3797 220.558C65.9597 220.008 65.4997 219.148 64.8697 218.918C64.3497 218.728 63.6897 218.728 63.1497 218.628C58.2597 217.728 53.5397 216.198 49.0197 214.148C43.5397 211.668 38.2697 208.688 33.5797 204.898C27.2397 199.768 21.9597 193.008 20.3197 184.868C20.0597 183.588 19.9197 182.298 19.8197 180.998C19.6897 179.378 19.7597 183.488 19.7997 183.208C19.8597 182.758 19.8497 182.278 19.8897 181.828C19.9497 181.218 20.0197 180.608 20.1097 180.008C20.4797 177.608 21.1497 175.258 22.0597 172.998C23.8997 168.408 26.6697 164.218 29.9297 160.508C35.9797 153.618 43.6997 148.198 52.3597 145.128C61.0197 142.058 71.4797 140.888 80.7597 143.468C89.9297 146.018 97.0797 152.288 100.9 160.968C102.89 165.498 104.12 170.338 105.24 175.148C106.54 180.728 107.96 186.358 108.68 192.048C108.84 193.298 108.9 194.538 109 195.798V193.208C109 193.448 108.99 193.698 108.97 193.938C108.95 194.278 108.92 194.608 108.89 194.938C108.82 195.668 108.72 196.388 108.58 197.098C108.11 199.568 107.25 201.938 106.04 204.138C103.9 208.058 100.73 211.308 97.0397 213.798C94.0997 215.788 90.8597 217.308 87.4897 218.418C86.3897 218.778 85.2697 219.098 84.1497 219.368C83.5597 219.508 83.3097 219.478 82.9497 219.998C82.0397 221.308 81.2797 222.778 80.4597 224.148C78.7997 226.918 77.1397 229.688 75.4697 232.458C75.1797 232.938 75.4497 234.398 75.4497 234.958C75.4497 235.548 75.4497 236.138 75.4497 236.728C75.4497 236.878 75.5397 237.338 75.4697 237.458V237.488Z" fill="#CFCDC8"/>
<path d="M315.02 246.808C315.23 236.288 315.45 225.778 315.66 215.258V215.598C322.5 213.128 328.83 208.318 333.02 202.378C336.72 197.138 338.7 190.888 338.82 184.488C338.89 180.938 338.95 177.348 338.36 173.848C337.88 171.028 337.05 168.268 335.93 165.628C332.07 156.518 325.05 149.188 316.09 144.958C305.98 140.178 294.03 138.978 283.08 141.008C272.13 143.038 261.56 149.478 253.8 158.098C248.15 164.378 243.89 171.608 239.96 179.048C237.16 184.348 234.45 189.728 232.52 195.418C230.32 201.878 229.68 208.358 230 215.158C230.27 220.988 232.61 226.348 236.92 230.318C240.98 234.058 246.19 236.388 251.49 237.738C263.18 240.718 275.78 239.318 286.16 233.058C290.27 230.578 294.62 226.888 299.76 227.758C305.55 228.748 309.32 234.148 311.75 239.048C313.05 241.658 314.09 244.388 314.99 247.158C314.78 246.508 315.01 245.348 315.01 244.658C315.01 243.918 315.22 242.868 314.99 242.158C312.17 233.558 305.4 218.608 293.8 223.588C291.51 224.568 289.43 226.028 287.32 227.338C284.64 229.008 281.87 230.528 278.9 231.638C273.7 233.568 268.08 234.318 262.56 234.208C252.22 233.998 240.19 230.728 233.87 221.888C232.18 219.518 231.03 216.798 230.45 213.948C230.31 213.258 230.2 212.548 230.13 211.848C230.08 211.408 230.06 210.958 230.02 210.518C229.88 208.938 229.91 214.388 230.02 212.278C230.1 210.658 230.32 209.048 230.62 207.458C231.78 201.368 234.18 195.568 236.89 190.018C240.51 182.608 244.43 175.198 249.34 168.558C255.59 160.118 263.63 152.888 273.42 148.848C283.21 144.808 295.29 144.068 306 146.508C316.71 148.948 325.86 154.478 331.95 163.378C334.4 166.958 336.32 170.938 337.51 175.118C337.91 176.518 338.22 177.938 338.44 179.378C338.56 180.158 338.65 180.938 338.71 181.718C338.74 182.148 338.76 182.568 338.78 182.998C338.86 184.298 338.83 179.738 338.78 180.318C338.76 180.578 338.76 180.848 338.74 181.108C338.54 184.558 337.74 187.978 336.43 191.168C332.99 199.518 325.95 206.008 317.81 209.708C317.1 210.028 316.37 210.338 315.63 210.598C315.63 210.708 315.62 210.828 315.62 210.938C315.41 221.458 315.19 231.968 314.98 242.488C314.96 243.628 314.96 244.768 314.98 245.908C314.98 246.138 315 247.698 315.01 246.808H315.02Z" fill="#CFCDC8"/>
<path d="M128.27 289.648C133.33 280.008 141.96 272.628 152.91 271.008C157.78 270.288 162.73 270.488 167.64 270.568C173.49 270.658 179.34 270.538 185.13 269.638C190.8 268.758 196.33 267.118 201.72 265.168C206.38 263.488 211 261.398 214.92 258.308C219.18 254.958 222.28 250.388 223.14 244.968C223.65 241.718 223.57 238.218 223.36 234.938C223.16 231.888 222.42 228.888 221.26 226.068C212.55 204.818 185.29 204.878 166.34 209.028C155.23 211.458 144.69 215.808 135.23 222.128C126.83 227.738 118.55 234.848 113.27 243.578C111.64 246.268 110.4 249.078 110.37 252.248C110.35 254.148 109.96 256.568 110.73 258.408C111.38 259.958 112.95 260.608 114.5 260.948C118.95 261.908 123.83 261.248 127.73 264.078C129.83 265.598 131.14 267.898 131.7 270.398C131.84 271.008 131.93 271.628 131.99 272.258C132.14 273.808 131.7 275.338 132.06 269.838C132.03 270.298 132.02 270.758 131.97 271.218C131.82 272.808 131.53 274.388 131.16 275.948C130.45 278.918 129.42 281.808 128.27 284.638C128.02 285.258 128.25 286.468 128.25 287.138C128.25 287.728 128.25 288.318 128.25 288.908C128.25 289.098 128.33 289.478 128.27 289.638C129.44 286.748 130.49 283.798 131.2 280.758C131.91 277.718 132.09 274.888 132.09 271.858C132.09 268.828 132.17 266.048 131.05 263.348C130.06 260.978 128.25 259.098 125.91 258.028C123.83 257.078 121.54 256.768 119.29 256.538C117.27 256.338 115.1 256.308 113.19 255.578C111.9 255.098 110.89 254.188 110.55 252.838C110.49 252.588 110.46 252.328 110.42 252.078C110.14 250.258 110.14 258.188 110.46 255.578C110.55 254.888 110.72 254.208 110.93 253.538C112.04 250.068 114.2 246.918 116.43 244.078C119.54 240.128 123.15 236.558 127 233.318C135.78 225.918 145.93 220.158 156.86 216.598C166.81 213.358 177.43 211.538 187.92 211.908C197.46 212.248 207.66 214.558 214.76 221.348C218.82 225.238 221.6 230.468 222.8 235.948C222.97 236.718 223.11 237.498 223.21 238.288C223.26 238.678 223.3 239.078 223.34 239.468L223.39 240.168C223.44 241.508 223.45 240.698 223.39 237.718C223.24 239.408 223.03 241.048 222.54 242.678C221.81 245.108 220.59 247.358 219 249.338C212.85 256.998 202.33 260.398 193.19 262.908C187.09 264.588 180.82 265.398 174.51 265.558C169.38 265.688 164.26 265.388 159.13 265.518C154.48 265.638 149.83 266.218 145.51 268.008C140.17 270.228 135.57 274.058 132.08 278.638C130.64 280.528 129.39 282.538 128.28 284.638C128 285.168 128.26 286.538 128.26 287.138C128.26 287.738 128.26 288.318 128.26 288.908C128.26 289.078 128.35 289.508 128.28 289.638L128.27 289.648Z" fill="#CFCDC8"/>
<path d="M28.12 90.6184C28.76 90.6184 29.65 90.4884 30.17 90.0684C30.54 89.7684 30.64 89.4384 30 89.4384C29.36 89.4384 28.47 89.5684 27.95 89.9884C27.58 90.2884 27.48 90.6184 28.12 90.6184Z" fill="#CFCDC8"/>
<path d="M58.57 91.1184C60.24 91.1184 60.78 88.9484 58.81 88.9484C57.14 88.9484 56.6 91.1184 58.57 91.1184Z" fill="#CFCDC8"/>
<path d="M94.3496 92.1784C94.9396 92.1784 95.9696 91.9884 96.2596 91.3784C96.5496 90.7684 96.0196 90.4984 95.4696 90.4984C94.8796 90.4984 93.8496 90.6884 93.5596 91.2984C93.2696 91.9084 93.7996 92.1784 94.3496 92.1784Z" fill="#CFCDC8"/>
<path d="M131.26 32.4084C131.92 32.4084 132.85 32.2284 133.15 31.5484C133.42 30.9484 132.91 30.4384 132.3 30.4384C131.64 30.4384 130.71 30.6184 130.41 31.2984C130.14 31.8984 130.65 32.4084 131.26 32.4084Z" fill="#CFCDC8"/>
<path d="M158.85 32.1484C159.4 32.1484 160.48 31.9384 160.77 31.3984C161.06 30.8584 160.52 30.6984 160.03 30.6984C159.48 30.6984 158.4 30.9084 158.11 31.4484C157.82 31.9884 158.36 32.1484 158.85 32.1484Z" fill="#CFCDC8"/>
<path d="M179.28 35.5085C179.85 35.5085 180.91 35.3085 181.2 34.7285C181.49 34.1485 180.96 33.9185 180.43 33.9185C179.86 33.9185 178.8 34.1185 178.51 34.6985C178.22 35.2785 178.75 35.5085 179.28 35.5085Z" fill="#CFCDC8"/>
<path d="M238.52 85.4885C239.07 85.4885 240.15 85.2785 240.44 84.7385C240.73 84.1985 240.19 84.0385 239.69 84.0385C239.14 84.0385 238.06 84.2485 237.77 84.7885C237.48 85.3285 238.02 85.4885 238.52 85.4885Z" fill="#CFCDC8"/>
<path d="M260.56 85.3484C261.2 85.3484 262.09 85.2185 262.61 84.7985C262.98 84.4985 263.08 84.1685 262.44 84.1685C261.8 84.1685 260.91 84.2984 260.39 84.7184C260.02 85.0184 259.92 85.3484 260.56 85.3484Z" fill="#CFCDC8"/>
<path d="M290.6 85.6884C291.22 85.6884 292.21 85.5084 292.5 84.8484C292.76 84.2484 292.27 83.8184 291.67 83.8184C291.07 83.8184 290.06 83.9984 289.77 84.6584C289.51 85.2584 290 85.6884 290.6 85.6884Z" fill="#CFCDC8"/>
<path d="M256.1 201.698C257.75 201.698 258.33 199.598 256.36 199.598C254.71 199.598 254.13 201.698 256.1 201.698Z" fill="#CFCDC8"/>
<path d="M281.35 188.298C281.93 188.298 282.97 188.098 283.26 187.508C283.55 186.918 283.02 186.668 282.48 186.668C281.9 186.668 280.86 186.868 280.57 187.458C280.28 188.048 280.81 188.298 281.35 188.298Z" fill="#CFCDC8"/>
<path d="M304.38 173.748C304.94 173.748 306.01 173.548 306.3 172.988C306.59 172.428 306.05 172.248 305.54 172.248C304.98 172.248 303.91 172.448 303.62 173.008C303.33 173.568 303.87 173.748 304.38 173.748Z" fill="#CFCDC8"/>
<path d="M133.49 147.938C134.14 147.938 135.03 147.838 135.54 147.388C135.9 147.078 136.01 146.688 135.35 146.688C134.69 146.688 133.81 146.788 133.3 147.238C132.94 147.548 132.83 147.938 133.49 147.938Z" fill="#CFCDC8"/>
<path d="M167.85 149.638C169.46 149.638 170.11 147.618 168.14 147.618C166.53 147.618 165.88 149.638 167.85 149.638Z" fill="#CFCDC8"/>
<path d="M197.74 149.498C198.34 149.498 199.36 149.308 199.65 148.688C199.92 148.098 199.42 147.758 198.84 147.758C198.24 147.758 197.22 147.948 196.93 148.568C196.66 149.158 197.16 149.498 197.74 149.498Z" fill="#CFCDC8"/>
<path d="M143.04 246.788C143.58 246.788 144.68 246.578 144.97 246.048C145.26 245.518 144.71 245.388 144.24 245.388C143.7 245.388 142.6 245.598 142.31 246.128C142.02 246.658 142.57 246.788 143.04 246.788Z" fill="#CFCDC8"/>
<path d="M173.8 247.158C175.46 247.158 176.02 245.008 174.05 245.008C172.39 245.008 171.83 247.158 173.8 247.158Z" fill="#CFCDC8"/>
<path d="M200.4 246.398C201.05 246.398 201.99 246.218 202.3 245.538C202.57 244.938 202.06 244.438 201.45 244.438C200.8 244.438 199.86 244.618 199.55 245.298C199.28 245.898 199.79 246.398 200.4 246.398Z" fill="#CFCDC8"/>
<path d="M39.6898 185.008C40.2698 185.008 41.3098 184.808 41.5998 184.218C41.8898 183.628 41.3598 183.368 40.8198 183.368C40.2398 183.368 39.1998 183.568 38.9098 184.158C38.6198 184.748 39.1498 185.008 39.6898 185.008Z" fill="#CFCDC8"/>
<path d="M60.3896 184.788C61.0296 184.788 61.9196 184.668 62.4396 184.238C62.8096 183.928 62.9096 183.588 62.2596 183.588C61.6096 183.588 60.7296 183.708 60.2096 184.138C59.8396 184.448 59.7396 184.788 60.3896 184.788Z" fill="#CFCDC8"/>
<path d="M81.1396 184.878C81.6696 184.878 82.7796 184.668 83.0696 184.138C83.3696 183.588 82.8096 183.498 82.3396 183.498C81.8096 183.498 80.6996 183.708 80.4096 184.238C80.1096 184.788 80.6696 184.878 81.1396 184.878Z" fill="#CFCDC8"/>
</svg>
