<svg width="379" height="227" viewBox="0 0 379 227" fill="none" xmlns="http://www.w3.org/2000/svg">
<path d="M57.2031 60.8025L65.1543 69.1072L65.1562 69.1082C66.5072 70.5287 67.8716 71.9503 69.2383 73.3728H69.2393C69.8807 74.0421 70.5217 74.7123 71.1631 75.3816C71.2142 75.4349 71.2955 75.5059 71.415 75.6082C71.5242 75.7015 71.6656 75.8201 71.7969 75.9382C71.929 76.0571 72.074 76.1971 72.2002 76.3474C72.3195 76.4895 72.4647 76.6916 72.5391 76.9392L72.54 76.9421C72.545 76.9589 72.5508 76.9731 72.5547 76.9851C72.5888 77.0285 72.6248 77.0812 72.6533 77.1453C72.6915 77.2313 72.7346 77.3733 72.7119 77.5486C72.7001 77.6396 72.6697 77.7399 72.6113 77.8376C72.5522 77.9366 72.4728 78.0196 72.3799 78.0808C72.3301 78.1136 72.2789 78.1358 72.2305 78.1541C71.7939 78.67 71.133 79.0837 70.5605 79.4099C69.9029 79.7846 69.3541 80.0549 68.9414 80.3386L68.9375 80.3406C67.815 81.1028 66.7049 81.879 65.5938 82.6707L65.5947 82.6716C63.1655 84.4207 60.7795 86.2376 58.4648 88.1365L58.4639 88.1375C42.7436 100.996 29.9115 117.214 20.915 135.417L20.0566 137.184C15.1889 147.364 11.581 158.116 9.11035 169.136L9.10938 169.138C8.79137 170.542 8.51543 171.956 8.23047 173.386C7.94638 174.812 7.65408 176.251 7.30859 177.682C7.28836 177.77 7.27035 177.868 7.24316 178.005C7.2173 178.134 7.18502 178.287 7.14355 178.441C7.06836 178.721 6.93188 179.127 6.63184 179.433C6.62944 179.436 6.62741 179.439 6.625 179.441C6.62388 179.442 6.6232 179.444 6.62207 179.445L6.62109 179.444C6.50446 179.563 6.37063 179.649 6.24219 179.716L6.24316 179.722L6.21484 179.729C6.13548 179.769 6.05953 179.803 5.99023 179.829C5.7873 179.903 5.57108 179.954 5.37988 179.992C5.23762 180.02 5.09138 180.042 4.96289 180.063L4.19434 180.268C3.72173 180.459 3.16257 180.684 2.57031 180.783C2.55618 180.786 2.54235 180.79 2.52832 180.793C2.4187 180.814 2.25261 180.839 2.06934 180.831C2.03907 180.832 2.00886 180.836 1.97852 180.836H1.39258L1.30957 180.502C1.17257 180.362 1.08242 180.205 1.02637 180.08C0.92143 179.845 0.861844 179.576 0.824219 179.321C0.748168 178.806 0.740022 178.178 0.757812 177.582C0.775858 176.977 0.821956 176.368 0.864258 175.88C0.908814 175.365 0.944087 175.033 0.950195 174.905V174.899C1.18917 170.584 1.73712 166.303 2.42285 162.062C5.36452 143.741 11.3442 126.268 19.4727 109.662C27.8768 92.4666 38.6019 76.4215 51.1191 61.9558L50.7139 61.5339L51.8027 61.241C51.8355 61.221 51.861 61.2064 51.875 61.199C51.9431 61.163 52.0176 61.1297 52.0889 61.1003C52.2333 61.0408 52.4138 60.9768 52.6094 60.9119C53.0033 60.7812 53.5017 60.6338 53.9932 60.5007C54.4842 60.3678 54.9818 60.2452 55.3721 60.1648C55.5645 60.1251 55.7476 60.092 55.8965 60.075C55.9679 60.0668 56.0559 60.0597 56.1436 60.0623C56.1534 60.0625 56.1645 60.0645 56.1768 60.0652L58.3555 59.4783L57.2031 60.8025ZM53.8145 64.7683C47.5731 72.241 41.8103 80.117 36.5918 88.3357L35.3965 90.239C27.2357 103.396 20.2538 117.484 15.2051 132.137L14.7227 133.557C13.3829 137.56 12.1909 141.615 11.1475 145.709C16.9334 131.455 24.9195 118.117 34.8848 106.356V106.355C41.753 98.2675 49.5181 90.9514 57.9834 84.5603L57.9863 84.5574C59.9188 83.115 61.8796 81.7146 63.8682 80.3562H63.8691C64.7519 79.7537 65.6362 79.1632 66.5361 78.5867C66.5965 78.5475 66.6745 78.5049 66.7256 78.4763C66.7794 78.4463 66.8325 78.4151 66.8857 78.3845C66.7374 78.1896 66.5475 77.9907 66.3203 77.7712C66.0891 77.5479 65.7938 77.2777 65.5488 77.0183C63.22 74.5919 60.8942 72.1625 58.5693 69.7332C56.9849 68.0774 55.3997 66.4226 53.8145 64.7683Z" fill="#CFCDC8" stroke="#CFCDC8" stroke-width="1.5"/>
<path d="M185.144 0.762451C185.222 0.755284 185.406 0.734866 185.588 0.770264C185.845 0.820115 186.038 0.957414 186.177 1.13062C186.229 1.19574 186.275 1.26789 186.314 1.33765L186.415 1.53296L186.416 1.53491C186.526 1.76365 186.555 2.01341 186.565 2.19214C186.576 2.38673 186.568 2.59017 186.556 2.77124C186.544 2.95258 186.526 3.13664 186.512 3.28198C186.497 3.44166 186.49 3.54292 186.49 3.60327V56.5164L188.678 57.1013L185.976 57.8289L185.864 57.8582C185.856 57.8609 185.849 57.8652 185.842 57.8679C185.725 57.9117 185.567 57.9653 185.387 58.0232C185.025 58.14 184.544 58.2849 184.053 58.4236C183.564 58.562 183.056 58.697 182.643 58.7917C182.438 58.8388 182.245 58.8791 182.085 58.9041C182.024 58.9136 181.96 58.919 181.898 58.9246L180.988 59.1707V58.7664C173.707 56.8459 166.271 55.5614 158.77 54.9656H158.769C146.927 54.0238 135.04 55.0471 123.27 56.7722C116.358 57.7857 109.662 59.3583 103.111 61.738L101.802 62.2253C96.543 64.2317 91.4463 66.6156 86.5288 69.3494H86.5317L84.1353 70.7478C83.4194 71.1653 82.5694 71.2859 81.8911 71.3826C81.8839 71.3844 81.8773 71.3879 81.8706 71.3894C81.8772 71.3879 81.8565 71.393 81.7856 71.4158C81.7234 71.4358 81.6446 71.4622 81.5503 71.4939C81.3655 71.5561 81.129 71.6362 80.894 71.7097C80.6633 71.7819 80.4111 71.8555 80.1948 71.9001C80.0894 71.9219 79.9639 71.9426 79.8413 71.947C79.7802 71.9492 79.6955 71.9483 79.6021 71.9314C79.5186 71.9163 79.3553 71.8757 79.2017 71.7458H79.2007C75.338 68.4731 71.8151 64.9217 68.2651 61.3718C66.4804 59.5871 64.6963 57.802 62.9116 56.0173C62.8697 55.9754 62.7692 55.8869 62.6069 55.7468C62.4574 55.6176 62.2726 55.4596 62.0972 55.3015C61.9248 55.1461 61.7421 54.9745 61.6001 54.8171C61.5307 54.7403 61.4524 54.646 61.3882 54.5447C61.3559 54.4938 61.3155 54.4229 61.2837 54.3376C61.2545 54.2594 61.2119 54.1144 61.2329 53.9353L61.2339 53.9255L61.2349 53.9167C61.2529 53.7903 61.2983 53.6961 61.3208 53.6531C61.3472 53.6027 61.3748 53.5619 61.395 53.5339C61.4354 53.478 61.4792 53.428 61.5132 53.3914C61.583 53.3161 61.6665 53.2375 61.7388 53.1707C61.8132 53.1019 61.8908 53.0328 61.9507 52.9792C61.9816 52.9516 62.0069 52.928 62.0278 52.9089C62.0381 52.8996 62.0461 52.8922 62.0522 52.8865C62.0581 52.881 62.061 52.8787 62.061 52.8787L62.0659 52.8738C62.7626 52.191 63.4631 51.5052 64.1636 50.8328C70.4682 44.7803 77.2767 39.26 84.4917 34.3425H84.4927C105.169 20.2596 128.165 10.5335 152.482 4.86694C156.686 3.88595 160.945 3.08706 165.217 2.45679H165.22C169.211 1.88262 173.231 1.44812 177.25 1.15405H177.251C179.03 1.02802 180.809 0.930129 182.587 0.860107C183.307 0.832443 184.048 0.804969 184.776 0.790771V0.789795C184.926 0.783784 185.034 0.772577 185.144 0.762451ZM180.958 3.3728C180.266 3.29658 179.528 3.31705 178.744 3.37183C177.998 3.42395 177.123 3.51581 176.34 3.55737C174.774 3.64056 173.205 3.75064 171.648 3.87573C167.774 4.1951 164.125 4.61266 160.101 5.23706C156.581 5.78331 153.081 6.45661 149.602 7.24878L148.113 7.59546C136.829 10.2848 125.823 14.5574 115.358 19.6023C103.934 25.1057 92.8519 31.6328 82.7622 39.3074L82.7632 39.3083C79.666 41.6834 76.6411 44.1537 73.729 46.7468C72.3381 47.9847 70.9791 49.2191 69.6499 50.4929L69.645 50.4968C69.1618 50.9525 68.6776 51.4225 68.189 51.8972L68.188 51.8962C68.0925 51.9905 67.9485 52.1125 67.8208 52.2195C67.6758 52.3409 67.5192 52.4718 67.3677 52.6052C67.2375 52.7198 67.1243 52.8275 67.0356 52.9197C67.168 53.0981 67.3742 53.3233 67.6255 53.572C67.8746 53.8187 68.1463 54.0674 68.3931 54.2917C68.6293 54.5065 68.8634 54.7172 69.0054 54.8591C69.6467 55.5005 70.3025 56.1553 70.9438 56.7966L75.3218 61.1755L76.4087 62.2625C78.5627 64.4053 80.7268 66.4837 83.0005 68.4792C89.2172 65.1205 95.7221 62.2999 102.444 60.0867L103.614 59.7078C115.712 55.8448 128.148 53.7857 140.745 52.6208L142.169 52.4958C155.193 51.4246 168.256 52.3 180.988 55.156V5.05347C180.988 4.77243 181.028 4.3762 181.042 4.13452C181.059 3.83274 181.049 3.63387 181.015 3.51147V3.5105C181.002 3.46287 180.991 3.41716 180.98 3.37378C180.974 3.37312 180.967 3.3735 180.96 3.3728H180.958Z" fill="#CFCDC8" stroke="#CFCDC8" stroke-width="1.5"/>
<path d="M198.653 1.21411C213.738 2.21237 228.711 4.75569 243.265 8.86255V8.86353L244.888 9.33032C252.988 11.704 260.901 14.6451 268.625 18.0022H268.626C281.046 23.409 293.17 29.6006 303.99 37.9084L303.991 37.9094C306.627 39.9422 309.193 42.0735 311.674 44.2883L311.677 44.2903C313.09 45.564 314.478 46.8543 315.84 48.1877C316.156 48.4965 316.472 48.8083 316.786 49.1223L317.721 50.0686L317.729 50.0764C317.765 50.1151 317.835 50.1783 317.952 50.2795C318.058 50.3713 318.196 50.4884 318.326 50.6067C318.457 50.725 318.6 50.8622 318.724 51.0051C318.793 51.0848 318.874 51.1908 318.947 51.3147C319.038 51.3921 319.128 51.4859 319.199 51.6028C319.339 51.8315 319.397 52.1284 319.291 52.4299C319.199 52.6908 319.015 52.8625 318.874 52.967C318.766 53.0469 318.644 53.1113 318.52 53.1702L318.366 53.3147C315.487 56.1593 312.604 59.0045 309.722 61.8489C306.839 64.6933 303.956 67.5378 301.077 70.3821C289.645 81.6764 278.199 92.9698 266.754 104.264L267.059 104.621L266.107 104.877C266.05 104.916 266 104.942 265.976 104.954C265.909 104.988 265.835 105.021 265.763 105.05C265.617 105.109 265.436 105.173 265.239 105.238C264.843 105.368 264.343 105.515 263.852 105.648C263.361 105.781 262.866 105.902 262.479 105.983C262.289 106.022 262.109 106.055 261.963 106.073C261.893 106.081 261.805 106.089 261.717 106.086C261.696 106.086 261.667 106.084 261.634 106.08L259.123 106.756L260.637 105.263C256.985 101.024 253.105 96.9971 249.056 93.134L247.553 91.7249C240.248 84.9677 232.304 79.0066 223.587 74.2083L222.683 73.7161C213.634 68.8448 204.009 64.8161 194.291 61.4377L193.592 61.1946L193.801 60.5696C193.69 51.0026 193.574 41.4322 193.46 31.8616C193.345 22.2441 193.23 12.6261 193.118 3.01196V3.00317C193.118 2.7761 193.218 2.61822 193.268 2.55103C193.322 2.47747 193.379 2.42907 193.409 2.40454C193.471 2.35494 193.53 2.32226 193.56 2.30688C193.625 2.27243 193.697 2.24251 193.755 2.21997C193.878 2.17217 194.041 2.11819 194.22 2.06177C194.582 1.94748 195.061 1.80932 195.548 1.67798C196.035 1.54646 196.539 1.41909 196.948 1.32544C197.152 1.27882 197.34 1.23878 197.493 1.21118C197.57 1.19739 197.681 1.17954 197.794 1.17114L198.65 0.940674L198.653 1.21411ZM199.003 30.7561C199.116 40.1988 199.228 49.6417 199.338 59.0813C204.878 61.0273 210.31 63.2319 215.659 65.6077H215.66C226.071 70.2394 235.975 75.6938 244.95 82.8567C251.967 88.4549 258.474 94.807 264.404 101.545C276.339 89.7741 288.266 78.0049 300.19 66.2336V66.2327C301.633 64.8108 303.073 63.3893 304.513 61.967C305.952 60.5448 307.392 59.1221 308.836 57.6995V57.6985C309.246 57.2954 309.657 56.8888 310.068 56.4807C310.479 56.0732 310.892 55.6646 311.305 55.259L311.306 55.2571C311.644 54.9257 312.13 54.5259 312.495 54.1985C312.899 53.8361 313.221 53.5074 313.412 53.2043C313.436 53.1665 313.461 53.1314 313.485 53.0969C313.472 53.0752 313.456 53.0538 313.442 53.0305L313.327 52.8909C313.271 52.8299 313.195 52.7556 313.102 52.6672C312.96 52.5333 312.719 52.3191 312.597 52.1965L312.591 52.1907C311.982 51.5677 311.358 50.9444 310.735 50.3352L309.847 49.4788C305.386 45.2151 300.625 41.2486 295.608 37.6487C284.522 29.6945 272.007 23.6829 259.356 18.5198H259.355C240.026 10.6205 219.497 5.87772 198.688 4.11255C198.791 12.9918 198.897 21.874 199.003 30.7561Z" fill="#CFCDC8" stroke="#CFCDC8" stroke-width="1.5"/>
<path d="M328.117 61.957C335.312 69.7389 341.905 78.0814 347.734 86.9492L347.735 86.9502C351.993 93.4344 355.631 99.942 359.372 107.006C363.12 114.081 366.512 121.313 369.15 128.904C374.981 145.694 377.726 163.504 377.474 181.254L377.473 181.253C377.468 181.596 377.243 181.791 377.218 181.814C377.152 181.874 377.087 181.913 377.055 181.932C376.983 181.973 376.906 182.006 376.846 182.03C376.718 182.081 376.553 182.137 376.374 182.193C376.011 182.307 375.53 182.442 375.045 182.569C374.558 182.697 374.057 182.822 373.648 182.914C373.445 182.96 373.259 182.999 373.108 183.027C373.025 183.043 372.922 183.058 372.823 183.068L371.916 183.312L371.92 183.08H297.856L297.906 182.284L297.941 181.721C297.795 181.071 297.836 180.308 297.896 179.655C297.966 178.886 298.058 178.256 298.058 177.743V177.738C298.071 175.557 297.989 173.376 297.81 171.195V171.194C297.492 167.273 296.87 163.38 295.945 159.557L295.756 158.793C293.749 150.932 290.441 143.927 286.062 136.604C281.558 129.076 276.678 121.862 271.079 115.132C271.036 115.098 270.994 115.06 270.954 115.015L269.878 113.773H271.21C288.133 96.8504 305.055 79.9269 321.979 63.0039L321.63 62.6289L322.678 62.3467C322.717 62.3228 322.749 62.3055 322.768 62.2959C322.834 62.2617 322.908 62.2294 322.979 62.2002C323.124 62.1411 323.305 62.0771 323.501 62.0117C323.896 61.8801 324.393 61.7317 324.883 61.5977C325.372 61.4638 325.867 61.3398 326.257 61.2598C326.448 61.2204 326.632 61.188 326.783 61.1719C326.855 61.1642 326.947 61.1568 327.039 61.1611C327.05 61.1617 327.063 61.1639 327.077 61.165L329.585 60.4902L328.117 61.957ZM276.582 113.491C282.801 121.01 288.206 129.13 293.03 137.59C297.162 144.813 300.319 152.529 302.011 160.72L302.162 161.474C302.902 165.247 303.346 169.088 303.518 172.927H303.517C303.587 174.395 303.602 175.845 303.588 177.304C303.588 177.968 303.573 178.618 303.545 179.281V179.288C303.54 179.385 303.518 179.569 303.498 179.736C303.476 179.923 303.451 180.14 303.431 180.353C303.421 180.46 303.412 180.561 303.406 180.653C303.69 180.668 304.064 180.659 304.471 180.636C304.877 180.613 305.292 180.578 305.65 180.549C305.988 180.521 306.319 180.493 306.505 180.493H371.945C371.971 171.215 371.169 161.947 369.52 152.82L369.155 150.878C367.684 143.329 365.659 135.879 363.038 128.653C360.198 120.827 356.495 113.432 352.554 106.064C344.75 91.4821 335.472 77.9129 324.416 65.6572L276.582 113.491Z" fill="#CFCDC8" stroke="#CFCDC8" stroke-width="1.5"/>
<path d="M286.107 56.1765C286.201 56.178 286.318 56.1874 286.438 56.2185C286.549 56.2475 286.737 56.3145 286.894 56.4851L286.898 56.489C287.095 56.7066 287.137 56.96 287.143 57.1199C287.148 57.2839 287.12 57.4377 287.089 57.5574C287.027 57.7987 286.917 58.0506 286.813 58.2615C286.61 58.6771 286.334 59.1247 286.299 59.1873C284.633 62.3481 282.682 65.3692 280.73 68.3347L278.785 71.2908C266.02 90.8083 252.669 109.935 239.383 129.076C228.785 144.345 218.146 159.573 207.479 174.786C207.087 175.352 206.692 175.914 206.3 176.473C205.906 177.035 205.514 177.594 205.125 178.156L205.119 178.163L205.114 178.171C205.038 178.275 204.913 178.423 204.8 178.557C204.676 178.704 204.539 178.865 204.411 179.026C204.286 179.183 204.181 179.325 204.109 179.438C204.111 179.44 204.112 179.443 204.113 179.445C204.15 179.507 204.187 179.566 204.233 179.639L204.37 179.876L204.376 179.887L204.381 179.899C205.203 181.694 205.692 183.633 205.799 185.597L205.815 185.991V185.992C205.904 189.272 204.887 192.349 203.319 195.111C201.379 198.549 198.4 200.846 194.634 201.93L194.633 201.931C192.678 202.49 190.679 203.066 188.599 203.287C186.217 206.639 183.837 209.991 181.457 213.343C178.74 217.169 176.023 220.997 173.302 224.824C173.257 224.893 173.214 224.935 173.202 224.947L173.199 224.948C172.99 225.182 172.703 225.296 172.542 225.352C172.319 225.43 172.068 225.487 171.844 225.53C171.617 225.574 171.385 225.61 171.203 225.639C170.999 225.672 170.89 225.692 170.845 225.705L170.833 225.709L170.821 225.712C170.808 225.715 170.793 225.717 170.777 225.72C170.3 225.842 169.802 225.967 169.45 226.056C169.26 226.105 169.105 226.145 168.998 226.174C168.944 226.188 168.908 226.198 168.888 226.204C168.876 226.207 168.878 226.206 168.889 226.203C168.891 226.202 168.915 226.194 168.946 226.179C168.958 226.174 169.002 226.154 169.053 226.12C169.068 226.11 169.095 226.088 169.128 226.058C169.103 226.067 169.088 226.073 169.082 226.076C169.101 226.065 169.161 226.025 169.221 225.944L168.709 225.574L167.899 225.665L166.603 219.921V219.918C166.565 219.75 166.534 219.503 166.505 219.275C166.474 219.029 166.441 218.763 166.401 218.505C166.361 218.243 166.317 218.018 166.27 217.853C166.266 217.84 166.26 217.828 166.257 217.817C166.232 217.813 166.201 217.807 166.165 217.803C165.988 217.787 165.762 217.786 165.506 217.796C165.252 217.806 164.994 217.825 164.752 217.842C164.528 217.857 164.284 217.874 164.107 217.869H164.105C162.246 217.813 160.393 217.758 158.526 217.675H157.896C157.763 217.689 157.592 217.699 157.427 217.66C157.324 217.636 157.122 217.571 156.961 217.38C156.77 217.152 156.748 216.884 156.79 216.685C156.826 216.517 156.906 216.392 156.955 216.323C157.011 216.246 157.073 216.178 157.13 216.122C157.214 216.04 157.316 215.957 157.426 215.872C157.529 215.716 157.644 215.58 157.74 215.472C157.891 215.303 157.975 215.221 158.071 215.105C158.364 214.749 158.658 214.397 158.949 214.047C159.242 213.694 159.534 213.344 159.825 212.99L159.826 212.989C161.981 210.381 164.139 207.776 166.297 205.173C168.455 202.569 170.612 199.965 172.766 197.358L172.772 197.35C173.052 197.021 173.542 196.543 173.879 196.18C174.276 195.753 174.535 195.414 174.623 195.184C174.647 195.12 174.659 195.076 174.669 195.047C174.668 195.045 174.669 195.043 174.668 195.042C174.648 194.99 174.589 194.847 174.538 194.711L174.537 194.708C174.187 193.759 173.924 192.78 173.749 191.789L173.748 191.784C173.383 189.622 173.454 187.347 174.059 185.208C175.349 180.602 178.687 176.782 183.155 175.025L183.591 174.862C186.365 173.861 189.392 173.051 192.434 172.735C195.227 169.005 198.022 165.283 200.827 161.551C219.497 136.704 238.184 111.853 257.221 87.2654C262.478 80.4747 267.753 73.6916 273.169 67.0193L274.064 65.8982C276.167 63.2304 278.381 60.2434 281.014 57.9724C281.274 57.7311 281.537 57.5393 281.88 57.3679L281.887 57.364C282.218 57.2028 283.219 56.8404 284.15 56.5662C284.622 56.4272 285.11 56.3005 285.513 56.2322C285.711 56.1986 285.919 56.1735 286.107 56.1765ZM267.316 80.8689C262.155 87.4803 257.044 94.1346 251.939 100.799C241.177 114.851 230.497 128.961 219.845 143.098V143.099C213.222 151.883 206.613 160.667 200.019 169.465C199.066 170.749 198.12 172.061 197.123 173.339L197.122 173.34C196.865 173.667 196.606 173.897 196.319 174.068L196.322 174.09L196.247 174.109C196.166 174.154 196.084 174.197 195.998 174.233C195.64 174.385 195.202 174.476 194.834 174.575L194.835 174.576C194.128 174.771 193.111 175.147 192.199 175.254L192.198 175.253C192.097 175.265 191.996 175.272 191.896 175.279L190.184 175.74L190.513 175.299C190.5 175.298 190.488 175.299 190.476 175.299C189.919 175.286 189.421 175.274 188.94 175.324L188.933 175.325L188.924 175.326C188.454 175.364 187.992 175.427 187.522 175.505C187.397 175.553 187.255 175.607 187.129 175.655C186.917 175.736 186.76 175.799 186.688 175.835L186.683 175.838C186.083 176.131 185.502 176.46 184.965 176.827C183.278 177.987 181.878 179.545 180.872 181.332L180.871 181.333C179.255 184.195 178.675 187.472 179.281 190.708L179.413 191.323C179.558 191.936 179.74 192.539 179.959 193.126H179.958C180.006 193.255 180.041 193.332 180.081 193.432C180.114 193.515 180.166 193.647 180.19 193.798C180.246 194.145 180.128 194.438 180.039 194.66L180.04 194.661C179.878 195.082 179.551 195.461 179.297 195.734C178.987 196.068 178.782 196.251 178.603 196.465C176.707 198.764 174.728 201.148 172.903 203.348C171.991 204.449 171.077 205.554 170.164 206.659C169.252 207.763 168.339 208.867 167.426 209.968C166.915 210.59 166.402 211.209 165.89 211.826C165.377 212.443 164.866 213.057 164.359 213.675L164.36 213.676C164.142 213.943 163.92 214.211 163.701 214.475C163.49 214.73 163.281 214.982 163.075 215.233C163.525 215.279 164.01 215.29 164.521 215.284C165.264 215.276 166.12 215.233 166.868 215.255L168.833 215.309C168.897 215.309 169.017 215.302 169.207 215.289C169.388 215.277 169.611 215.262 169.833 215.255C170.051 215.247 170.292 215.246 170.508 215.266C170.616 215.276 170.736 215.293 170.854 215.325C170.958 215.353 171.126 215.409 171.28 215.535H171.281C171.283 215.536 171.284 215.538 171.286 215.54C171.287 215.541 171.288 215.541 171.289 215.542H171.288C171.447 215.675 171.539 215.838 171.589 215.943C171.646 216.062 171.688 216.189 171.722 216.305C171.788 216.538 171.838 216.806 171.877 217.052C171.916 217.3 171.949 217.555 171.976 217.759L172.039 218.177L172.04 218.181C172.109 218.485 172.177 218.79 172.245 219.095C173.555 217.251 174.867 215.407 176.177 213.562C178.899 209.728 181.622 205.893 184.348 202.058L184.351 202.054C184.561 201.762 184.899 201.63 185.078 201.567C185.301 201.489 185.551 201.432 185.775 201.388C186.002 201.345 186.234 201.309 186.416 201.28C186.62 201.247 186.729 201.227 186.774 201.214L186.79 201.21C186.887 201.184 187.017 201.14 187.191 201.078C187.355 201.019 187.554 200.946 187.752 200.881C187.95 200.815 188.171 200.751 188.39 200.709C188.541 200.679 188.717 200.656 188.9 200.66L190.837 200.139L190.359 200.809C190.627 200.825 190.895 200.837 191.164 200.837C191.409 200.837 191.656 200.818 191.932 200.796C192.082 200.783 192.244 200.77 192.411 200.759C194.29 199.665 195.812 198.58 197.039 196.881L197.041 196.88C198.85 194.387 200.071 191.29 200.23 188.249L200.244 187.837C200.282 185.778 199.859 183.703 199.027 181.802L198.868 181.469C198.818 181.367 198.756 181.237 198.711 181.093C198.603 180.749 198.619 180.425 198.725 180.05C198.848 179.613 199.159 179.198 199.393 178.907C199.678 178.551 199.878 178.338 200.031 178.122C200.457 177.515 200.882 176.908 201.308 176.302C201.733 175.695 202.158 175.089 202.583 174.482L211.992 161.045C215.128 156.562 218.262 152.076 221.392 147.587L228.938 136.748C236.479 125.903 244.002 115.042 251.479 104.157C256.793 96.4201 262.094 88.6665 267.316 80.8689Z" fill="#CFCDC8" stroke="#CFCDC8" stroke-width="1.5"/>
</svg>
