<svg width="263" height="330" viewBox="0 0 263 330" fill="none" xmlns="http://www.w3.org/2000/svg">
<path d="M213.28 258.433C204.833 251.026 195.752 243.822 188.193 235.451C187.076 234.208 186.087 232.915 185.225 231.494C181.546 225.558 178.122 219.318 176.118 212.571C174.114 205.823 174.089 198.797 175.103 191.719C176.169 184.287 177.006 176.855 177.285 169.346C177.412 166.226 177.843 162.32 176.321 159.428C174.799 156.536 171.755 156.181 168.914 156.638C163.13 157.551 156.282 159.403 151.817 163.334C148.798 165.998 147.403 169.651 146.236 173.405C143.877 181.04 142.102 188.828 139.844 196.488C138.347 201.587 136.978 207.117 134.263 211.734C133.629 212.774 132.919 213.737 132.057 214.6C131.143 215.513 130.129 216.325 129.063 217.035C128.277 217.568 127.44 218.05 126.577 218.506C124.523 219.546 121.631 219.496 127.288 218.811C121.58 219.521 116.735 219.572 111.383 216.934C106.817 214.676 102.936 210.998 100.171 206.711C96.087 200.42 94.8694 192.734 95.6557 185.352C96.2138 180.152 98.446 175.51 99.5875 170.462C100.501 166.353 101.49 160.823 100.171 156.714C98.9787 152.96 95.326 152.072 91.7747 152.478C86.5999 153.036 80.5627 154.659 75.9207 157.094C68.9703 160.722 64.3536 168.332 61.8423 175.536C60.6248 179.011 59.8384 182.664 59.8384 186.367C59.8384 190.071 59.9906 193.876 56.0334 195.448L57.8344 194.941C66.3322 192.607 58.3671 194.713 56.3885 195.245C54.5621 195.727 52.6089 196.108 50.9601 197.046C47.2059 199.152 45.2273 203.692 44.2633 207.7C43.4516 211.074 44.7199 215.26 43.1472 218.38C42.6399 219.369 41.8029 219.825 41.1433 220.663C39.7482 221.373 40.3316 221.297 42.8682 220.434C45.5063 219.775 46.039 219.648 44.4916 220.028C42.3609 220.586 40.2554 221.119 38.15 221.728C29.982 224.087 28.0543 232.255 27.4455 239.814C26.7098 248.845 29.3479 257.571 34.2183 265.105L41.5745 263.126C38.9871 261.629 36.2222 259.955 33.2797 259.245C31.3772 258.788 29.9314 259.245 28.0542 259.778C24.4522 260.742 21.3068 260.691 21.7126 265.13C22.5497 273.856 30.7684 284.282 39.2662 286.615C45.1512 288.213 51.2138 289.101 57.0734 290.801C68.9196 294.276 80.7656 297.802 92.6117 301.302C101.363 303.89 110.267 305.589 119.12 307.771C122.113 308.506 124.776 309.597 127.059 311.753C129.063 313.656 130.509 316.015 132.234 318.146C134.72 321.266 137.789 323.828 141.214 325.883C143.192 327.075 145.856 328.926 148.316 329.053C151.081 329.206 154.278 327.785 156.84 326.999C160.518 325.883 163.486 323.346 166.25 320.758C173.049 314.391 178.883 306.959 184.54 299.603C194.712 286.311 204.148 272.461 213.381 258.509C213.077 258.966 210.287 259.296 209.703 259.448C209.018 259.625 206.456 259.854 206.025 260.462C193.342 279.614 180.481 299.172 165.084 316.319C161.786 319.997 158.311 323.752 154.227 326.593C153.009 327.455 151.766 328.039 150.422 328.673C159.021 324.589 158.057 327.886 154.506 326.872C149.94 325.578 145.247 322.128 141.949 318.831C138.652 315.533 136.623 311.195 132.868 308.456C130.611 306.807 127.871 306.097 125.182 305.488C119.931 304.296 114.655 303.281 109.43 301.987C93.2206 297.979 77.4426 292.247 61.3096 287.909C54.8411 286.159 47.282 286.032 41.6253 282.176C36.7296 278.828 32.8231 273.805 30.5401 268.351C29.8806 266.753 27.4201 260.057 30.2865 259.22L23.4375 261.046C27.0396 260.386 31.4026 263.405 34.269 265.079C35.2329 265.637 41.1687 262.416 41.6253 263.101C37.6174 256.86 35.0047 249.732 34.7256 242.275C34.4973 235.603 35.3597 226.395 40.9404 221.905C41.6506 221.322 42.7921 221.018 43.4263 220.409C38.7335 221.601 37.4905 221.905 39.6974 221.347C40.1287 221.246 40.5852 221.119 41.0164 221.018C42.6906 220.587 44.3902 220.155 46.039 219.648C49.1337 218.709 51.0362 216.807 51.2138 213.484C51.3914 209.78 51.2138 206.584 52.5328 203.008C54.0041 199.076 56.1349 195.753 60.2442 194.256L57.5554 195.017C51.3153 196.691 56.6929 195.321 58.0627 194.966C59.6861 194.535 61.335 194.155 62.9585 193.622C66.3829 192.531 67.3468 189.513 67.3214 186.164C67.2961 179.417 68.8181 173.151 72.065 167.19C75.0075 161.787 79.2183 156.765 85.0018 154.355C85.6106 154.101 86.2448 153.898 86.8536 153.67C90.2781 152.376 78.5334 155.369 83.7335 154.558C85.1794 154.329 86.7267 154.253 88.1726 154.558C92.0283 155.344 93.2713 158.642 93.3474 162.244C93.4489 166.175 92.9416 170.336 91.8762 174.141C91.0645 177.134 89.7961 179.975 89.0859 182.993C87.8683 188.143 87.7668 193.698 88.8576 198.898C91.2674 210.389 101.186 220.967 113.412 221.398C118.942 221.601 124.497 219.927 129.698 218.304C134.162 216.934 138.703 214.448 141.315 210.44C143.928 206.432 145.095 201.815 146.414 197.452C148.849 189.487 150.802 181.421 153.085 173.43C154.201 169.499 155.419 165.313 158.311 162.294C159.021 161.559 159.782 160.925 160.594 160.341C162.09 159.25 164.069 158.743 165.49 157.678C162.725 159.732 161.355 158.363 164.044 158.54C164.779 158.591 165.54 158.718 166.225 158.997C167.671 159.58 168.66 160.646 169.244 162.066C170.563 165.262 170.055 169.296 169.903 172.644C169.7 177.058 169.371 181.471 168.838 185.885C168.178 191.39 166.961 196.945 166.961 202.5C166.961 211.607 170.233 220.181 174.621 228.019C176.22 230.885 177.792 233.878 179.898 236.415C182.105 239.104 184.717 241.463 187.254 243.797C193.393 249.479 199.684 254.983 205.949 260.488C206.253 260.767 209.196 259.651 209.627 259.549C210.058 259.448 213.001 258.256 213.305 258.535L213.28 258.433Z" fill="#CFCDC8"/>
<path d="M81.7302 231.266C74.5515 224.391 69.5035 215.564 67.1952 205.874C67.1952 205.874 59.8136 207.726 59.8389 207.853C62.1473 217.517 67.1952 226.345 74.3739 233.244C74.4247 233.295 75.5661 232.965 75.4647 232.991C76.3271 232.762 77.1896 232.534 78.0774 232.306C78.9652 232.077 79.8023 231.849 80.6647 231.596C80.7916 231.57 81.6794 231.24 81.7302 231.291V231.266Z" fill="#CFCDC8"/>
<path d="M41.7524 224.163C44.8218 235.451 52.9391 245.065 63.593 249.935C63.7198 249.986 64.6837 249.682 64.6837 249.682C65.5462 249.453 66.4086 249.225 67.2964 248.997C68.1843 248.769 69.0213 248.54 69.8838 248.287C70.0614 248.236 70.797 247.906 70.9492 247.982C60.2953 243.112 52.178 233.498 49.1087 222.21C49.1087 222.159 41.7524 224.138 41.7524 224.188V224.163Z" fill="#CFCDC8"/>
<path d="M103.19 138.145C106.006 145.045 103.292 153.594 100.983 160.265C98.6749 166.936 93.6015 174.166 96.1889 181.218C99.2582 189.487 109.506 192.658 117.522 191.821C124.447 191.111 132.463 188.828 138.246 184.896C146.237 179.467 149.864 171.325 150.6 161.888C151.006 156.739 151.006 151.59 150.549 146.44C150.296 143.574 149.484 140.124 150.422 137.308C150.752 136.294 151.31 135.457 152.147 134.797C152.528 134.493 153.238 134.34 153.517 134.011C153.263 134.315 146.744 135.152 149.357 135.355C149.94 135.406 150.549 135.355 151.133 135.406C154.354 135.634 157.094 134.696 160.239 133.833C165.439 132.387 170.436 130.409 175.028 127.542C182.587 122.773 188.624 115.747 191.541 107.224C194.458 98.7007 193.9 89.3405 191.338 80.7666C187.33 67.4239 179.01 55.4002 167.392 47.5873C152.908 37.872 134.492 34.6251 117.547 38.6584C109.532 40.5862 101.617 42.8438 94.3879 46.8771C87.1585 50.9103 80.0812 56.8968 74.7796 63.7965C65.3433 76.0485 59.9657 93.1708 62.0203 108.644C63.0857 116.736 67.0176 124.219 74.6021 127.897C81.5018 131.246 89.2639 130.485 96.4172 132.742C99.3851 133.681 101.77 135.304 103.139 138.145C103.368 138.627 110.293 135.786 110.496 136.167C106.665 128.303 94.946 129.673 87.7673 127.923C77.291 125.386 70.924 117.599 69.402 107.072C66.5609 87.4634 75.5153 66.3585 89.9742 53.3201C93.906 49.7688 98.269 46.7249 102.936 44.239C105.245 43.0214 107.604 41.9307 110.039 40.9921C111.003 40.637 112.043 40.4087 112.981 39.9521C114.58 39.1657 110.419 40.2818 112.221 40.155C114.022 40.0281 115.899 39.4701 117.7 39.2671C128.607 37.9988 139.819 39.7237 149.915 44.036C166.809 51.2655 179.239 65.9019 184.236 83.5062C187.762 95.9104 186.57 109.253 178.528 119.704C175.104 124.169 170.665 127.821 165.769 130.612C163.867 131.702 161.888 132.641 159.833 133.478C157.525 134.417 150.6 136.218 159.504 133.935L160.594 133.681C155.902 132.971 151.437 134.188 146.973 135.685C143.903 136.7 142.711 138.932 142.686 142.077C142.61 147.353 143.675 152.579 143.523 157.881C143.345 164.501 142.99 171.426 139.692 177.337C137.232 181.776 133.452 185.454 129.064 187.99C127.973 188.625 126.806 189.208 125.639 189.69C123.889 190.426 122.951 189.944 127.618 189.411C126.832 189.512 126.045 189.715 125.259 189.791C122.595 190.121 119.907 190.02 117.268 189.512C112.068 188.498 106.792 185.53 104.205 180.761C101.338 175.485 103.545 170.158 105.651 165.085C109.126 156.739 114.148 145.147 110.496 136.167C110.343 135.812 103.241 138.374 103.139 138.145H103.19Z" fill="#CFCDC8"/>
<path d="M92.2827 111.46C99.2077 109.735 109.304 108.467 113.058 101.465C114.783 98.2439 114.605 93.4243 111.409 91.1159C108.669 89.1373 105.27 90.5325 102.378 91.3189C99.6896 92.0545 95.9608 92.5872 95.2505 95.8341C94.2866 100.172 98.8779 104.18 102.201 106.107C109.126 110.09 118.106 111.409 125.792 109.38C129.318 108.441 133.376 107.832 135.862 104.865C138.957 101.212 137.536 97.0517 134.695 93.7794C133.351 92.2321 131.981 90.4564 129.774 90.7354C128.227 90.9384 126.629 91.5472 125.107 91.953C123.762 92.3082 122.443 92.3843 121.632 93.5511C120.338 95.3522 119.78 99.0302 119.932 101.186C120.541 109.811 134.137 110.902 140.58 110.014C147.505 109.075 157.246 106.64 157.703 98.1678C157.906 94.4896 155.267 90.8369 151.386 91.674C147.911 92.4096 142.61 92.9423 141.722 97.077C140.783 101.491 144.03 105.651 147.683 107.655C152.883 110.521 159.225 109.507 164.78 108.467C167.266 108.01 169.65 106.945 172.136 106.488C166.023 107.629 158.92 108.67 153.568 104.712C150.118 102.176 145.704 93.6018 152.071 91.5218L144.842 93.4497C149.56 93.0438 151.057 98.8781 149.941 102.48C149.103 105.194 147.404 106.64 145.349 108.416C143.371 109.38 144.233 109.253 147.937 108.035C147.252 108.137 146.567 108.188 145.882 108.188C144.664 108.238 143.447 108.162 142.229 108.061C138.069 107.706 132.996 107.198 129.749 104.256C127.948 102.632 127.187 100.501 127.263 98.0917C127.339 95.8341 127.973 92.2067 129.774 90.6847L122.418 92.6633C124.98 92.2067 127.238 95.4029 128.557 97.2546C129.977 99.3093 130.814 101.719 130.003 104.18C129.597 105.423 128.836 106.539 127.897 107.452C127.314 108.01 125.208 108.847 124.929 109.43C125.284 108.695 130.18 108.695 127.314 108.467C126.603 108.416 125.893 108.467 125.183 108.416C123.61 108.314 122.038 108.061 120.49 107.756C115.594 106.843 110.445 105.372 106.615 102.049C102.784 98.7258 100.045 92.1559 106.412 90.2535L99.1824 92.1813C104.078 91.3189 107.274 95.479 106.716 100.172C106.437 102.556 105.194 104.636 103.495 106.285C102.607 107.122 101.617 107.858 100.552 108.467C100.019 108.771 99.4614 109.05 98.9033 109.304C98.4721 109.507 96.4428 110.242 98.5989 109.71C96.9247 110.141 95.2505 110.572 93.5763 111.054C93.2466 111.155 90.9636 111.79 92.2827 111.46Z" fill="#CFCDC8"/>
<path d="M103.243 135.228C104.258 136.7 105.78 137.308 107.429 137.866C109.661 138.602 111.944 139.236 114.227 139.794C118.945 140.936 123.739 141.773 128.559 142.229C133.378 142.686 137.234 141.519 141.699 140.276C145.656 139.185 148.928 137.207 152.276 134.899C151.439 135.482 149.588 135.583 148.598 135.837C147.533 136.116 145.859 136.218 144.92 136.852C143.576 137.79 142.231 138.704 140.811 139.541C139.999 140.023 139.187 140.454 138.35 140.834C137.944 141.037 137.513 141.215 137.082 141.367L141.09 140.251C140.659 139.972 138.502 140.378 137.894 140.352C137.082 140.327 136.296 140.251 135.484 140.175C133.531 139.972 131.577 139.718 129.65 139.414C126.022 138.83 122.446 138.044 118.894 137.08C116.155 136.319 112.299 135.736 110.574 133.224C110.447 133.021 107.226 134.087 106.896 134.163C106.566 134.239 103.345 135.355 103.218 135.178L103.243 135.228Z" fill="#CFCDC8"/>
<path d="M109.075 145.426C120.11 147.531 131.423 149.56 142.559 147.075C144.791 146.567 147.886 145.553 149.636 145.147C138.602 147.607 127.339 145.527 116.431 143.447C116.203 143.396 115.468 143.676 115.341 143.701C114.478 143.929 113.616 144.157 112.728 144.386C111.84 144.614 111.003 144.842 110.141 145.096C109.887 145.172 109.303 145.451 109.075 145.4V145.426Z" fill="#CFCDC8"/>
<path d="M105.702 154.405C112.653 153.822 119.476 155.927 126.427 155.395C130.105 155.116 133.707 153.923 137.233 152.934C140.201 152.097 142.915 150.905 145.426 149.078C145.248 149.205 144.437 149.307 144.335 149.332C143.473 149.56 142.61 149.789 141.723 150.017C140.835 150.245 139.998 150.474 139.135 150.727C138.831 150.803 138.323 150.854 138.07 151.032C137.03 151.793 135.939 152.478 134.797 153.061C134.315 153.315 133.808 153.543 133.301 153.746C132.971 153.873 132.667 154 132.337 154.126C130.257 154.862 131.779 154.456 136.827 152.985C134.113 153.467 131.449 153.594 128.71 153.391C123.484 153.036 118.335 151.97 113.084 152.427C110.598 152.63 108.213 154.177 105.728 154.405H105.702Z" fill="#CFCDC8"/>
<path d="M150.067 158.159C137.586 159.174 125.081 159.605 112.55 159.479C111.408 159.479 109.962 160.138 108.871 160.417C107.781 160.696 106.335 161.457 105.193 161.432C117.699 161.559 130.23 161.127 142.71 160.113C145.196 159.91 147.581 158.337 150.067 158.134V158.159Z" fill="#CFCDC8"/>
<path d="M102.835 166.733C106.944 167.596 110.825 169.219 114.833 170.462C118.841 171.705 122.773 172.339 126.857 172.187C130.738 172.035 134.442 171.096 138.17 170.107C142.153 169.042 145.983 167.926 149.585 165.947C148.596 166.48 146.998 166.607 145.907 166.886C144.816 167.165 143.294 167.342 142.229 167.9C140.859 168.661 139.439 169.346 137.967 169.904C137.384 170.132 136.801 170.335 136.192 170.538L140.048 169.498C138.982 169.6 137.917 169.904 136.877 170.031C133.985 170.361 131.042 170.335 128.176 169.93C121.961 169.042 116.305 166.074 110.166 164.78C109.253 164.577 107.376 165.49 106.488 165.719C105.6 165.947 104.763 166.175 103.9 166.429C103.647 166.505 103.063 166.784 102.835 166.733Z" fill="#CFCDC8"/>
<path d="M37.8459 128.811C30.2867 131.728 23.8183 137.156 19.6582 144.107C19.6836 144.056 20.8504 143.828 20.7489 143.853C21.6114 143.625 22.4739 143.396 23.3617 143.168C24.2495 142.94 25.0866 142.711 25.949 142.458C26.152 142.407 26.913 142.306 27.0145 142.153C31.1745 135.203 37.643 129.775 45.2022 126.857C44.0607 127.289 42.7163 127.492 41.524 127.796C40.3318 128.1 39.0381 128.354 37.8459 128.811Z" fill="#CFCDC8"/>
<path d="M40.6877 69.0729C33.4583 67.8045 26.6093 68.8192 19.6082 70.6964C12.6071 72.5735 5.80891 75.034 0 79.8029C0.126832 79.7014 1.01464 79.5492 1.09074 79.5492C1.9532 79.3209 2.81565 79.0926 3.70348 78.8643C4.5913 78.636 5.42837 78.4078 6.29082 78.1541C6.56985 78.078 7.12795 78.0273 7.35625 77.8497C9.41093 76.1502 11.6178 74.6535 13.9515 73.4106C15.1945 72.7511 16.4881 72.1423 17.7818 71.5842C18.2638 71.3813 18.7712 71.1783 19.2785 71.0007C19.7351 70.8232 20.1916 70.671 20.6482 70.5188C22.4746 69.9353 21.3077 70.2398 17.1477 71.432C22.5761 70.3666 27.9031 70.0875 33.3568 71.0514C33.5851 71.1022 34.3207 70.8232 34.4476 70.7978C35.31 70.5695 36.1725 70.3412 37.0603 70.1129C37.9481 69.8846 38.7853 69.6563 39.6477 69.4026C39.9014 69.3265 40.4848 69.0475 40.7131 69.0983L40.6877 69.0729Z" fill="#CFCDC8"/>
<path d="M73.9439 20.1916C62.5798 12.4295 49.8204 6.92495 36.3509 3.98245C35.4631 3.77951 33.5606 4.69277 32.6728 4.92107C31.785 5.14937 30.9478 5.37766 30.0854 5.63133C29.8317 5.70742 29.2483 5.98644 29.02 5.93571C42.4642 8.87822 55.2235 14.3827 66.613 22.1448C67.0442 22.4238 69.7585 21.3331 70.2912 21.2063C71.1536 20.978 72.0161 20.7497 72.8785 20.496C73.0307 20.4453 73.8678 20.1155 73.9439 20.1916Z" fill="#CFCDC8"/>
<path d="M169.7 15.4228C173.454 11.1105 178.02 7.53383 183.119 4.92109C184.362 4.28693 185.656 3.7035 186.975 3.1708C187.761 2.86641 188.522 2.58738 189.334 2.30835C189.663 2.20689 189.993 2.10541 190.348 1.97858C192.251 1.34442 184.869 3.32301 186.822 2.94251C189.816 2.38445 192.784 1.97855 195.853 1.95319C197.02 1.95319 198.415 1.29367 199.531 1.01464C200.647 0.735611 202.042 0 203.209 0C199.683 0.0253664 196.208 0.481909 192.758 1.29363C188.598 2.30829 184.387 3.32301 180.379 4.845C173.454 7.45774 167.239 11.7953 162.369 17.3759C162.445 17.2998 163.485 17.097 163.46 17.1223C164.322 16.894 165.185 16.6657 166.073 16.4374C166.961 16.2091 167.798 15.9808 168.66 15.7271C168.888 15.651 169.573 15.6003 169.725 15.4228H169.7Z" fill="#CFCDC8"/>
<path d="M205.495 57.962C208.006 56.6937 210.568 55.5269 213.206 54.5122C214.728 53.9034 216.301 53.3708 217.848 52.8634C218.584 52.6351 219.345 52.4321 220.055 52.1785L217.265 52.9395C217.696 52.8381 218.153 52.7366 218.584 52.6351C224.266 51.3668 230.075 50.7326 235.884 50.6312C237.051 50.6312 238.446 49.9717 239.562 49.6926C240.678 49.4136 242.073 48.678 243.24 48.678C235.58 48.8048 228.096 50.0223 220.689 51.9502C212.902 53.9795 205.343 56.3132 198.139 59.966C200.346 58.8499 203.263 59.1289 205.495 57.9874V57.962Z" fill="#CFCDC8"/>
<path d="M215.895 108.771C231.267 106.159 247.45 113.49 255.644 126.731C255.745 126.908 259.017 125.868 259.322 125.792C259.626 125.716 262.899 124.625 263 124.778C254.807 111.536 238.623 104.205 223.251 106.818C220.765 107.249 218.38 108.365 215.895 108.797V108.771Z" fill="#CFCDC8"/>
</svg>
