<svg width="314" height="379" viewBox="0 0 314 379" fill="none" xmlns="http://www.w3.org/2000/svg">
<mask id="path-1-outside-1_445_69" maskUnits="userSpaceOnUse" x="-0.499512" y="133.191" width="210" height="246" fill="black">
<rect fill="white" x="-0.499512" y="133.191" width="210" height="246"/>
<path d="M136.277 376.84C141.556 376.88 146.835 376.989 152.113 376.961C154.272 376.949 156.425 376.88 158.56 376.552C169.394 374.865 179.934 371.365 188.448 364.222C195.747 358.097 201.118 349.986 204.359 341.058C208.572 329.453 208.077 316.501 205.809 304.527C205.13 300.935 204.215 297.389 203.443 293.815C202.275 288.38 201.245 282.918 200.289 277.437C197.848 263.507 195.845 249.496 193.928 235.484C193.554 232.733 192.8 229.999 192.207 227.287C191.562 224.34 190.917 221.387 190.261 218.44C188.793 211.825 187.302 205.211 185.783 198.609C184.062 191.114 182.306 183.63 180.521 176.147C180.297 175.203 180.124 174.621 179.468 173.902C178.933 173.315 178.357 172.774 177.735 172.279C176.572 171.346 175.271 170.586 173.884 170.039C171.202 168.98 168.249 168.744 165.439 169.389C163.281 169.884 161.185 170.546 159.343 171.807C157.501 173.067 156.051 174.656 154.853 176.458C152.159 180.522 151.163 185.484 152.107 190.273C153.656 198.131 155.463 205.942 157.144 213.777C158.825 221.611 160.558 229.711 162.268 237.683C163.102 241.592 163.943 245.495 164.777 249.404C164.777 249.386 166.453 249.001 166.447 248.955L156.793 203.697L152.067 181.541C151.348 178.179 150.317 174.748 150.121 171.317C149.949 168.324 149.137 165.457 147.802 162.775C145.436 158.014 141.729 154.198 136.162 153.68C132.173 153.311 127.62 154.555 124.344 156.817C122.393 158.17 120.712 159.908 119.301 161.813C119.077 162.118 118.801 162.429 118.628 162.769C118.306 163.379 118.524 163.857 118.657 164.553C119.025 166.442 119.388 168.324 119.756 170.212C121.218 177.753 122.686 185.3 124.148 192.841C127.412 209.655 130.682 226.47 133.946 243.29L135.615 242.841C130.763 218.008 125.916 193.18 121.063 168.347C119.837 162.061 118.68 155.758 117.379 149.489C116.694 146.185 114.742 142.996 112.394 140.624C109.613 137.815 105.889 135.858 101.963 135.339C98.774 134.919 95.5791 135.42 92.557 136.45C88.1418 137.953 84.9527 141.574 83.6863 146.012C83.3409 147.215 83.0704 148.51 83.0531 149.765C83.0416 150.692 83.3524 151.624 83.5482 152.528C83.882 154.059 84.2102 155.591 84.544 157.122C86.8869 167.938 89.224 178.755 91.5611 189.571C94.756 204.359 97.9508 219.148 101.117 233.942C101.969 237.914 102.815 241.886 103.65 245.863C103.886 246.986 104.122 248.103 104.352 249.225C104.461 249.76 104.49 250.417 104.692 250.929C104.697 250.952 104.743 251.119 104.72 251.142L106.39 250.693C106.28 250.647 106.188 249.922 106.165 249.824C105.958 248.949 105.757 248.074 105.555 247.199C104.761 243.728 103.984 240.251 103.206 236.774C100.086 222.843 97.0067 208.901 93.9213 194.965C91.636 184.626 89.3507 174.288 87.0711 163.943C86.8984 163.172 86.7315 162.401 86.5588 161.635C86.4379 161.088 86.4149 160.15 86.0925 159.73C85.7989 159.35 85.0218 159.05 84.6131 158.832C82.8632 157.887 80.952 157.243 78.9833 156.949C75.2301 156.379 71.0855 157.202 67.6431 158.803C64.2007 160.403 61.3571 163.16 59.6186 166.562C58.9048 167.967 58.3637 169.458 58.0183 170.995C57.6154 172.802 58.2198 174.512 58.5824 176.314C60.9656 188.172 63.3488 200.025 65.732 211.883C70.4983 235.594 75.2646 259.31 80.0367 283.021C80.1922 283.793 80.4224 284.593 80.5088 285.376C80.5778 286.009 80.457 286.078 80.0137 286.567C79.2884 287.373 78.448 287.989 77.4233 288.352L78.4767 288.058L78.1198 288.15L78.7358 287.995C75.0977 288.616 72.8584 285.255 70.5443 283.056C68.6102 281.219 66.5321 279.527 64.4368 277.869C56.3777 271.474 47.933 265.556 39.4941 259.673C38.1125 258.706 36.754 257.641 35.3091 256.766C34.3708 256.196 33.162 256.041 32.0798 255.862C29.1094 255.379 26.0528 255.431 23.1055 256.041C18.3334 257.031 14.0333 258.965 10.3089 262.143C8.29988 263.858 6.3139 265.689 4.5697 267.674C2.68734 269.827 1.0928 272.47 1.59361 275.446C2.29014 279.585 6.16999 282.273 9.38785 284.478C15.6509 288.783 21.7469 293.354 27.7394 298.022C38.4406 306.352 49.0267 314.929 57.7938 325.337C63.9244 332.613 69.0995 340.465 73.768 348.743C77.8032 355.892 83.4848 362.138 89.9436 367.198C94.3933 370.68 99.3669 373.507 104.732 375.32C106.275 375.844 107.846 376.327 109.469 376.512C111.242 376.713 113.044 376.702 114.829 376.719C118.801 376.753 122.773 376.742 126.75 376.759C129.934 376.771 133.111 376.788 136.294 376.817C136.853 376.817 137.411 376.368 137.964 376.368C130.118 376.31 122.26 376.414 114.42 376.241C111.001 376.166 108.145 375.556 104.91 374.336C96.6671 371.227 89.7018 365.776 83.7093 359.415C81.1362 356.681 78.7588 353.82 76.8016 350.608C74.8444 347.396 73.0196 343.821 70.9473 340.522C66.1292 332.843 60.4763 325.584 54.2306 319.016C45.8146 310.169 36.0057 302.582 26.3233 295.179C21.321 291.351 16.261 287.586 11.0687 284.023C8.20202 282.054 5.02446 279.855 3.70047 276.493C1.57634 271.088 6.56143 266.696 10.1016 263.397C13.3368 260.381 17.1072 257.428 21.5109 256.467C24.3201 255.856 27.2789 255.822 30.1168 256.248C31.0263 256.386 31.9531 256.542 32.8339 256.806C34.2327 257.232 35.5279 258.487 36.731 259.328C44.6979 264.871 52.6418 270.461 60.3324 276.384C63.9993 279.205 67.6316 282.077 70.7976 285.462C72.1677 286.924 73.9522 288.449 76.0533 288.519C77.4636 288.565 79.3632 287.983 80.503 287.177C80.9808 286.838 81.4068 286.435 81.7867 285.997C82.2875 285.422 82.2415 285.22 82.086 284.443L81.0902 279.498C80.4282 276.2 79.7662 272.901 79.0984 269.603C73.8083 243.296 68.5238 216.995 63.2337 190.688L61.2419 180.792L60.2921 176.084C60.0158 174.719 59.3883 173.033 59.4689 171.657C59.5495 170.281 60.0791 168.894 60.5627 167.679C61.4089 165.555 62.6465 163.586 64.2353 161.94C65.5477 160.582 67.0905 159.453 68.7714 158.596C69.2319 158.36 69.7039 158.147 70.1817 157.957C70.5386 157.813 70.9012 157.675 71.2754 157.565L71.4424 157.513C71.0221 157.634 71.2063 157.605 71.995 157.427C73.4917 157.174 75.0286 157.122 76.5368 157.283C78.7703 157.513 80.9578 158.198 82.938 159.269C83.3812 159.505 84.1583 159.799 84.4692 160.202C84.78 160.605 84.8722 162.015 84.9815 162.539C85.183 163.46 85.3902 164.381 85.5917 165.302C89.9666 185.121 94.3415 204.941 98.7452 224.76C100.628 233.216 102.441 241.696 104.45 250.123C104.479 250.238 104.582 251.084 104.709 251.136C104.899 251.211 106.234 250.831 106.378 250.687C106.459 250.607 106.246 249.939 106.229 249.847C106.067 249.024 105.895 248.2 105.722 247.383C105.037 244.085 104.335 240.786 103.632 237.493C100.846 224.426 98.0256 211.365 95.205 198.298C93.0636 188.374 90.9164 178.45 88.7693 168.525C87.5489 162.884 86.3285 157.243 85.1082 151.607C84.7916 150.134 84.6649 149.092 84.8894 147.624C85.1542 145.931 85.6665 144.273 86.4379 142.748C87.451 140.751 88.9305 139.012 90.7668 137.728C91.8375 136.98 92.983 136.468 94.1976 136.001C95.2453 135.599 93.0636 136.174 94.7963 135.869C94.992 135.835 95.1877 135.806 95.3892 135.777C95.8727 135.714 96.3563 135.668 96.8398 135.645C100.581 135.46 104.237 136.387 107.403 138.402C110.753 140.538 113.332 143.658 114.863 147.319C115.537 148.93 115.836 150.571 116.17 152.281C116.769 155.343 117.367 158.411 117.966 161.474C122.709 185.754 127.453 210.035 132.196 234.316C132.777 237.303 133.364 240.285 133.946 243.273C133.946 243.244 135.627 242.876 135.615 242.824C132.806 228.364 129.997 213.909 127.194 199.449C125.789 192.219 124.384 184.989 122.98 177.759C122.278 174.144 121.575 170.529 120.873 166.914C120.689 165.97 120.505 165.025 120.326 164.087C120.199 163.442 119.992 162.942 120.251 162.366C120.568 161.664 121.23 160.984 121.719 160.392C123.262 158.509 125.087 156.817 127.205 155.602C129.191 154.462 131.189 153.996 133.457 154.048C138.971 154.18 143.122 157.508 145.631 162.216C146.915 164.623 147.871 167.15 148.262 169.867C148.423 170.989 148.377 172.135 148.538 173.246C148.803 175.059 149.31 176.872 149.696 178.668C151.238 185.898 152.781 193.123 154.324 200.353C157.812 216.695 161.295 233.038 164.783 249.38L166.453 248.931C163.171 233.619 159.89 218.307 156.609 202.995C155.774 199.086 154.934 195.184 154.099 191.275C153.621 189.041 153.305 186.877 153.495 184.58C153.869 180.061 156.039 175.663 159.407 172.612C161.479 170.736 163.874 169.498 166.694 169.446C169.515 169.395 172.37 170.224 174.765 171.755C175.991 172.538 177.102 173.499 178.058 174.598C178.673 175.312 178.76 176.13 178.979 177.033C179.238 178.11 179.491 179.181 179.744 180.257C180.59 183.82 181.431 187.389 182.26 190.958C185.173 203.467 187.999 215.993 190.733 228.536C191.315 231.219 191.994 233.896 192.368 236.613C192.892 240.418 193.421 244.223 193.968 248.022C194.93 254.74 195.931 261.458 197.014 268.158C198.729 278.819 200.606 289.474 203.092 299.985C205.222 308.983 206.345 318.314 205.614 327.559C204.86 337.12 201.63 346.319 196.208 354.228C188.799 365.039 177.482 372.649 164.628 375.268C162.135 375.775 159.614 376.258 157.064 376.397C153.817 376.569 150.553 376.471 147.307 376.437C144.06 376.402 141.072 376.373 137.958 376.35C137.4 376.35 136.841 376.799 136.289 376.799L136.277 376.84Z"/>
</mask>
<path d="M136.277 376.84C141.556 376.88 146.835 376.989 152.113 376.961C154.272 376.949 156.425 376.88 158.56 376.552C169.394 374.865 179.934 371.365 188.448 364.222C195.747 358.097 201.118 349.986 204.359 341.058C208.572 329.453 208.077 316.501 205.809 304.527C205.13 300.935 204.215 297.389 203.443 293.815C202.275 288.38 201.245 282.918 200.289 277.437C197.848 263.507 195.845 249.496 193.928 235.484C193.554 232.733 192.8 229.999 192.207 227.287C191.562 224.34 190.917 221.387 190.261 218.44C188.793 211.825 187.302 205.211 185.783 198.609C184.062 191.114 182.306 183.63 180.521 176.147C180.297 175.203 180.124 174.621 179.468 173.902C178.933 173.315 178.357 172.774 177.735 172.279C176.572 171.346 175.271 170.586 173.884 170.039C171.202 168.98 168.249 168.744 165.439 169.389C163.281 169.884 161.185 170.546 159.343 171.807C157.501 173.067 156.051 174.656 154.853 176.458C152.159 180.522 151.163 185.484 152.107 190.273C153.656 198.131 155.463 205.942 157.144 213.777C158.825 221.611 160.558 229.711 162.268 237.683C163.102 241.592 163.943 245.495 164.777 249.404C164.777 249.386 166.453 249.001 166.447 248.955L156.793 203.697L152.067 181.541C151.348 178.179 150.317 174.748 150.121 171.317C149.949 168.324 149.137 165.457 147.802 162.775C145.436 158.014 141.729 154.198 136.162 153.68C132.173 153.311 127.62 154.555 124.344 156.817C122.393 158.17 120.712 159.908 119.301 161.813C119.077 162.118 118.801 162.429 118.628 162.769C118.306 163.379 118.524 163.857 118.657 164.553C119.025 166.442 119.388 168.324 119.756 170.212C121.218 177.753 122.686 185.3 124.148 192.841C127.412 209.655 130.682 226.47 133.946 243.29L135.615 242.841C130.763 218.008 125.916 193.18 121.063 168.347C119.837 162.061 118.68 155.758 117.379 149.489C116.694 146.185 114.742 142.996 112.394 140.624C109.613 137.815 105.889 135.858 101.963 135.339C98.774 134.919 95.5791 135.42 92.557 136.45C88.1418 137.953 84.9527 141.574 83.6863 146.012C83.3409 147.215 83.0704 148.51 83.0531 149.765C83.0416 150.692 83.3524 151.624 83.5482 152.528C83.882 154.059 84.2102 155.591 84.544 157.122C86.8869 167.938 89.224 178.755 91.5611 189.571C94.756 204.359 97.9508 219.148 101.117 233.942C101.969 237.914 102.815 241.886 103.65 245.863C103.886 246.986 104.122 248.103 104.352 249.225C104.461 249.76 104.49 250.417 104.692 250.929C104.697 250.952 104.743 251.119 104.72 251.142L106.39 250.693C106.28 250.647 106.188 249.922 106.165 249.824C105.958 248.949 105.757 248.074 105.555 247.199C104.761 243.728 103.984 240.251 103.206 236.774C100.086 222.843 97.0067 208.901 93.9213 194.965C91.636 184.626 89.3507 174.288 87.0711 163.943C86.8984 163.172 86.7315 162.401 86.5588 161.635C86.4379 161.088 86.4149 160.15 86.0925 159.73C85.7989 159.35 85.0218 159.05 84.6131 158.832C82.8632 157.887 80.952 157.243 78.9833 156.949C75.2301 156.379 71.0855 157.202 67.6431 158.803C64.2007 160.403 61.3571 163.16 59.6186 166.562C58.9048 167.967 58.3637 169.458 58.0183 170.995C57.6154 172.802 58.2198 174.512 58.5824 176.314C60.9656 188.172 63.3488 200.025 65.732 211.883C70.4983 235.594 75.2646 259.31 80.0367 283.021C80.1922 283.793 80.4224 284.593 80.5088 285.376C80.5778 286.009 80.457 286.078 80.0137 286.567C79.2884 287.373 78.448 287.989 77.4233 288.352L78.4767 288.058L78.1198 288.15L78.7358 287.995C75.0977 288.616 72.8584 285.255 70.5443 283.056C68.6102 281.219 66.5321 279.527 64.4368 277.869C56.3777 271.474 47.933 265.556 39.4941 259.673C38.1125 258.706 36.754 257.641 35.3091 256.766C34.3708 256.196 33.162 256.041 32.0798 255.862C29.1094 255.379 26.0528 255.431 23.1055 256.041C18.3334 257.031 14.0333 258.965 10.3089 262.143C8.29988 263.858 6.3139 265.689 4.5697 267.674C2.68734 269.827 1.0928 272.47 1.59361 275.446C2.29014 279.585 6.16999 282.273 9.38785 284.478C15.6509 288.783 21.7469 293.354 27.7394 298.022C38.4406 306.352 49.0267 314.929 57.7938 325.337C63.9244 332.613 69.0995 340.465 73.768 348.743C77.8032 355.892 83.4848 362.138 89.9436 367.198C94.3933 370.68 99.3669 373.507 104.732 375.32C106.275 375.844 107.846 376.327 109.469 376.512C111.242 376.713 113.044 376.702 114.829 376.719C118.801 376.753 122.773 376.742 126.75 376.759C129.934 376.771 133.111 376.788 136.294 376.817C136.853 376.817 137.411 376.368 137.964 376.368C130.118 376.31 122.26 376.414 114.42 376.241C111.001 376.166 108.145 375.556 104.91 374.336C96.6671 371.227 89.7018 365.776 83.7093 359.415C81.1362 356.681 78.7588 353.82 76.8016 350.608C74.8444 347.396 73.0196 343.821 70.9473 340.522C66.1292 332.843 60.4763 325.584 54.2306 319.016C45.8146 310.169 36.0057 302.582 26.3233 295.179C21.321 291.351 16.261 287.586 11.0687 284.023C8.20202 282.054 5.02446 279.855 3.70047 276.493C1.57634 271.088 6.56143 266.696 10.1016 263.397C13.3368 260.381 17.1072 257.428 21.5109 256.467C24.3201 255.856 27.2789 255.822 30.1168 256.248C31.0263 256.386 31.9531 256.542 32.8339 256.806C34.2327 257.232 35.5279 258.487 36.731 259.328C44.6979 264.871 52.6418 270.461 60.3324 276.384C63.9993 279.205 67.6316 282.077 70.7976 285.462C72.1677 286.924 73.9522 288.449 76.0533 288.519C77.4636 288.565 79.3632 287.983 80.503 287.177C80.9808 286.838 81.4068 286.435 81.7867 285.997C82.2875 285.422 82.2415 285.22 82.086 284.443L81.0902 279.498C80.4282 276.2 79.7662 272.901 79.0984 269.603C73.8083 243.296 68.5238 216.995 63.2337 190.688L61.2419 180.792L60.2921 176.084C60.0158 174.719 59.3883 173.033 59.4689 171.657C59.5495 170.281 60.0791 168.894 60.5627 167.679C61.4089 165.555 62.6465 163.586 64.2353 161.94C65.5477 160.582 67.0905 159.453 68.7714 158.596C69.2319 158.36 69.7039 158.147 70.1817 157.957C70.5386 157.813 70.9012 157.675 71.2754 157.565L71.4424 157.513C71.0221 157.634 71.2063 157.605 71.995 157.427C73.4917 157.174 75.0286 157.122 76.5368 157.283C78.7703 157.513 80.9578 158.198 82.938 159.269C83.3812 159.505 84.1583 159.799 84.4692 160.202C84.78 160.605 84.8722 162.015 84.9815 162.539C85.183 163.46 85.3902 164.381 85.5917 165.302C89.9666 185.121 94.3415 204.941 98.7452 224.76C100.628 233.216 102.441 241.696 104.45 250.123C104.479 250.238 104.582 251.084 104.709 251.136C104.899 251.211 106.234 250.831 106.378 250.687C106.459 250.607 106.246 249.939 106.229 249.847C106.067 249.024 105.895 248.2 105.722 247.383C105.037 244.085 104.335 240.786 103.632 237.493C100.846 224.426 98.0256 211.365 95.205 198.298C93.0636 188.374 90.9164 178.45 88.7693 168.525C87.5489 162.884 86.3285 157.243 85.1082 151.607C84.7916 150.134 84.6649 149.092 84.8894 147.624C85.1542 145.931 85.6665 144.273 86.4379 142.748C87.451 140.751 88.9305 139.012 90.7668 137.728C91.8375 136.98 92.983 136.468 94.1976 136.001C95.2453 135.599 93.0636 136.174 94.7963 135.869C94.992 135.835 95.1877 135.806 95.3892 135.777C95.8727 135.714 96.3563 135.668 96.8398 135.645C100.581 135.46 104.237 136.387 107.403 138.402C110.753 140.538 113.332 143.658 114.863 147.319C115.537 148.93 115.836 150.571 116.17 152.281C116.769 155.343 117.367 158.411 117.966 161.474C122.709 185.754 127.453 210.035 132.196 234.316C132.777 237.303 133.364 240.285 133.946 243.273C133.946 243.244 135.627 242.876 135.615 242.824C132.806 228.364 129.997 213.909 127.194 199.449C125.789 192.219 124.384 184.989 122.98 177.759C122.278 174.144 121.575 170.529 120.873 166.914C120.689 165.97 120.505 165.025 120.326 164.087C120.199 163.442 119.992 162.942 120.251 162.366C120.568 161.664 121.23 160.984 121.719 160.392C123.262 158.509 125.087 156.817 127.205 155.602C129.191 154.462 131.189 153.996 133.457 154.048C138.971 154.18 143.122 157.508 145.631 162.216C146.915 164.623 147.871 167.15 148.262 169.867C148.423 170.989 148.377 172.135 148.538 173.246C148.803 175.059 149.31 176.872 149.696 178.668C151.238 185.898 152.781 193.123 154.324 200.353C157.812 216.695 161.295 233.038 164.783 249.38L166.453 248.931C163.171 233.619 159.89 218.307 156.609 202.995C155.774 199.086 154.934 195.184 154.099 191.275C153.621 189.041 153.305 186.877 153.495 184.58C153.869 180.061 156.039 175.663 159.407 172.612C161.479 170.736 163.874 169.498 166.694 169.446C169.515 169.395 172.37 170.224 174.765 171.755C175.991 172.538 177.102 173.499 178.058 174.598C178.673 175.312 178.76 176.13 178.979 177.033C179.238 178.11 179.491 179.181 179.744 180.257C180.59 183.82 181.431 187.389 182.26 190.958C185.173 203.467 187.999 215.993 190.733 228.536C191.315 231.219 191.994 233.896 192.368 236.613C192.892 240.418 193.421 244.223 193.968 248.022C194.93 254.74 195.931 261.458 197.014 268.158C198.729 278.819 200.606 289.474 203.092 299.985C205.222 308.983 206.345 318.314 205.614 327.559C204.86 337.12 201.63 346.319 196.208 354.228C188.799 365.039 177.482 372.649 164.628 375.268C162.135 375.775 159.614 376.258 157.064 376.397C153.817 376.569 150.553 376.471 147.307 376.437C144.06 376.402 141.072 376.373 137.958 376.35C137.4 376.35 136.841 376.799 136.289 376.799L136.277 376.84Z" fill="#CFCDC8"/>
<path d="M136.277 376.84C141.556 376.88 146.835 376.989 152.113 376.961C154.272 376.949 156.425 376.88 158.56 376.552C169.394 374.865 179.934 371.365 188.448 364.222C195.747 358.097 201.118 349.986 204.359 341.058C208.572 329.453 208.077 316.501 205.809 304.527C205.13 300.935 204.215 297.389 203.443 293.815C202.275 288.38 201.245 282.918 200.289 277.437C197.848 263.507 195.845 249.496 193.928 235.484C193.554 232.733 192.8 229.999 192.207 227.287C191.562 224.34 190.917 221.387 190.261 218.44C188.793 211.825 187.302 205.211 185.783 198.609C184.062 191.114 182.306 183.63 180.521 176.147C180.297 175.203 180.124 174.621 179.468 173.902C178.933 173.315 178.357 172.774 177.735 172.279C176.572 171.346 175.271 170.586 173.884 170.039C171.202 168.98 168.249 168.744 165.439 169.389C163.281 169.884 161.185 170.546 159.343 171.807C157.501 173.067 156.051 174.656 154.853 176.458C152.159 180.522 151.163 185.484 152.107 190.273C153.656 198.131 155.463 205.942 157.144 213.777C158.825 221.611 160.558 229.711 162.268 237.683C163.102 241.592 163.943 245.495 164.777 249.404C164.777 249.386 166.453 249.001 166.447 248.955L156.793 203.697L152.067 181.541C151.348 178.179 150.317 174.748 150.121 171.317C149.949 168.324 149.137 165.457 147.802 162.775C145.436 158.014 141.729 154.198 136.162 153.68C132.173 153.311 127.62 154.555 124.344 156.817C122.393 158.17 120.712 159.908 119.301 161.813C119.077 162.118 118.801 162.429 118.628 162.769C118.306 163.379 118.524 163.857 118.657 164.553C119.025 166.442 119.388 168.324 119.756 170.212C121.218 177.753 122.686 185.3 124.148 192.841C127.412 209.655 130.682 226.47 133.946 243.29L135.615 242.841C130.763 218.008 125.916 193.18 121.063 168.347C119.837 162.061 118.68 155.758 117.379 149.489C116.694 146.185 114.742 142.996 112.394 140.624C109.613 137.815 105.889 135.858 101.963 135.339C98.774 134.919 95.5791 135.42 92.557 136.45C88.1418 137.953 84.9527 141.574 83.6863 146.012C83.3409 147.215 83.0704 148.51 83.0531 149.765C83.0416 150.692 83.3524 151.624 83.5482 152.528C83.882 154.059 84.2102 155.591 84.544 157.122C86.8869 167.938 89.224 178.755 91.5611 189.571C94.756 204.359 97.9508 219.148 101.117 233.942C101.969 237.914 102.815 241.886 103.65 245.863C103.886 246.986 104.122 248.103 104.352 249.225C104.461 249.76 104.49 250.417 104.692 250.929C104.697 250.952 104.743 251.119 104.72 251.142L106.39 250.693C106.28 250.647 106.188 249.922 106.165 249.824C105.958 248.949 105.757 248.074 105.555 247.199C104.761 243.728 103.984 240.251 103.206 236.774C100.086 222.843 97.0067 208.901 93.9213 194.965C91.636 184.626 89.3507 174.288 87.0711 163.943C86.8984 163.172 86.7315 162.401 86.5588 161.635C86.4379 161.088 86.4149 160.15 86.0925 159.73C85.7989 159.35 85.0218 159.05 84.6131 158.832C82.8632 157.887 80.952 157.243 78.9833 156.949C75.2301 156.379 71.0855 157.202 67.6431 158.803C64.2007 160.403 61.3571 163.16 59.6186 166.562C58.9048 167.967 58.3637 169.458 58.0183 170.995C57.6154 172.802 58.2198 174.512 58.5824 176.314C60.9656 188.172 63.3488 200.025 65.732 211.883C70.4983 235.594 75.2646 259.31 80.0367 283.021C80.1922 283.793 80.4224 284.593 80.5088 285.376C80.5778 286.009 80.457 286.078 80.0137 286.567C79.2884 287.373 78.448 287.989 77.4233 288.352L78.4767 288.058L78.1198 288.15L78.7358 287.995C75.0977 288.616 72.8584 285.255 70.5443 283.056C68.6102 281.219 66.5321 279.527 64.4368 277.869C56.3777 271.474 47.933 265.556 39.4941 259.673C38.1125 258.706 36.754 257.641 35.3091 256.766C34.3708 256.196 33.162 256.041 32.0798 255.862C29.1094 255.379 26.0528 255.431 23.1055 256.041C18.3334 257.031 14.0333 258.965 10.3089 262.143C8.29988 263.858 6.3139 265.689 4.5697 267.674C2.68734 269.827 1.0928 272.47 1.59361 275.446C2.29014 279.585 6.16999 282.273 9.38785 284.478C15.6509 288.783 21.7469 293.354 27.7394 298.022C38.4406 306.352 49.0267 314.929 57.7938 325.337C63.9244 332.613 69.0995 340.465 73.768 348.743C77.8032 355.892 83.4848 362.138 89.9436 367.198C94.3933 370.68 99.3669 373.507 104.732 375.32C106.275 375.844 107.846 376.327 109.469 376.512C111.242 376.713 113.044 376.702 114.829 376.719C118.801 376.753 122.773 376.742 126.75 376.759C129.934 376.771 133.111 376.788 136.294 376.817C136.853 376.817 137.411 376.368 137.964 376.368C130.118 376.31 122.26 376.414 114.42 376.241C111.001 376.166 108.145 375.556 104.91 374.336C96.6671 371.227 89.7018 365.776 83.7093 359.415C81.1362 356.681 78.7588 353.82 76.8016 350.608C74.8444 347.396 73.0196 343.821 70.9473 340.522C66.1292 332.843 60.4763 325.584 54.2306 319.016C45.8146 310.169 36.0057 302.582 26.3233 295.179C21.321 291.351 16.261 287.586 11.0687 284.023C8.20202 282.054 5.02446 279.855 3.70047 276.493C1.57634 271.088 6.56143 266.696 10.1016 263.397C13.3368 260.381 17.1072 257.428 21.5109 256.467C24.3201 255.856 27.2789 255.822 30.1168 256.248C31.0263 256.386 31.9531 256.542 32.8339 256.806C34.2327 257.232 35.5279 258.487 36.731 259.328C44.6979 264.871 52.6418 270.461 60.3324 276.384C63.9993 279.205 67.6316 282.077 70.7976 285.462C72.1677 286.924 73.9522 288.449 76.0533 288.519C77.4636 288.565 79.3632 287.983 80.503 287.177C80.9808 286.838 81.4068 286.435 81.7867 285.997C82.2875 285.422 82.2415 285.22 82.086 284.443L81.0902 279.498C80.4282 276.2 79.7662 272.901 79.0984 269.603C73.8083 243.296 68.5238 216.995 63.2337 190.688L61.2419 180.792L60.2921 176.084C60.0158 174.719 59.3883 173.033 59.4689 171.657C59.5495 170.281 60.0791 168.894 60.5627 167.679C61.4089 165.555 62.6465 163.586 64.2353 161.94C65.5477 160.582 67.0905 159.453 68.7714 158.596C69.2319 158.36 69.7039 158.147 70.1817 157.957C70.5386 157.813 70.9012 157.675 71.2754 157.565L71.4424 157.513C71.0221 157.634 71.2063 157.605 71.995 157.427C73.4917 157.174 75.0286 157.122 76.5368 157.283C78.7703 157.513 80.9578 158.198 82.938 159.269C83.3812 159.505 84.1583 159.799 84.4692 160.202C84.78 160.605 84.8722 162.015 84.9815 162.539C85.183 163.46 85.3902 164.381 85.5917 165.302C89.9666 185.121 94.3415 204.941 98.7452 224.76C100.628 233.216 102.441 241.696 104.45 250.123C104.479 250.238 104.582 251.084 104.709 251.136C104.899 251.211 106.234 250.831 106.378 250.687C106.459 250.607 106.246 249.939 106.229 249.847C106.067 249.024 105.895 248.2 105.722 247.383C105.037 244.085 104.335 240.786 103.632 237.493C100.846 224.426 98.0256 211.365 95.205 198.298C93.0636 188.374 90.9164 178.45 88.7693 168.525C87.5489 162.884 86.3285 157.243 85.1082 151.607C84.7916 150.134 84.6649 149.092 84.8894 147.624C85.1542 145.931 85.6665 144.273 86.4379 142.748C87.451 140.751 88.9305 139.012 90.7668 137.728C91.8375 136.98 92.983 136.468 94.1976 136.001C95.2453 135.599 93.0636 136.174 94.7963 135.869C94.992 135.835 95.1877 135.806 95.3892 135.777C95.8727 135.714 96.3563 135.668 96.8398 135.645C100.581 135.46 104.237 136.387 107.403 138.402C110.753 140.538 113.332 143.658 114.863 147.319C115.537 148.93 115.836 150.571 116.17 152.281C116.769 155.343 117.367 158.411 117.966 161.474C122.709 185.754 127.453 210.035 132.196 234.316C132.777 237.303 133.364 240.285 133.946 243.273C133.946 243.244 135.627 242.876 135.615 242.824C132.806 228.364 129.997 213.909 127.194 199.449C125.789 192.219 124.384 184.989 122.98 177.759C122.278 174.144 121.575 170.529 120.873 166.914C120.689 165.97 120.505 165.025 120.326 164.087C120.199 163.442 119.992 162.942 120.251 162.366C120.568 161.664 121.23 160.984 121.719 160.392C123.262 158.509 125.087 156.817 127.205 155.602C129.191 154.462 131.189 153.996 133.457 154.048C138.971 154.18 143.122 157.508 145.631 162.216C146.915 164.623 147.871 167.15 148.262 169.867C148.423 170.989 148.377 172.135 148.538 173.246C148.803 175.059 149.31 176.872 149.696 178.668C151.238 185.898 152.781 193.123 154.324 200.353C157.812 216.695 161.295 233.038 164.783 249.38L166.453 248.931C163.171 233.619 159.89 218.307 156.609 202.995C155.774 199.086 154.934 195.184 154.099 191.275C153.621 189.041 153.305 186.877 153.495 184.58C153.869 180.061 156.039 175.663 159.407 172.612C161.479 170.736 163.874 169.498 166.694 169.446C169.515 169.395 172.37 170.224 174.765 171.755C175.991 172.538 177.102 173.499 178.058 174.598C178.673 175.312 178.76 176.13 178.979 177.033C179.238 178.11 179.491 179.181 179.744 180.257C180.59 183.82 181.431 187.389 182.26 190.958C185.173 203.467 187.999 215.993 190.733 228.536C191.315 231.219 191.994 233.896 192.368 236.613C192.892 240.418 193.421 244.223 193.968 248.022C194.93 254.74 195.931 261.458 197.014 268.158C198.729 278.819 200.606 289.474 203.092 299.985C205.222 308.983 206.345 318.314 205.614 327.559C204.86 337.12 201.63 346.319 196.208 354.228C188.799 365.039 177.482 372.649 164.628 375.268C162.135 375.775 159.614 376.258 157.064 376.397C153.817 376.569 150.553 376.471 147.307 376.437C144.06 376.402 141.072 376.373 137.958 376.35C137.4 376.35 136.841 376.799 136.289 376.799L136.277 376.84Z" stroke="#CFCDC8" stroke-width="3" mask="url(#path-1-outside-1_445_69)"/>
<mask id="path-2-outside-2_445_69" maskUnits="userSpaceOnUse" x="129.034" y="96.7888" width="185" height="245" fill="black">
<rect fill="white" x="129.034" y="96.7888" width="185" height="245"/>
<path d="M208.083 339.164C216.24 335.497 223.884 330.638 230.228 324.301C232.571 321.958 234.747 319.431 236.652 316.719C238.684 313.818 240.44 310.727 242.38 307.762C247.797 299.479 254.071 291.811 260.881 284.644C267.409 277.777 274.04 270.99 280.822 264.376C285.588 259.725 290.492 255.033 296.105 251.389C298.148 250.065 300.296 248.914 302.564 248.028C305.597 246.842 308.596 245.339 310.542 242.622C312.862 239.381 313.023 234.909 311.538 231.276C310.053 227.644 307.025 225.002 303.738 223.114C300.088 221.018 295.932 219.752 291.747 219.32C287.936 218.929 284.287 219.435 280.62 220.46C276.533 221.6 272.814 223.626 269.332 226.021C265.181 228.876 261.244 232.1 257.404 235.358C254.566 237.77 251.838 240.308 248.988 242.709C245.327 245.8 241.476 248.655 237.447 251.246C235.426 252.546 233.365 253.79 231.276 254.976L232.945 254.527C236.33 236.555 239.715 218.583 243.1 200.606C246.484 182.634 249.869 164.663 253.254 146.685C253.962 142.915 254.906 139.116 255.372 135.311C255.677 132.824 255.372 130.21 254.44 127.885C251.89 121.576 244.786 118.427 238.304 119.998C235.749 120.62 233.342 121.466 231.31 123.211C229.762 124.535 228.144 126.423 227.448 128.386C227.085 129.41 226.958 130.59 226.728 131.655C226.469 132.824 226.21 133.987 225.957 135.155C225.456 137.412 224.961 139.668 224.46 141.925C223.482 146.357 222.503 150.795 221.524 155.228C217.593 173.044 213.655 190.855 209.724 208.671C209.24 210.847 208.762 213.028 208.279 215.204L209.948 214.755C213.293 198.781 216.631 182.807 219.976 166.833C223.32 150.859 226.659 134.885 230.004 118.911C230.637 115.888 231.748 112.722 231.42 109.608C231.092 106.494 229.802 103.783 227.505 101.82C224.069 98.8838 219.049 98.3773 214.72 99.0565C210.391 99.7358 206.241 101.526 203.046 104.565C202.833 104.767 202.545 104.98 202.378 105.227C201.964 105.849 201.918 106.937 201.757 107.68C201.331 109.625 200.905 111.571 200.479 113.517C199.61 117.483 198.74 121.455 197.871 125.421C194.394 141.292 190.923 157.168 187.446 173.038C187.003 175.059 186.56 177.085 186.116 179.106L187.786 178.657C189.881 167.65 191.977 156.644 194.072 145.638C195.102 140.215 196.138 134.787 197.169 129.364C197.301 128.679 197.531 127.937 197.572 127.24C197.606 126.664 197.497 126.509 197.157 126.031C196.501 125.11 195.787 124.235 195.016 123.412C193.698 122.007 192.218 120.672 190.641 119.567C187.089 117.074 182.858 116.245 178.633 117.235C176.175 117.811 173.734 118.577 171.593 119.941C168.818 121.708 166.74 124.46 165.549 127.505C164.777 129.474 164.553 131.425 164.271 133.486C163.85 136.566 163.137 139.634 162.573 142.69C162.008 145.759 161.444 148.827 160.874 151.895C159.729 158.112 158.583 164.323 157.438 170.54L159.107 170.091C159.873 163.932 160.638 157.778 161.404 151.619C161.582 150.197 161.755 148.775 161.934 147.359C162.124 145.828 162.544 144.164 162.521 142.621C162.515 141.965 162.29 141.677 161.911 141.136C161.554 140.63 161.18 140.135 160.777 139.663C160.028 138.77 159.194 137.947 158.336 137.158C154.951 134.044 150.945 132.513 146.38 133.693C142.839 134.608 139.109 136.019 136.099 138.131C133.923 139.657 132.248 141.775 131.482 144.343C130.665 147.1 131.16 149.851 131.447 152.649C131.442 152.568 133.128 152.304 133.117 152.2C132.887 149.995 132.478 147.762 132.794 145.546C133.111 143.329 134.113 141.176 135.661 139.507C136.933 138.137 138.511 137.107 140.168 136.272C141.953 135.368 143.991 134.292 145.942 133.843C150.231 132.864 154.197 135.242 157.167 138.074C157.944 138.816 158.693 139.588 159.366 140.422C159.671 140.802 159.965 141.188 160.247 141.585C160.621 142.115 160.863 142.431 160.857 143.07C160.846 144.394 160.518 145.782 160.356 147.094C160.172 148.597 159.982 150.093 159.798 151.596C159.009 157.91 158.226 164.225 157.438 170.54C157.467 170.327 159.061 170.333 159.107 170.091C161.018 159.706 162.935 149.322 164.846 138.937C165.232 136.83 165.785 134.689 165.986 132.559C166.061 131.788 166.13 131.022 166.285 130.256C166.867 127.275 168.174 124.414 170.194 122.134C172.002 120.096 174.275 118.68 176.831 117.771C180.631 116.424 185.334 117.552 188.69 119.82C190.146 120.804 191.487 121.996 192.736 123.234C193.502 123.993 194.222 124.811 194.884 125.669C195.154 126.02 195.419 126.377 195.666 126.739C196.081 127.338 195.902 127.683 195.77 128.403C194.78 133.589 193.796 138.782 192.805 143.968C190.578 155.683 188.344 167.397 186.116 179.111C186.162 178.87 187.728 178.927 187.786 178.662C191.159 163.258 194.532 147.848 197.9 132.444C199.569 124.817 201.239 117.195 202.908 109.568C203.115 108.635 203.317 107.703 203.524 106.764C203.668 106.114 203.708 105.273 204.082 104.738C204.497 104.151 205.216 103.633 205.763 103.184C206.575 102.51 207.444 101.906 208.354 101.371C208.889 101.054 209.442 100.766 210 100.501C210.299 100.363 210.604 100.231 210.909 100.11C211.22 99.9833 211.531 99.8682 211.848 99.7646C212.251 99.6379 212.297 99.6207 211.969 99.7128C216.038 98.6593 221.26 99.1429 224.782 101.48C227.292 103.149 228.944 105.803 229.543 108.739C229.75 109.752 229.842 110.788 229.825 111.819C229.796 113.379 229.244 115.019 228.921 116.545C225.675 132.047 222.434 147.555 219.187 163.057C215.549 180.441 211.911 197.826 208.273 215.204C208.325 214.957 209.885 215.026 209.942 214.755C213.753 197.486 217.57 180.217 221.38 162.947C223.286 154.313 225.191 145.678 227.102 137.043C227.586 134.867 228.064 132.686 228.547 130.51C228.835 129.215 229.025 128.006 229.67 126.849C230.942 124.563 232.795 122.583 235.087 121.294C235.466 121.081 235.852 120.885 236.249 120.712C236.485 120.609 237.786 120.16 237.032 120.361C237.878 120.137 238.799 120.062 239.669 120.033C241.246 119.987 242.829 120.206 244.337 120.672C247.457 121.645 250.191 123.7 251.878 126.515C255.177 132.029 253.317 137.993 252.218 143.836C248.937 161.261 245.655 178.685 242.374 196.104C239.093 213.529 235.812 230.954 232.531 248.373C232.116 250.572 231.702 252.771 231.287 254.964C231.316 254.814 232.761 254.63 232.957 254.515C240.849 250.042 248.004 244.683 254.779 238.673C257.819 235.979 260.904 233.366 264.07 230.822C267.789 227.834 271.6 224.858 275.825 222.613C277.702 221.617 279.711 220.673 281.789 220.184C283.999 219.666 286.325 219.533 288.581 219.648C292.732 219.861 296.876 220.932 300.601 222.768C303.974 224.438 307.186 226.838 309.097 230.142C310.939 233.314 311.434 237.459 310.07 240.895C307.675 246.917 300.952 247.941 295.961 250.894C290.97 253.847 286.152 258.153 281.76 262.321C274.967 268.768 268.474 275.543 261.946 282.261C255.464 288.933 249.345 295.904 243.946 303.491C239.651 309.524 236.244 316.213 231.339 321.797C226.435 327.38 220.085 332.36 213.373 336.13C211.111 337.397 208.791 338.548 206.425 339.613C206.943 339.382 207.571 339.4 208.095 339.164H208.083Z"/>
</mask>
<path d="M208.083 339.164C216.24 335.497 223.884 330.638 230.228 324.301C232.571 321.958 234.747 319.431 236.652 316.719C238.684 313.818 240.44 310.727 242.38 307.762C247.797 299.479 254.071 291.811 260.881 284.644C267.409 277.777 274.04 270.99 280.822 264.376C285.588 259.725 290.492 255.033 296.105 251.389C298.148 250.065 300.296 248.914 302.564 248.028C305.597 246.842 308.596 245.339 310.542 242.622C312.862 239.381 313.023 234.909 311.538 231.276C310.053 227.644 307.025 225.002 303.738 223.114C300.088 221.018 295.932 219.752 291.747 219.32C287.936 218.929 284.287 219.435 280.62 220.46C276.533 221.6 272.814 223.626 269.332 226.021C265.181 228.876 261.244 232.1 257.404 235.358C254.566 237.77 251.838 240.308 248.988 242.709C245.327 245.8 241.476 248.655 237.447 251.246C235.426 252.546 233.365 253.79 231.276 254.976L232.945 254.527C236.33 236.555 239.715 218.583 243.1 200.606C246.484 182.634 249.869 164.663 253.254 146.685C253.962 142.915 254.906 139.116 255.372 135.311C255.677 132.824 255.372 130.21 254.44 127.885C251.89 121.576 244.786 118.427 238.304 119.998C235.749 120.62 233.342 121.466 231.31 123.211C229.762 124.535 228.144 126.423 227.448 128.386C227.085 129.41 226.958 130.59 226.728 131.655C226.469 132.824 226.21 133.987 225.957 135.155C225.456 137.412 224.961 139.668 224.46 141.925C223.482 146.357 222.503 150.795 221.524 155.228C217.593 173.044 213.655 190.855 209.724 208.671C209.24 210.847 208.762 213.028 208.279 215.204L209.948 214.755C213.293 198.781 216.631 182.807 219.976 166.833C223.32 150.859 226.659 134.885 230.004 118.911C230.637 115.888 231.748 112.722 231.42 109.608C231.092 106.494 229.802 103.783 227.505 101.82C224.069 98.8838 219.049 98.3773 214.72 99.0565C210.391 99.7358 206.241 101.526 203.046 104.565C202.833 104.767 202.545 104.98 202.378 105.227C201.964 105.849 201.918 106.937 201.757 107.68C201.331 109.625 200.905 111.571 200.479 113.517C199.61 117.483 198.74 121.455 197.871 125.421C194.394 141.292 190.923 157.168 187.446 173.038C187.003 175.059 186.56 177.085 186.116 179.106L187.786 178.657C189.881 167.65 191.977 156.644 194.072 145.638C195.102 140.215 196.138 134.787 197.169 129.364C197.301 128.679 197.531 127.937 197.572 127.24C197.606 126.664 197.497 126.509 197.157 126.031C196.501 125.11 195.787 124.235 195.016 123.412C193.698 122.007 192.218 120.672 190.641 119.567C187.089 117.074 182.858 116.245 178.633 117.235C176.175 117.811 173.734 118.577 171.593 119.941C168.818 121.708 166.74 124.46 165.549 127.505C164.777 129.474 164.553 131.425 164.271 133.486C163.85 136.566 163.137 139.634 162.573 142.69C162.008 145.759 161.444 148.827 160.874 151.895C159.729 158.112 158.583 164.323 157.438 170.54L159.107 170.091C159.873 163.932 160.638 157.778 161.404 151.619C161.582 150.197 161.755 148.775 161.934 147.359C162.124 145.828 162.544 144.164 162.521 142.621C162.515 141.965 162.29 141.677 161.911 141.136C161.554 140.63 161.18 140.135 160.777 139.663C160.028 138.77 159.194 137.947 158.336 137.158C154.951 134.044 150.945 132.513 146.38 133.693C142.839 134.608 139.109 136.019 136.099 138.131C133.923 139.657 132.248 141.775 131.482 144.343C130.665 147.1 131.16 149.851 131.447 152.649C131.442 152.568 133.128 152.304 133.117 152.2C132.887 149.995 132.478 147.762 132.794 145.546C133.111 143.329 134.113 141.176 135.661 139.507C136.933 138.137 138.511 137.107 140.168 136.272C141.953 135.368 143.991 134.292 145.942 133.843C150.231 132.864 154.197 135.242 157.167 138.074C157.944 138.816 158.693 139.588 159.366 140.422C159.671 140.802 159.965 141.188 160.247 141.585C160.621 142.115 160.863 142.431 160.857 143.07C160.846 144.394 160.518 145.782 160.356 147.094C160.172 148.597 159.982 150.093 159.798 151.596C159.009 157.91 158.226 164.225 157.438 170.54C157.467 170.327 159.061 170.333 159.107 170.091C161.018 159.706 162.935 149.322 164.846 138.937C165.232 136.83 165.785 134.689 165.986 132.559C166.061 131.788 166.13 131.022 166.285 130.256C166.867 127.275 168.174 124.414 170.194 122.134C172.002 120.096 174.275 118.68 176.831 117.771C180.631 116.424 185.334 117.552 188.69 119.82C190.146 120.804 191.487 121.996 192.736 123.234C193.502 123.993 194.222 124.811 194.884 125.669C195.154 126.02 195.419 126.377 195.666 126.739C196.081 127.338 195.902 127.683 195.77 128.403C194.78 133.589 193.796 138.782 192.805 143.968C190.578 155.683 188.344 167.397 186.116 179.111C186.162 178.87 187.728 178.927 187.786 178.662C191.159 163.258 194.532 147.848 197.9 132.444C199.569 124.817 201.239 117.195 202.908 109.568C203.115 108.635 203.317 107.703 203.524 106.764C203.668 106.114 203.708 105.273 204.082 104.738C204.497 104.151 205.216 103.633 205.763 103.184C206.575 102.51 207.444 101.906 208.354 101.371C208.889 101.054 209.442 100.766 210 100.501C210.299 100.363 210.604 100.231 210.909 100.11C211.22 99.9833 211.531 99.8682 211.848 99.7646C212.251 99.6379 212.297 99.6207 211.969 99.7128C216.038 98.6593 221.26 99.1429 224.782 101.48C227.292 103.149 228.944 105.803 229.543 108.739C229.75 109.752 229.842 110.788 229.825 111.819C229.796 113.379 229.244 115.019 228.921 116.545C225.675 132.047 222.434 147.555 219.187 163.057C215.549 180.441 211.911 197.826 208.273 215.204C208.325 214.957 209.885 215.026 209.942 214.755C213.753 197.486 217.57 180.217 221.38 162.947C223.286 154.313 225.191 145.678 227.102 137.043C227.586 134.867 228.064 132.686 228.547 130.51C228.835 129.215 229.025 128.006 229.67 126.849C230.942 124.563 232.795 122.583 235.087 121.294C235.466 121.081 235.852 120.885 236.249 120.712C236.485 120.609 237.786 120.16 237.032 120.361C237.878 120.137 238.799 120.062 239.669 120.033C241.246 119.987 242.829 120.206 244.337 120.672C247.457 121.645 250.191 123.7 251.878 126.515C255.177 132.029 253.317 137.993 252.218 143.836C248.937 161.261 245.655 178.685 242.374 196.104C239.093 213.529 235.812 230.954 232.531 248.373C232.116 250.572 231.702 252.771 231.287 254.964C231.316 254.814 232.761 254.63 232.957 254.515C240.849 250.042 248.004 244.683 254.779 238.673C257.819 235.979 260.904 233.366 264.07 230.822C267.789 227.834 271.6 224.858 275.825 222.613C277.702 221.617 279.711 220.673 281.789 220.184C283.999 219.666 286.325 219.533 288.581 219.648C292.732 219.861 296.876 220.932 300.601 222.768C303.974 224.438 307.186 226.838 309.097 230.142C310.939 233.314 311.434 237.459 310.07 240.895C307.675 246.917 300.952 247.941 295.961 250.894C290.97 253.847 286.152 258.153 281.76 262.321C274.967 268.768 268.474 275.543 261.946 282.261C255.464 288.933 249.345 295.904 243.946 303.491C239.651 309.524 236.244 316.213 231.339 321.797C226.435 327.38 220.085 332.36 213.373 336.13C211.111 337.397 208.791 338.548 206.425 339.613C206.943 339.382 207.571 339.4 208.095 339.164H208.083Z" fill="#CFCDC8"/>
<path d="M208.083 339.164L207.468 337.796L208.083 340.664V339.164ZM230.228 324.301L231.288 325.362L231.289 325.361L230.228 324.301ZM236.652 316.719L237.88 317.582L237.881 317.58L236.652 316.719ZM242.38 307.762L243.635 308.584L243.635 308.583L242.38 307.762ZM260.881 284.644L259.794 283.611L259.794 283.611L260.881 284.644ZM280.822 264.376L281.869 265.45L281.869 265.45L280.822 264.376ZM296.105 251.389L295.289 250.131L295.288 250.131L296.105 251.389ZM302.564 248.028L303.11 249.425L303.11 249.425L302.564 248.028ZM310.542 242.622L311.762 243.496L311.762 243.495L310.542 242.622ZM303.738 223.114L304.485 221.813L304.485 221.813L303.738 223.114ZM291.747 219.32L291.901 217.828L291.901 217.828L291.747 219.32ZM280.62 220.46L281.023 221.905L281.024 221.905L280.62 220.46ZM269.332 226.021L268.482 224.785L268.481 224.785L269.332 226.021ZM257.404 235.358L256.434 234.214L256.433 234.215L257.404 235.358ZM248.988 242.709L248.022 241.562L248.021 241.563L248.988 242.709ZM237.447 251.246L236.636 249.984L236.635 249.984L237.447 251.246ZM231.276 254.976L230.535 253.671L231.665 256.424L231.276 254.976ZM232.945 254.527L233.335 255.975L234.245 255.73L234.419 254.804L232.945 254.527ZM243.1 200.606L241.625 200.328L241.625 200.328L243.1 200.606ZM253.254 146.685L254.728 146.963L254.728 146.962L253.254 146.685ZM255.372 135.311L253.883 135.128L253.883 135.128L255.372 135.311ZM254.44 127.885L255.832 127.327L255.83 127.323L254.44 127.885ZM238.304 119.998L237.951 118.541L237.95 118.541L238.304 119.998ZM231.31 123.211L232.285 124.351L232.287 124.349L231.31 123.211ZM227.448 128.386L226.034 127.884L226.034 127.885L227.448 128.386ZM226.728 131.655L228.193 131.98L228.194 131.972L226.728 131.655ZM225.957 135.155L227.421 135.48L227.423 135.473L225.957 135.155ZM224.46 141.925L222.996 141.6L222.995 141.601L224.46 141.925ZM221.524 155.228L220.06 154.905L220.06 154.905L221.524 155.228ZM209.724 208.671L211.188 208.996L211.188 208.994L209.724 208.671ZM208.279 215.204L206.814 214.879L206.277 217.296L208.668 216.653L208.279 215.204ZM209.948 214.755L210.338 216.204L211.227 215.965L211.416 215.063L209.948 214.755ZM230.004 118.911L228.535 118.603L228.535 118.603L230.004 118.911ZM227.505 101.82L228.48 100.679L228.48 100.679L227.505 101.82ZM203.046 104.565L204.077 105.655L204.08 105.652L203.046 104.565ZM202.378 105.227L201.135 104.389L201.13 104.395L202.378 105.227ZM201.757 107.68L203.222 108L203.223 107.998L201.757 107.68ZM200.479 113.517L201.944 113.838L201.944 113.838L200.479 113.517ZM197.871 125.421L196.406 125.1L196.406 125.1L197.871 125.421ZM187.446 173.038L188.911 173.36L188.911 173.359L187.446 173.038ZM186.116 179.106L184.651 178.784L184.122 181.195L186.506 180.554L186.116 179.106ZM187.786 178.657L188.175 180.105L189.083 179.861L189.259 178.937L187.786 178.657ZM194.072 145.638L195.545 145.918L195.545 145.918L194.072 145.638ZM197.169 129.364L195.696 129.08L195.695 129.084L197.169 129.364ZM197.572 127.24L196.074 127.15L196.074 127.153L197.572 127.24ZM197.157 126.031L198.38 125.162L198.379 125.161L197.157 126.031ZM195.016 123.412L196.11 122.386L196.11 122.386L195.016 123.412ZM190.641 119.567L189.779 120.795L189.78 120.795L190.641 119.567ZM178.633 117.235L178.975 118.696L178.975 118.696L178.633 117.235ZM171.593 119.941L172.399 121.206L172.399 121.206L171.593 119.941ZM165.549 127.505L166.945 128.052L166.946 128.051L165.549 127.505ZM164.271 133.486L162.785 133.282L162.784 133.283L164.271 133.486ZM162.573 142.69L161.097 142.418L161.097 142.419L162.573 142.69ZM160.874 151.895L159.4 151.621L159.399 151.623L160.874 151.895ZM157.438 170.54L155.949 170.354L155.673 172.568L157.827 171.989L157.438 170.54ZM159.107 170.091L160.581 170.372L160.582 170.363L159.107 170.091ZM161.404 151.619L159.916 151.432L159.915 151.434L161.404 151.619ZM161.934 147.359L163.422 147.546L163.422 147.544L161.934 147.359ZM162.521 142.621L161.021 142.634L161.021 142.644L162.521 142.621ZM161.911 141.136L163.138 140.274L163.137 140.272L161.911 141.136ZM160.777 139.663L159.627 140.626L159.636 140.636L160.777 139.663ZM158.336 137.158L157.32 138.262L157.321 138.263L158.336 137.158ZM146.38 133.693L146.004 132.241L146.004 132.241L146.38 133.693ZM136.099 138.131L136.96 139.36L136.96 139.359L136.099 138.131ZM131.482 144.343L130.045 143.914L130.044 143.916L131.482 144.343ZM131.447 152.649L129.955 152.803L132.944 152.542L131.447 152.649ZM133.117 152.2L131.625 152.356L131.626 152.366L133.117 152.2ZM135.661 139.507L134.562 138.486L134.561 138.487L135.661 139.507ZM140.168 136.272L140.843 137.612L140.846 137.61L140.168 136.272ZM145.942 133.843L145.608 132.38L145.606 132.381L145.942 133.843ZM157.167 138.074L158.204 136.989L158.202 136.988L157.167 138.074ZM159.366 140.422L160.536 139.483L160.534 139.48L159.366 140.422ZM160.247 141.585L161.472 140.72L161.47 140.717L160.247 141.585ZM160.857 143.07L159.357 143.057L159.357 143.057L160.857 143.07ZM160.356 147.094L158.868 146.911L158.867 146.912L160.356 147.094ZM159.798 151.596L161.286 151.782L161.287 151.778L159.798 151.596ZM164.846 138.937L166.322 139.209L166.322 139.207L164.846 138.937ZM165.986 132.559L164.493 132.414L164.493 132.418L165.986 132.559ZM166.285 130.256L167.756 130.555L167.758 130.544L166.285 130.256ZM170.194 122.134L169.072 121.139L169.072 121.139L170.194 122.134ZM176.831 117.771L176.33 116.357L176.328 116.358L176.831 117.771ZM188.69 119.82L189.53 118.577L189.529 118.577L188.69 119.82ZM192.736 123.234L193.793 122.169L193.792 122.168L192.736 123.234ZM194.884 125.669L196.072 124.753L196.071 124.752L194.884 125.669ZM195.666 126.739L194.427 127.585L194.433 127.593L195.666 126.739ZM195.77 128.403L197.243 128.684L197.245 128.674L195.77 128.403ZM192.805 143.968L191.332 143.687L191.332 143.688L192.805 143.968ZM186.116 179.111L184.643 178.831L187.59 179.392L186.116 179.111ZM187.786 178.662L186.321 178.342L186.32 178.344L187.786 178.662ZM197.9 132.444L196.435 132.123L196.435 132.124L197.9 132.444ZM202.908 109.568L201.444 109.242L201.443 109.247L202.908 109.568ZM203.524 106.764L202.059 106.44L202.059 106.441L203.524 106.764ZM204.082 104.738L202.857 103.873L202.853 103.879L204.082 104.738ZM205.763 103.184L206.715 104.343L206.721 104.338L205.763 103.184ZM208.354 101.371L209.114 102.663L209.117 102.662L208.354 101.371ZM210 100.501L209.371 99.1395L209.364 99.1427L209.357 99.1461L210 100.501ZM210.909 100.11L211.462 101.504L211.469 101.502L211.475 101.499L210.909 100.11ZM211.848 99.7646L211.398 98.3336L211.39 98.3362L211.381 98.339L211.848 99.7646ZM211.969 99.7128L211.563 98.2686L212.345 101.165L211.969 99.7128ZM224.782 101.48L225.613 100.231L225.612 100.23L224.782 101.48ZM229.543 108.739L228.073 109.039L228.074 109.039L229.543 108.739ZM229.825 111.819L231.325 111.846L231.325 111.844L229.825 111.819ZM228.921 116.545L227.454 116.234L227.453 116.237L228.921 116.545ZM219.187 163.057L217.719 162.749L217.719 162.749L219.187 163.057ZM208.273 215.204L206.805 214.897L209.741 215.512L208.273 215.204ZM209.942 214.755L208.478 214.432L208.475 214.443L209.942 214.755ZM227.102 137.043L225.638 136.718L225.638 136.719L227.102 137.043ZM228.547 130.51L230.011 130.835L228.547 130.51ZM229.67 126.849L230.98 127.579L230.98 127.578L229.67 126.849ZM235.087 121.294L234.353 119.985L234.351 119.986L235.087 121.294ZM236.249 120.712L236.847 122.088L236.852 122.086L236.249 120.712ZM237.032 120.361L236.645 118.912L237.417 121.811L237.032 120.361ZM239.669 120.033L239.625 118.534L239.619 118.534L239.669 120.033ZM244.337 120.672L244.784 119.24L244.78 119.239L244.337 120.672ZM251.878 126.515L253.165 125.745L253.165 125.744L251.878 126.515ZM252.218 143.836L253.692 144.114L253.692 144.113L252.218 143.836ZM242.374 196.104L240.9 195.827L240.9 195.827L242.374 196.104ZM232.531 248.373L234.005 248.651L234.005 248.651L232.531 248.373ZM231.287 254.964L229.813 254.686L232.76 255.247L231.287 254.964ZM232.957 254.515L232.217 253.21L232.207 253.216L232.196 253.222L232.957 254.515ZM254.779 238.673L253.784 237.551L253.784 237.551L254.779 238.673ZM264.07 230.822L263.131 229.652L263.131 229.652L264.07 230.822ZM275.825 222.613L275.122 221.288L275.121 221.288L275.825 222.613ZM281.789 220.184L281.446 218.723L281.445 218.724L281.789 220.184ZM288.581 219.648L288.658 218.15L288.658 218.15L288.581 219.648ZM300.601 222.768L301.266 221.424L301.264 221.423L300.601 222.768ZM309.097 230.142L307.799 230.893L307.8 230.896L309.097 230.142ZM310.07 240.895L311.464 241.45L311.464 241.449L310.07 240.895ZM281.76 262.321L280.727 261.233L280.727 261.233L281.76 262.321ZM261.946 282.261L260.87 281.216L260.87 281.216L261.946 282.261ZM243.946 303.491L245.168 304.361L245.168 304.361L243.946 303.491ZM213.373 336.13L214.106 337.439L214.108 337.438L213.373 336.13ZM206.425 339.613L205.81 338.245L207.034 340.983L206.425 339.613ZM208.095 339.164L208.711 340.531L208.095 337.664V339.164ZM208.083 339.164L208.698 340.532C216.984 336.807 224.79 331.854 231.288 325.362L230.228 324.301L229.168 323.239C222.979 329.423 215.496 334.187 207.468 337.796L208.083 339.164ZM230.228 324.301L231.289 325.361C233.684 322.966 235.918 320.373 237.88 317.582L236.652 316.719L235.425 315.857C233.576 318.488 231.458 320.949 229.167 323.24L230.228 324.301ZM236.652 316.719L237.881 317.58C239.911 314.682 241.784 311.413 243.635 308.584L242.38 307.762L241.125 306.941C239.096 310.041 237.458 312.954 235.424 315.859L236.652 316.719ZM242.38 307.762L243.635 308.583C248.994 300.388 255.209 292.791 261.969 285.678L260.881 284.644L259.794 283.611C252.933 290.831 246.599 298.569 241.125 306.941L242.38 307.762ZM260.881 284.644L261.968 285.678C268.487 278.82 275.105 272.047 281.869 265.45L280.822 264.376L279.774 263.302C272.976 269.933 266.331 276.734 259.794 283.611L260.881 284.644ZM280.822 264.376L281.869 265.45C286.644 260.79 291.45 256.2 296.922 252.648L296.105 251.389L295.288 250.131C289.534 253.867 284.532 258.659 279.774 263.302L280.822 264.376ZM296.105 251.389L296.921 252.648C298.895 251.369 300.952 250.268 303.11 249.425L302.564 248.028L302.018 246.631C299.639 247.56 297.401 248.762 295.289 250.131L296.105 251.389ZM302.564 248.028L303.11 249.425C306.189 248.221 309.547 246.589 311.762 243.496L310.542 242.622L309.323 241.749C307.646 244.09 305.006 245.463 302.018 246.631L302.564 248.028ZM310.542 242.622L311.762 243.495C314.437 239.758 314.568 234.723 312.926 230.709L311.538 231.276L310.15 231.844C311.479 235.095 311.286 239.005 309.322 241.749L310.542 242.622ZM311.538 231.276L312.926 230.709C311.266 226.648 307.925 223.789 304.485 221.813L303.738 223.114L302.991 224.414C306.125 226.215 308.839 228.64 310.15 231.844L311.538 231.276ZM303.738 223.114L304.485 221.813C300.639 219.605 296.278 218.28 291.901 217.828L291.747 219.32L291.593 220.812C295.587 221.224 299.538 222.432 302.991 224.415L303.738 223.114ZM291.747 219.32L291.901 217.828C287.854 217.412 284.01 217.955 280.216 219.015L280.62 220.46L281.024 221.905C284.564 220.915 288.019 220.445 291.594 220.812L291.747 219.32ZM280.62 220.46L280.217 219.015C275.916 220.215 272.044 222.335 268.482 224.785L269.332 226.021L270.182 227.257C273.584 224.917 277.15 222.985 281.023 221.905L280.62 220.46ZM269.332 226.021L268.481 224.785C264.267 227.685 260.282 230.948 256.434 234.214L257.404 235.358L258.375 236.501C262.205 233.251 266.096 230.067 270.182 227.257L269.332 226.021ZM257.404 235.358L256.433 234.215C254.999 235.433 253.595 236.682 252.205 237.916C250.811 239.153 249.43 240.375 248.022 241.562L248.988 242.709L249.955 243.856C251.396 242.642 252.804 241.395 254.196 240.159C255.593 238.92 256.971 237.694 258.376 236.501L257.404 235.358ZM248.988 242.709L248.021 241.563C244.408 244.613 240.609 247.429 236.636 249.984L237.447 251.246L238.258 252.507C242.343 249.881 246.247 246.987 249.956 243.855L248.988 242.709ZM237.447 251.246L236.635 249.984C234.639 251.27 232.602 252.498 230.535 253.671L231.276 254.976L232.016 256.28C234.129 255.081 236.214 253.823 238.259 252.507L237.447 251.246ZM231.276 254.976L231.665 256.424L233.335 255.975L232.945 254.527L232.556 253.078L230.886 253.527L231.276 254.976ZM232.945 254.527L234.419 254.804C237.804 236.833 241.189 218.861 244.574 200.884L243.1 200.606L241.625 200.328C238.241 218.306 234.856 236.277 231.471 254.249L232.945 254.527ZM243.1 200.606L244.574 200.884C247.958 182.912 251.343 164.94 254.728 146.963L253.254 146.685L251.78 146.408C248.395 164.385 245.01 182.357 241.625 200.328L243.1 200.606ZM253.254 146.685L254.728 146.962C255.413 143.313 256.388 139.356 256.861 135.493L255.372 135.311L253.883 135.128C253.424 138.876 252.511 142.517 251.78 146.409L253.254 146.685ZM255.372 135.311L256.861 135.493C257.195 132.77 256.864 129.9 255.832 127.327L254.44 127.885L253.047 128.443C253.881 130.521 254.159 132.878 253.883 135.128L255.372 135.311ZM254.44 127.885L255.83 127.323C252.971 120.249 245.075 116.814 237.951 118.541L238.304 119.998L238.658 121.456C244.498 120.04 250.808 122.902 253.049 128.447L254.44 127.885ZM238.304 119.998L237.95 118.541C235.315 119.182 232.634 120.098 230.333 122.072L231.31 123.211L232.287 124.349C234.051 122.835 236.182 122.059 238.659 121.456L238.304 119.998ZM231.31 123.211L230.336 122.071C228.688 123.479 226.854 125.573 226.034 127.884L227.448 128.386L228.861 128.887C229.434 127.272 230.836 125.59 232.285 124.351L231.31 123.211ZM227.448 128.386L226.034 127.885C225.813 128.507 225.674 129.148 225.565 129.725C225.446 130.349 225.373 130.824 225.262 131.338L226.728 131.655L228.194 131.972C228.313 131.422 228.419 130.774 228.512 130.286C228.614 129.75 228.719 129.289 228.862 128.886L227.448 128.386ZM226.728 131.655L225.264 131.331C225.005 132.497 224.745 133.664 224.491 134.837L225.957 135.155L227.423 135.473C227.675 134.309 227.933 133.151 228.193 131.98L226.728 131.655ZM225.957 135.155L224.492 134.83C224.242 135.96 223.993 137.089 223.744 138.217C223.495 139.345 223.246 140.473 222.996 141.6L224.46 141.925L225.924 142.25C226.175 141.121 226.424 139.991 226.673 138.863C226.922 137.735 227.171 136.607 227.421 135.48L225.957 135.155ZM224.46 141.925L222.995 141.601C222.506 143.818 222.017 146.036 221.527 148.253C221.038 150.471 220.549 152.688 220.06 154.905L221.524 155.228L222.989 155.551C223.478 153.335 223.968 151.117 224.457 148.9C224.946 146.682 225.436 144.464 225.925 142.248L224.46 141.925ZM221.524 155.228L220.06 154.905C218.094 163.813 216.127 172.719 214.159 181.626C212.192 190.533 210.225 199.439 208.259 208.348L209.724 208.671L211.188 208.994C213.154 200.086 215.121 191.18 217.089 182.273C219.056 173.366 221.023 164.459 222.989 155.551L221.524 155.228ZM209.724 208.671L208.259 208.345C208.017 209.435 207.777 210.525 207.536 211.614C207.296 212.704 207.056 213.792 206.814 214.879L208.279 215.204L209.743 215.53C209.985 214.44 210.226 213.35 210.466 212.261C210.706 211.171 210.946 210.083 211.188 208.996L209.724 208.671ZM208.279 215.204L208.668 216.653L210.338 216.204L209.948 214.755L209.559 213.307L207.889 213.756L208.279 215.204ZM209.948 214.755L211.416 215.063C213.089 207.076 214.759 199.088 216.43 191.101C218.101 183.114 219.772 175.127 221.444 167.14L219.976 166.833L218.508 166.526C216.835 174.513 215.165 182.5 213.494 190.487C211.823 198.474 210.152 206.461 208.48 214.448L209.948 214.755ZM219.976 166.833L221.444 167.14C223.116 159.153 224.787 151.166 226.458 143.179C228.129 135.192 229.8 127.205 231.472 119.218L230.004 118.911L228.535 118.603C226.863 126.59 225.192 134.578 223.522 142.565C221.851 150.552 220.18 158.539 218.508 166.526L219.976 166.833ZM230.004 118.911L231.472 119.218C231.624 118.492 231.806 117.753 231.995 116.976C232.183 116.207 232.378 115.404 232.542 114.592C232.871 112.971 233.099 111.229 232.911 109.451L231.42 109.608L229.928 109.765C230.069 111.102 229.905 112.5 229.602 113.996C229.451 114.742 229.27 115.492 229.081 116.264C228.895 117.028 228.7 117.818 228.535 118.603L230.004 118.911ZM231.42 109.608L232.911 109.451C232.549 106.008 231.107 102.924 228.48 100.679L227.505 101.82L226.531 102.96C228.497 104.641 229.634 106.98 229.928 109.765L231.42 109.608ZM227.505 101.82L228.48 100.679C224.569 97.3382 219.024 96.8628 214.488 97.5747L214.72 99.0565L214.953 100.538C219.074 99.8917 223.569 100.429 226.531 102.96L227.505 101.82ZM214.72 99.0565L214.488 97.5747C209.914 98.2924 205.466 100.193 202.012 103.479L203.046 104.565L204.08 105.652C207.016 102.859 210.869 101.179 214.953 100.538L214.72 99.0565ZM203.046 104.565L202.015 103.476C201.878 103.606 201.922 103.553 201.682 103.773C201.539 103.904 201.319 104.115 201.135 104.389L202.378 105.227L203.622 106.066C203.604 106.092 203.612 106.073 203.708 105.985C203.753 105.945 203.799 105.904 203.864 105.847C203.923 105.796 204 105.728 204.077 105.655L203.046 104.565ZM202.378 105.227L201.13 104.395C200.743 104.977 200.586 105.665 200.499 106.13C200.451 106.382 200.413 106.636 200.381 106.841C200.347 107.061 200.32 107.226 200.291 107.362L201.757 107.68L203.223 107.998C203.274 107.762 203.313 107.512 203.346 107.3C203.381 107.073 203.411 106.877 203.447 106.686C203.482 106.497 203.518 106.348 203.556 106.231C203.575 106.174 203.591 106.132 203.605 106.102C203.618 106.072 203.627 106.059 203.626 106.059L202.378 105.227ZM201.757 107.68L200.291 107.359C200.078 108.332 199.865 109.305 199.652 110.277C199.439 111.25 199.226 112.223 199.013 113.196L200.479 113.517L201.944 113.838C202.157 112.865 202.37 111.892 202.583 110.919C202.796 109.946 203.009 108.973 203.222 108L201.757 107.68ZM200.479 113.517L199.014 113.196C198.579 115.179 198.144 117.163 197.71 119.148C197.275 121.133 196.84 123.117 196.406 125.1L197.871 125.421L199.336 125.742C199.771 123.759 200.206 121.774 200.64 119.79C201.075 117.805 201.509 115.821 201.944 113.838L200.479 113.517ZM197.871 125.421L196.406 125.1C194.667 133.036 192.93 140.972 191.193 148.909C189.456 156.846 187.719 164.782 185.981 172.717L187.446 173.038L188.911 173.359C190.65 165.424 192.387 157.487 194.124 149.55C195.861 141.614 197.598 133.677 199.336 125.742L197.871 125.421ZM187.446 173.038L185.981 172.717C185.759 173.727 185.538 174.739 185.316 175.751C185.094 176.763 184.873 177.774 184.651 178.784L186.116 179.106L187.582 179.427C187.803 178.417 188.025 177.405 188.247 176.393C188.468 175.381 188.69 174.37 188.911 173.36L187.446 173.038ZM186.116 179.106L186.506 180.554L188.175 180.105L187.786 178.657L187.396 177.208L185.727 177.657L186.116 179.106ZM187.786 178.657L189.259 178.937C190.307 173.434 191.355 167.931 192.402 162.428C193.45 156.925 194.498 151.421 195.545 145.918L194.072 145.638L192.598 145.357C191.551 150.86 190.503 156.364 189.455 161.867C188.408 167.37 187.36 172.873 186.312 178.376L187.786 178.657ZM194.072 145.638L195.545 145.918C196.061 143.207 196.577 140.494 197.094 137.782C197.61 135.069 198.127 132.356 198.642 129.644L197.169 129.364L195.695 129.084C195.18 131.795 194.663 134.508 194.147 137.22C193.63 139.933 193.113 142.646 192.598 145.358L194.072 145.638ZM197.169 129.364L198.642 129.649C198.704 129.326 198.775 129.058 198.87 128.63C198.953 128.251 199.042 127.798 199.069 127.327L197.572 127.24L196.074 127.153C196.061 127.379 196.015 127.645 195.94 127.983C195.876 128.271 195.766 128.718 195.696 129.08L197.169 129.364ZM197.572 127.24L199.069 127.33C199.092 126.942 199.08 126.516 198.905 126.061C198.757 125.676 198.514 125.351 198.38 125.162L197.157 126.031L195.935 126.9C195.978 126.962 196.012 127.009 196.041 127.051C196.07 127.093 196.09 127.122 196.103 127.143C196.129 127.185 196.119 127.176 196.105 127.137C196.087 127.09 196.079 127.049 196.077 127.031C196.077 127.023 196.08 127.053 196.074 127.15L197.572 127.24ZM197.157 126.031L198.379 125.161C197.685 124.187 196.929 123.26 196.11 122.386L195.016 123.412L193.921 124.438C194.646 125.211 195.317 126.034 195.936 126.902L197.157 126.031ZM195.016 123.412L196.11 122.386C194.736 120.922 193.18 119.514 191.502 118.338L190.641 119.567L189.78 120.795C191.257 121.83 192.66 123.093 193.922 124.439L195.016 123.412ZM190.641 119.567L191.503 118.339C187.604 115.603 182.935 114.687 178.291 115.775L178.633 117.235L178.975 118.696C182.782 117.804 186.575 118.546 189.779 120.795L190.641 119.567ZM178.633 117.235L178.291 115.775C175.776 116.364 173.141 117.176 170.787 118.676L171.593 119.941L172.399 121.206C174.328 119.977 176.574 119.258 178.975 118.696L178.633 117.235ZM171.593 119.941L170.787 118.676C167.708 120.637 165.442 123.66 164.152 126.958L165.549 127.505L166.946 128.051C168.038 125.259 169.929 122.779 172.399 121.206L171.593 119.941ZM165.549 127.505L164.152 126.958C163.302 129.128 163.059 131.277 162.785 133.282L164.271 133.486L165.757 133.689C166.046 131.573 166.253 129.819 166.945 128.052L165.549 127.505ZM164.271 133.486L162.784 133.283C162.37 136.322 161.68 139.264 161.097 142.418L162.573 142.69L164.048 142.963C164.594 140.003 165.331 136.809 165.757 133.689L164.271 133.486ZM162.573 142.69L161.097 142.419C160.533 145.488 159.969 148.554 159.4 151.621L160.874 151.895L162.349 152.169C162.919 149.099 163.484 146.03 164.048 142.962L162.573 142.69ZM160.874 151.895L159.399 151.623C158.826 154.732 158.254 157.839 157.681 160.946C157.108 164.053 156.535 167.16 155.963 170.268L157.438 170.54L158.913 170.812C159.486 167.704 160.058 164.597 160.631 161.489C161.204 158.382 161.777 155.275 162.35 152.167L160.874 151.895ZM157.438 170.54L157.827 171.989L159.497 171.54L159.107 170.091L158.718 168.643L157.048 169.092L157.438 170.54ZM159.107 170.091L160.596 170.276C160.979 167.196 161.361 164.118 161.744 161.04C162.127 157.962 162.51 154.883 162.893 151.804L161.404 151.619L159.915 151.434C159.533 154.513 159.15 157.592 158.767 160.67C158.384 163.748 158.001 166.826 157.619 169.906L159.107 170.091ZM161.404 151.619L162.892 151.805C163.074 150.362 163.242 148.976 163.422 147.546L161.934 147.359L160.445 147.171C160.269 148.574 160.091 150.032 159.916 151.432L161.404 151.619ZM161.934 147.359L163.422 147.544C163.514 146.806 163.652 146.099 163.789 145.228C163.918 144.407 164.034 143.502 164.021 142.599L162.521 142.621L161.021 142.644C161.03 143.283 160.948 143.982 160.825 144.761C160.711 145.49 160.543 146.381 160.445 147.174L161.934 147.359ZM162.521 142.621L164.021 142.608C164.016 142.085 163.918 141.632 163.713 141.197C163.54 140.829 163.292 140.494 163.138 140.274L161.911 141.136L160.683 141.998C160.789 142.149 160.854 142.24 160.912 142.329C160.966 142.41 160.988 142.452 160.999 142.475C161.007 142.491 161.009 142.499 161.011 142.507C161.013 142.519 161.02 142.556 161.021 142.634L162.521 142.621ZM161.911 141.136L163.137 140.272C162.761 139.739 162.358 139.205 161.917 138.689L160.777 139.663L159.636 140.636C160.001 141.064 160.346 141.52 160.684 142L161.911 141.136ZM160.777 139.663L161.926 138.699C161.119 137.736 160.232 136.864 159.351 136.054L158.336 137.158L157.321 138.263C158.155 139.03 158.938 139.804 159.627 140.626L160.777 139.663ZM158.336 137.158L159.351 136.055C155.694 132.69 151.183 130.902 146.004 132.241L146.38 133.693L146.755 135.145C150.706 134.124 154.208 135.399 157.32 138.262L158.336 137.158ZM146.38 133.693L146.004 132.241C142.37 133.18 138.45 134.649 135.237 136.903L136.099 138.131L136.96 139.359C139.768 137.389 143.309 136.036 146.755 135.145L146.38 133.693ZM136.099 138.131L135.238 136.903C132.825 138.594 130.92 140.979 130.045 143.914L131.482 144.343L132.919 144.771C133.575 142.571 135.021 140.719 136.96 139.36L136.099 138.131ZM131.482 144.343L130.044 143.916C129.119 147.034 129.685 150.174 129.955 152.803L131.447 152.649L132.94 152.496C132.634 149.528 132.21 147.165 132.92 144.769L131.482 144.343ZM131.447 152.649L132.944 152.542C132.992 153.222 132.585 153.633 132.484 153.729C132.344 153.862 132.212 153.934 132.169 153.957C132.111 153.988 132.064 154.007 132.042 154.016C132.017 154.025 131.999 154.032 131.992 154.034C131.973 154.04 131.987 154.035 132.058 154.018C132.19 153.986 132.373 153.948 132.596 153.9C132.8 153.857 133.043 153.805 133.237 153.754C133.327 153.731 133.459 153.695 133.587 153.646C133.639 153.626 133.774 153.572 133.92 153.477C133.989 153.432 134.139 153.328 134.281 153.151C134.423 152.975 134.668 152.582 134.608 152.034L133.117 152.2L131.626 152.366C131.566 151.825 131.808 151.439 131.945 151.269C132.082 151.1 132.222 151.003 132.28 150.965C132.402 150.885 132.502 150.849 132.51 150.846C132.547 150.831 132.55 150.833 132.483 150.851C132.364 150.882 132.189 150.92 131.972 150.966C131.776 151.008 131.539 151.057 131.357 151.101C131.271 151.122 131.154 151.151 131.044 151.188C131 151.202 130.887 151.241 130.762 151.307C130.707 151.336 130.565 151.414 130.419 151.553C130.312 151.655 129.902 152.071 129.951 152.756L131.447 152.649ZM133.117 152.2L134.609 152.044C134.362 149.677 133.997 147.733 134.279 145.758L132.794 145.546L131.31 145.333C130.959 147.791 131.412 150.313 131.625 152.356L133.117 152.2ZM132.794 145.546L134.279 145.758C134.554 143.836 135.425 141.967 136.761 140.527L135.661 139.507L134.561 138.487C132.8 140.386 131.668 142.823 131.31 145.333L132.794 145.546ZM135.661 139.507L136.76 140.528C137.87 139.333 139.279 138.399 140.843 137.612L140.168 136.272L139.494 134.932C137.742 135.814 135.997 136.941 134.562 138.486L135.661 139.507ZM140.168 136.272L140.846 137.61C142.697 136.673 144.547 135.703 146.279 135.305L145.942 133.843L145.606 132.381C143.435 132.881 141.209 134.063 139.491 134.934L140.168 136.272ZM145.942 133.843L146.276 135.305C149.803 134.5 153.263 136.424 156.132 139.159L157.167 138.074L158.202 136.988C155.131 134.059 150.659 131.228 145.608 132.38L145.942 133.843ZM157.167 138.074L156.131 139.158C156.883 139.877 157.581 140.599 158.199 141.364L159.366 140.422L160.534 139.48C159.804 138.577 159.006 137.756 158.204 136.989L157.167 138.074ZM159.366 140.422L158.197 141.362C158.486 141.721 158.761 142.083 159.024 142.454L160.247 141.585L161.47 140.717C161.169 140.293 160.857 139.883 160.536 139.483L159.366 140.422ZM160.247 141.585L159.022 142.451C159.125 142.596 159.19 142.688 159.248 142.776C159.302 142.858 159.326 142.902 159.338 142.928C159.348 142.948 159.35 142.956 159.351 142.961C159.352 142.967 159.358 142.995 159.357 143.057L160.857 143.07L162.357 143.084C162.368 141.902 161.824 141.218 161.472 140.72L160.247 141.585ZM160.857 143.07L159.357 143.057C159.352 143.609 159.281 144.201 159.18 144.859C159.085 145.478 158.951 146.228 158.868 146.911L160.356 147.094L161.845 147.277C161.922 146.647 162.033 146.048 162.146 145.314C162.252 144.619 162.35 143.856 162.357 143.083L160.857 143.07ZM160.356 147.094L158.867 146.912C158.776 147.661 158.682 148.409 158.589 149.159C158.495 149.909 158.401 150.66 158.309 151.413L159.798 151.596L161.287 151.778C161.379 151.029 161.472 150.281 161.566 149.531C161.659 148.781 161.753 148.03 161.845 147.277L160.356 147.094ZM159.798 151.596L158.31 151.41C157.915 154.568 157.522 157.725 157.129 160.883C156.736 164.04 156.344 167.197 155.949 170.354L157.438 170.54L158.926 170.726C159.321 167.568 159.714 164.41 160.106 161.253C160.499 158.096 160.892 154.939 161.286 151.782L159.798 151.596ZM157.438 170.54L158.924 170.741C158.861 171.207 158.601 171.497 158.454 171.627C158.308 171.756 158.175 171.818 158.127 171.84C158.028 171.884 157.97 171.891 158.02 171.881C158.104 171.863 158.237 171.844 158.468 171.813C158.654 171.788 158.934 171.75 159.174 171.693C159.288 171.667 159.482 171.616 159.68 171.52C159.78 171.471 159.943 171.381 160.106 171.229C160.271 171.074 160.501 170.793 160.581 170.372L159.107 170.091L157.634 169.81C157.708 169.42 157.919 169.166 158.057 169.038C158.191 168.913 158.315 168.848 158.367 168.822C158.469 168.773 158.531 168.763 158.488 168.773C158.415 168.79 158.287 168.81 158.064 168.84C157.887 168.864 157.614 168.899 157.389 168.948C157.284 168.97 157.097 169.014 156.905 169.099C156.811 169.142 156.64 169.226 156.468 169.378C156.294 169.532 156.018 169.847 155.951 170.339L157.438 170.54ZM159.107 170.091L160.582 170.363C161.538 165.171 162.495 159.978 163.452 154.786C164.409 149.594 165.366 144.401 166.322 139.209L164.846 138.937L163.371 138.666C162.416 143.858 161.459 149.05 160.502 154.242C159.545 159.435 158.588 164.627 157.632 169.82L159.107 170.091ZM164.846 138.937L166.322 139.207C166.68 137.25 167.27 134.911 167.479 132.7L165.986 132.559L164.493 132.418C164.299 134.466 163.784 136.411 163.371 138.667L164.846 138.937ZM165.986 132.559L167.479 132.704C167.556 131.91 167.619 131.229 167.755 130.555L166.285 130.256L164.815 129.958C164.641 130.815 164.566 131.665 164.493 132.414L165.986 132.559ZM166.285 130.256L167.758 130.544C168.294 127.792 169.495 125.185 171.317 123.129L170.194 122.134L169.072 121.139C166.853 123.643 165.44 126.757 164.813 129.969L166.285 130.256ZM170.194 122.134L171.316 123.129C172.932 121.308 174.98 120.022 177.334 119.184L176.831 117.771L176.328 116.358C173.571 117.339 171.071 118.885 169.072 121.139L170.194 122.134ZM176.831 117.771L177.333 119.185C180.559 118.041 184.765 118.978 187.85 121.063L188.69 119.82L189.529 118.577C185.903 116.126 180.702 114.807 176.33 116.357L176.831 117.771ZM188.69 119.82L187.85 121.063C189.199 121.975 190.467 123.096 191.681 124.299L192.736 123.234L193.792 122.168C192.508 120.895 191.092 119.634 189.53 118.577L188.69 119.82ZM192.736 123.234L191.68 124.298C192.397 125.011 193.073 125.778 193.696 126.585L194.884 125.669L196.071 124.752C195.37 123.843 194.607 122.976 193.793 122.169L192.736 123.234ZM194.884 125.669L193.695 126.584C193.955 126.922 194.202 127.254 194.427 127.585L195.666 126.739L196.905 125.894C196.636 125.499 196.353 125.118 196.072 124.753L194.884 125.669ZM195.666 126.739L194.433 127.593C194.469 127.645 194.458 127.642 194.443 127.593C194.426 127.538 194.424 127.488 194.424 127.47C194.424 127.469 194.423 127.501 194.398 127.627C194.385 127.69 194.372 127.749 194.353 127.84C194.335 127.924 194.315 128.023 194.295 128.131L195.77 128.403L197.245 128.674C197.277 128.504 197.298 128.421 197.338 128.221C197.371 128.06 197.413 127.833 197.422 127.582C197.445 126.975 197.272 126.424 196.9 125.885L195.666 126.739ZM195.77 128.403L194.297 128.122C193.801 130.715 193.308 133.311 192.814 135.905C192.321 138.5 191.827 141.094 191.332 143.687L192.805 143.968L194.279 144.25C194.774 141.656 195.268 139.061 195.761 136.466C196.255 133.871 196.748 131.277 197.243 128.684L195.77 128.403ZM192.805 143.968L191.332 143.688C190.218 149.545 189.103 155.402 187.987 161.259C186.872 167.116 185.757 172.974 184.643 178.831L186.116 179.111L187.59 179.392C188.704 173.535 189.819 167.678 190.934 161.82C192.05 155.963 193.165 150.106 194.279 144.249L192.805 143.968ZM186.116 179.111L187.59 179.392C187.516 179.781 187.305 180.037 187.159 180.172C187.019 180.301 186.889 180.367 186.833 180.393C186.725 180.444 186.657 180.453 186.7 180.444C186.773 180.428 186.896 180.413 187.127 180.385C187.308 180.363 187.594 180.329 187.842 180.273C187.96 180.246 188.163 180.193 188.371 180.089C188.478 180.036 188.641 179.942 188.802 179.786C188.968 179.624 189.169 179.359 189.252 178.981L187.786 178.662L186.32 178.344C186.395 177.999 186.577 177.764 186.714 177.631C186.846 177.504 186.969 177.436 187.028 177.407C187.139 177.351 187.21 177.34 187.172 177.348C187.109 177.363 186.99 177.379 186.767 177.406C186.593 177.427 186.312 177.459 186.077 177.509C185.966 177.533 185.768 177.579 185.565 177.674C185.462 177.722 185.293 177.812 185.125 177.967C184.951 178.127 184.723 178.411 184.643 178.831L186.116 179.111ZM187.786 178.662L189.251 178.983C192.624 163.579 195.998 148.169 199.365 132.764L197.9 132.444L196.435 132.124C193.067 147.528 189.694 162.937 186.321 178.342L187.786 178.662ZM197.9 132.444L199.365 132.765C200.2 128.951 201.035 125.139 201.869 121.327C202.704 117.514 203.539 113.702 204.373 109.889L202.908 109.568L201.443 109.247C200.608 113.061 199.773 116.873 198.939 120.685C198.104 124.497 197.269 128.31 196.435 132.123L197.9 132.444ZM202.908 109.568L204.372 109.893C204.578 108.965 204.785 108.011 204.989 107.088L203.524 106.764L202.059 106.441C201.849 107.394 201.652 108.305 201.444 109.242L202.908 109.568ZM203.524 106.764L204.989 107.088C205.034 106.882 205.07 106.669 205.099 106.496C205.13 106.31 205.155 106.159 205.185 106.015C205.215 105.873 205.243 105.77 205.27 105.694C205.297 105.617 205.315 105.593 205.312 105.597L204.082 104.738L202.853 103.879C202.486 104.404 202.333 104.995 202.248 105.401C202.204 105.616 202.168 105.83 202.14 106.001C202.109 106.186 202.086 106.322 202.059 106.44L203.524 106.764ZM204.082 104.738L205.308 105.603C205.41 105.458 205.586 105.276 205.853 105.045C206.143 104.794 206.377 104.621 206.715 104.343L205.763 103.184L204.811 102.025C204.602 102.196 204.203 102.506 203.893 102.774C203.561 103.061 203.169 103.431 202.857 103.873L204.082 104.738ZM205.763 103.184L206.721 104.338C207.467 103.719 208.27 103.16 209.114 102.663L208.354 101.371L207.593 100.078C206.618 100.652 205.682 101.302 204.805 102.03L205.763 103.184ZM208.354 101.371L209.117 102.662C209.607 102.372 210.118 102.106 210.643 101.857L210 100.501L209.357 99.1461C208.765 99.4268 208.171 99.7357 207.59 100.08L208.354 101.371ZM210 100.501L210.629 101.863C210.907 101.735 211.187 101.614 211.462 101.504L210.909 100.11L210.357 98.7154C210.022 98.8481 209.691 98.9918 209.371 99.1395L210 100.501ZM210.909 100.11L211.475 101.499C211.757 101.385 212.034 101.282 212.314 101.19L211.848 99.7646L211.381 98.339C211.028 98.4546 210.684 98.5821 210.344 98.7208L210.909 100.11ZM211.848 99.7646L212.297 101.196C212.441 101.15 212.655 101.084 212.756 101.043C212.766 101.039 212.832 101.012 212.911 100.968C212.927 100.959 213.069 100.884 213.215 100.746C213.269 100.695 213.495 100.482 213.614 100.115C213.682 99.9023 213.723 99.6078 213.638 99.2788C213.552 98.9459 213.368 98.6998 213.187 98.5373C212.877 98.2602 212.547 98.1967 212.471 98.182C212.348 98.1582 212.249 98.1552 212.203 98.1547C212.106 98.1536 212.03 98.1624 212.005 98.1654C211.945 98.1727 211.897 98.1823 211.884 98.1849C211.828 98.1962 211.774 98.2106 211.763 98.2136C211.714 98.2265 211.645 98.2457 211.563 98.2686L211.969 99.7128L212.374 101.157C212.457 101.134 212.504 101.121 212.527 101.115C212.551 101.108 212.521 101.117 212.478 101.126C212.468 101.128 212.423 101.137 212.363 101.144C212.339 101.147 212.265 101.156 212.168 101.154C212.122 101.154 212.023 101.151 211.9 101.127C211.825 101.113 211.495 101.049 211.185 100.772C211.004 100.61 210.82 100.364 210.734 100.031C210.649 99.7017 210.69 99.4073 210.758 99.1944C210.877 98.8277 211.103 98.6146 211.157 98.5638C211.302 98.4263 211.444 98.3513 211.46 98.3424C211.537 98.2996 211.602 98.2735 211.609 98.2706C211.668 98.2461 211.657 98.2521 211.398 98.3336L211.848 99.7646ZM211.969 99.7128L212.345 101.165C216.096 100.194 220.858 100.677 223.953 102.73L224.782 101.48L225.612 100.23C221.661 97.609 215.981 97.1247 211.593 98.2606L211.969 99.7128ZM224.782 101.48L223.952 102.729C226.099 104.157 227.546 106.452 228.073 109.039L229.543 108.739L231.013 108.439C230.343 105.155 228.485 102.141 225.613 100.231L224.782 101.48ZM229.543 108.739L228.074 109.039C228.258 109.942 228.341 110.869 228.325 111.793L229.825 111.819L231.325 111.844C231.344 110.708 231.243 109.562 231.013 108.438L229.543 108.739ZM229.825 111.819L228.325 111.791C228.314 112.415 228.196 113.096 228.021 113.86C227.869 114.526 227.61 115.497 227.454 116.234L228.921 116.545L230.389 116.855C230.555 116.067 230.734 115.455 230.946 114.529C231.135 113.701 231.308 112.782 231.325 111.846L229.825 111.819ZM228.921 116.545L227.453 116.237C225.83 123.988 224.208 131.741 222.586 139.494C220.964 147.246 219.342 154.998 217.719 162.749L219.187 163.057L220.655 163.364C222.279 155.613 223.901 147.86 225.523 140.108C227.144 132.355 228.766 124.603 230.39 116.852L228.921 116.545ZM219.187 163.057L217.719 162.749C214.081 180.134 210.443 197.518 206.805 214.897L208.273 215.204L209.741 215.512C213.379 198.133 217.017 180.748 220.655 163.364L219.187 163.057ZM208.273 215.204L209.741 215.512C209.663 215.885 209.46 216.132 209.316 216.265C209.178 216.392 209.05 216.457 208.993 216.484C208.883 216.535 208.815 216.544 208.857 216.536C208.929 216.52 209.05 216.505 209.281 216.478C209.461 216.457 209.749 216.424 209.999 216.367C210.118 216.34 210.324 216.287 210.535 216.18C210.681 216.106 211.254 215.797 211.41 215.068L209.942 214.755L208.475 214.443C208.616 213.781 209.128 213.529 209.178 213.505C209.292 213.446 209.367 213.434 209.331 213.443C209.27 213.456 209.154 213.472 208.93 213.499C208.758 213.519 208.475 213.55 208.238 213.6C208.125 213.624 207.926 213.671 207.722 213.766C207.617 213.815 207.45 213.905 207.283 214.058C207.111 214.217 206.89 214.492 206.805 214.897L208.273 215.204ZM209.942 214.755L211.407 215.079C213.312 206.444 215.219 197.81 217.126 189.175C219.033 180.54 220.94 171.905 222.845 163.271L221.38 162.947L219.916 162.624C218.01 171.259 216.104 179.893 214.197 188.528C212.29 197.163 210.383 205.797 208.478 214.432L209.942 214.755ZM221.38 162.947L222.845 163.271C224.751 154.636 226.656 146.002 228.567 137.367L227.102 137.043L225.638 136.719C223.727 145.354 221.821 153.99 219.916 162.624L221.38 162.947ZM227.102 137.043L228.567 137.369C228.809 136.279 229.049 135.189 229.29 134.1C229.53 133.01 229.77 131.922 230.011 130.835L228.547 130.51L227.083 130.184C226.841 131.274 226.6 132.364 226.36 133.453C226.12 134.543 225.88 135.631 225.638 136.718L227.102 137.043ZM228.547 130.51L230.011 130.835C230.327 129.416 230.471 128.493 230.98 127.579L229.67 126.849L228.359 126.119C227.579 127.518 227.343 129.013 227.083 130.184L228.547 130.51ZM229.67 126.849L230.98 127.578C232.134 125.506 233.8 123.739 235.822 122.601L235.087 121.294L234.351 119.986C231.791 121.427 229.75 123.621 228.359 126.119L229.67 126.849ZM235.087 121.294L235.82 122.602C236.164 122.409 236.505 122.237 236.847 122.088L236.249 120.712L235.651 119.337C235.2 119.533 234.769 119.752 234.353 119.985L235.087 121.294ZM236.249 120.712L236.852 122.086C236.847 122.088 236.863 122.081 236.92 122.059C236.969 122.04 237.031 122.017 237.102 121.991C237.237 121.94 237.411 121.876 237.55 121.823C237.619 121.796 237.694 121.767 237.759 121.739C237.791 121.726 237.834 121.707 237.879 121.686C237.902 121.675 237.936 121.658 237.975 121.636C238.002 121.622 238.089 121.573 238.187 121.497C238.231 121.462 238.34 121.374 238.449 121.234C238.522 121.139 238.827 120.732 238.754 120.131C238.665 119.398 238.126 119.054 237.882 118.944C237.648 118.838 237.445 118.82 237.38 118.815C237.223 118.802 237.098 118.818 237.069 118.821C237.018 118.827 236.975 118.835 236.947 118.84C236.85 118.858 236.74 118.887 236.645 118.912L237.032 120.361L237.419 121.81C237.513 121.785 237.527 121.784 237.502 121.788C237.493 121.79 237.465 121.795 237.425 121.8C237.408 121.802 237.291 121.817 237.141 121.805C237.078 121.8 236.878 121.782 236.645 121.677C236.402 121.567 235.865 121.225 235.776 120.493C235.703 119.892 236.007 119.487 236.079 119.394C236.186 119.256 236.293 119.169 236.335 119.136C236.428 119.063 236.508 119.02 236.525 119.01C236.555 118.994 236.577 118.983 236.586 118.979C236.603 118.971 236.609 118.968 236.597 118.973C236.576 118.983 236.535 118.999 236.474 119.022C236.296 119.09 235.804 119.27 235.646 119.339L236.249 120.712ZM237.032 120.361L237.417 121.811C238.098 121.63 238.885 121.56 239.718 121.532L239.669 120.033L239.619 118.534C238.714 118.564 237.659 118.643 236.648 118.911L237.032 120.361ZM239.669 120.033L239.712 121.532C241.123 121.491 242.541 121.687 243.894 122.105L244.337 120.672L244.78 119.239C243.116 118.725 241.369 118.483 239.625 118.534L239.669 120.033ZM244.337 120.672L243.891 122.104C246.682 122.974 249.106 124.807 250.591 127.286L251.878 126.515L253.165 125.744C251.277 122.592 248.232 120.315 244.784 119.24L244.337 120.672ZM251.878 126.515L250.591 127.285C252.036 129.701 252.378 132.239 252.2 134.955C252.018 137.745 251.316 140.515 250.744 143.559L252.218 143.836L253.692 144.113C254.219 141.314 254.996 138.181 255.194 135.15C255.397 132.044 255.019 128.843 253.165 125.745L251.878 126.515ZM252.218 143.836L250.744 143.558C247.462 160.983 244.181 178.408 240.9 195.827L242.374 196.104L243.848 196.382C247.129 178.963 250.411 161.538 253.692 144.114L252.218 143.836ZM242.374 196.104L240.9 195.827C237.619 213.252 234.338 230.676 231.057 248.095L232.531 248.373L234.005 248.651C237.286 231.232 240.567 213.807 243.848 196.382L242.374 196.104ZM232.531 248.373L231.057 248.095C230.642 250.294 230.228 252.493 229.813 254.686L231.287 254.964L232.761 255.243C233.176 253.049 233.59 250.85 234.005 248.651L232.531 248.373ZM231.287 254.964L232.76 255.247C232.707 255.523 232.587 255.727 232.491 255.855C232.395 255.981 232.298 256.066 232.236 256.115C232.116 256.209 232.014 256.257 231.985 256.27C231.92 256.3 231.89 256.305 231.939 256.291C232.022 256.268 232.161 256.237 232.358 256.197C232.529 256.162 232.761 256.117 232.938 256.078C233.03 256.058 233.135 256.034 233.235 256.006C233.285 255.992 233.348 255.973 233.416 255.948C233.471 255.928 233.588 255.884 233.717 255.808L232.957 254.515L232.196 253.222C232.359 253.126 232.49 253.099 232.425 253.117C232.408 253.122 232.368 253.132 232.296 253.148C232.147 253.18 231.979 253.212 231.76 253.257C231.569 253.296 231.329 253.346 231.126 253.403C231.033 253.43 230.884 253.474 230.733 253.544C230.662 253.576 230.526 253.643 230.382 253.756C230.275 253.84 229.919 254.136 229.814 254.681L231.287 254.964ZM232.957 254.515L233.696 255.82C241.698 251.285 248.938 245.86 255.775 239.796L254.779 238.673L253.784 237.551C247.07 243.507 239.999 248.8 232.217 253.21L232.957 254.515ZM254.779 238.673L255.774 239.796C258.797 237.117 261.864 234.519 265.01 231.991L264.07 230.822L263.131 229.652C259.944 232.213 256.841 234.842 253.784 237.551L254.779 238.673ZM264.07 230.822L265.01 231.991C268.732 229.001 272.443 226.108 276.529 223.938L275.825 222.613L275.121 221.288C270.756 223.608 266.846 226.667 263.131 229.652L264.07 230.822ZM275.825 222.613L276.528 223.938C278.375 222.958 280.247 222.088 282.132 221.644L281.789 220.184L281.445 218.724C279.174 219.258 277.028 220.276 275.122 221.288L275.825 222.613ZM281.789 220.184L282.131 221.644C284.174 221.165 286.354 221.037 288.505 221.146L288.581 219.648L288.658 218.15C286.296 218.03 283.824 218.166 281.446 218.723L281.789 220.184ZM288.581 219.648L288.504 221.146C292.453 221.349 296.398 222.369 299.937 224.114L300.601 222.768L301.264 221.423C297.355 219.496 293.01 218.374 288.658 218.15L288.581 219.648ZM300.601 222.768L299.935 224.113C303.161 225.709 306.09 227.939 307.799 230.893L309.097 230.142L310.396 229.391C308.282 225.737 304.787 223.166 301.266 221.424L300.601 222.768ZM309.097 230.142L307.8 230.896C309.439 233.717 309.851 237.381 308.676 240.342L310.07 240.895L311.464 241.449C313.017 237.536 312.44 232.911 310.394 229.389L309.097 230.142ZM310.07 240.895L308.676 240.341C307.668 242.877 305.747 244.418 303.288 245.72C302.044 246.377 300.723 246.945 299.328 247.561C297.958 248.166 296.529 248.815 295.197 249.603L295.961 250.894L296.725 252.185C297.888 251.497 299.171 250.91 300.541 250.305C301.885 249.711 303.33 249.091 304.691 248.371C307.439 246.917 310.078 244.935 311.464 241.45L310.07 240.895ZM295.961 250.894L295.197 249.603C290.048 252.65 285.124 257.061 280.727 261.233L281.76 262.321L282.792 263.409C287.18 259.245 291.893 255.045 296.725 252.185L295.961 250.894ZM281.76 262.321L280.727 261.233C273.907 267.707 267.387 274.51 260.87 281.216L261.946 282.261L263.022 283.307C269.561 276.577 276.028 269.83 282.792 263.409L281.76 262.321ZM261.946 282.261L260.87 281.216C254.355 287.922 248.181 294.953 242.724 302.621L243.946 303.491L245.168 304.361C250.51 296.855 256.574 289.943 263.022 283.306L261.946 282.261ZM243.946 303.491L242.724 302.621C240.548 305.677 238.582 308.922 236.608 312.003C234.616 315.113 232.587 318.103 230.212 320.807L231.339 321.797L232.466 322.786C234.996 319.906 237.123 316.76 239.134 313.621C241.164 310.454 243.049 307.338 245.168 304.361L243.946 303.491ZM231.339 321.797L230.212 320.807C225.432 326.249 219.22 331.125 212.639 334.822L213.373 336.13L214.108 337.438C220.95 333.594 227.437 328.512 232.466 322.786L231.339 321.797ZM213.373 336.13L212.641 334.821C210.421 336.063 208.141 337.195 205.81 338.245L206.425 339.613L207.041 340.981C209.441 339.9 211.8 338.73 214.106 337.439L213.373 336.13ZM206.425 339.613L207.034 340.983C207.105 340.952 207.211 340.925 207.535 340.865C207.792 340.816 208.258 340.735 208.711 340.531L208.095 339.164L207.478 337.796C207.407 337.828 207.298 337.857 206.981 337.916C206.73 337.963 206.264 338.043 205.816 338.242L206.425 339.613ZM208.095 339.164V337.664H208.083V339.164V340.664H208.095V339.164Z" fill="#CFCDC8" mask="url(#path-2-outside-2_445_69)"/>
<path d="M5.03125 67.2288C5.06684 67.2277 5.25373 67.2188 5.45117 67.3206L5.53613 67.3713L5.54688 67.3792C10.5456 70.9554 15.522 74.5547 20.4805 78.1829H20.4795C29.2217 84.5754 37.8726 91.0312 46.5283 97.6194C55.172 104.198 63.758 110.864 72.2754 117.61C72.288 117.618 72.3018 117.626 72.3145 117.636L74.0195 118.976H71.8232C71.7883 118.986 71.7409 118.998 71.6826 119.018C71.6002 119.045 71.5151 119.075 71.4365 119.104C71.3993 119.117 71.3609 119.131 71.3281 119.143C71.3028 119.152 71.2534 119.169 71.207 119.181C71.2133 119.179 71.1905 119.187 71.0928 119.22C71.0161 119.246 70.9144 119.281 70.8115 119.313C70.7129 119.343 70.5911 119.379 70.4785 119.402C70.4247 119.412 70.3453 119.426 70.2588 119.429C70.2154 119.43 70.1475 119.429 70.0693 119.415C69.9993 119.403 69.8581 119.368 69.7188 119.259L69.7168 119.257C64.9003 115.448 60.0726 111.661 55.2168 107.905H55.2158C46.6539 101.276 38.035 94.7273 29.3525 88.2659C20.6295 81.7754 11.8485 75.3657 3.00488 69.0422L3.00586 69.0413C3.0013 69.038 2.99576 69.0359 2.99121 69.0325L3.87695 67.8235C3.76351 67.7425 3.65659 67.7145 3.60254 67.7043C3.54193 67.693 3.4951 67.6929 3.47461 67.6936C3.45615 67.6942 3.44229 67.6955 3.43457 67.6965C3.46494 67.6898 3.52291 67.6737 3.60742 67.6448C3.68803 67.6172 3.7704 67.5862 3.84961 67.5569C3.88701 67.543 3.92638 67.5281 3.96094 67.5159C3.9872 67.5066 4.04066 67.4882 4.09375 67.4749C4.08323 67.4775 4.10204 67.4718 4.19824 67.4387C4.27325 67.413 4.37456 67.3781 4.47656 67.3459C4.5745 67.3151 4.69651 67.279 4.81055 67.2561C4.86556 67.2451 4.94467 67.2313 5.03125 67.2288Z" fill="#CFCDC8" stroke="#CFCDC8" stroke-width="1.5"/>
<path d="M69.958 26.6279C70.0686 26.6495 70.3185 26.7227 70.4824 26.9824C73.7784 32.2087 77.011 37.4818 80.1689 42.7949C85.7642 52.1991 91.1233 61.6904 96.3037 71.3828C101.484 81.0753 106.44 90.8888 111.171 100.806L111.399 101.284L111.025 101.659L110.283 102.401L110.09 102.015C110.028 102.035 109.963 102.057 109.896 102.079C109.696 102.146 109.475 102.219 109.298 102.269C109.214 102.292 109.111 102.318 109.016 102.332C108.973 102.338 108.888 102.35 108.79 102.343C108.742 102.339 108.65 102.328 108.545 102.285C108.437 102.241 108.258 102.138 108.148 101.919L108.146 101.912L108.142 101.906C105.491 96.3345 102.765 90.8019 99.9648 85.3047C95.0138 75.5693 89.8382 65.9489 84.4443 56.4551C79.0275 46.9209 73.392 37.5077 67.5439 28.2324L68.8066 27.4219C68.628 27.1484 68.3567 27.1093 68.3018 27.1025C68.2229 27.0929 68.1681 27.1018 68.1631 27.1025C68.1509 27.1043 68.1694 27.1014 68.2373 27.0801C68.3653 27.0399 68.5378 26.9744 68.7451 26.8965C68.9357 26.8248 69.1611 26.7411 69.3477 26.6865C69.4361 26.6607 69.5559 26.6293 69.6768 26.6172C69.7345 26.6114 69.8388 26.6047 69.958 26.6279Z" fill="#CFCDC8" stroke="#CFCDC8" stroke-width="1.5"/>
<path d="M157.163 0.728516C157.152 0.7333 157.095 0.75811 157.03 0.814453C156.965 0.870365 156.831 1.00991 156.798 1.24316L158.285 1.44824C157.41 7.8555 156.605 14.2682 155.875 20.6865C154.586 32.0173 153.511 43.3767 152.666 54.7471C151.82 66.1178 151.193 77.506 150.791 88.9053L150.765 89.6289H150.269C150.159 89.6786 150.04 89.7115 149.951 89.7334C149.761 89.78 149.523 89.8207 149.322 89.8545C149.103 89.8912 148.92 89.9209 148.79 89.9502C148.72 89.9658 148.704 89.9728 148.716 89.9678C148.721 89.9658 148.776 89.9444 148.842 89.8936C148.889 89.8577 149.102 89.6815 149.113 89.3535L147.616 89.3281C147.616 89.3192 147.618 89.3105 147.619 89.3018H147.616C147.846 82.8325 148.141 76.3681 148.515 69.9033C149.172 58.496 150.048 47.1056 151.154 35.7324C152.26 24.3596 153.585 13.0153 155.129 1.69434L155.13 1.6875C155.164 1.45712 155.286 1.29981 155.378 1.21191C155.468 1.12633 155.561 1.07417 155.623 1.04395C155.745 0.983847 155.876 0.948242 155.97 0.925781C156.167 0.879 156.41 0.844558 156.606 0.817383C156.824 0.787115 156.995 0.764339 157.116 0.738281C157.18 0.724505 157.186 0.718328 157.163 0.728516Z" fill="#CFCDC8" stroke="#CFCDC8" stroke-width="1.5"/>
</svg>
