<svg width="263" height="69" viewBox="0 0 263 69" fill="none" xmlns="http://www.w3.org/2000/svg">
<path d="M29.5312 67.1484H0C0.74707 63.9404 1.31836 59.8975 1.75781 54.9316C2.19727 49.9658 2.41699 45.2197 2.41699 40.6055V30.7178C2.41699 26.1035 2.19727 21.3135 1.75781 16.3477C1.31836 11.3818 0.74707 7.33887 0 4.13086H33.75L42.0557 25.752C42.8467 27.7295 43.4619 29.4434 43.8574 30.8496C44.2529 32.2998 44.7803 34.4092 45.3516 37.1777H46.4502C46.9775 33.6182 47.5928 31.1133 48.0762 29.707C48.2959 29.0039 48.7793 27.6855 49.5264 25.752L57.876 4.13086H91.0986C90.3516 7.33887 89.7363 11.4258 89.2969 16.3916C88.8574 21.3574 88.6377 26.1475 88.6377 30.7178V40.6055C88.6377 45.1758 88.8574 49.9219 89.2969 54.8877C89.7363 59.8535 90.3516 63.9404 91.0986 67.1484H61.5674C62.3145 63.9404 62.8857 59.8975 63.3252 54.9316C63.7646 49.9658 63.9844 45.2197 63.9844 40.6055V33.5742H62.8418L48.6914 67.1484H42.0557L27.9932 33.5742H27.1143V40.6055C27.1143 45.2197 27.334 49.9658 27.7734 54.9316C28.2129 59.8975 28.7842 63.9404 29.5312 67.1484ZM112.28 22.2363C108.369 22.2363 105.293 21.1816 103.008 19.1162C100.723 17.0508 99.5801 14.3701 99.5801 11.1621C99.5801 7.9541 100.723 5.27344 103.008 3.16406C105.293 1.05469 108.369 0 112.28 0C116.191 0 119.312 1.05469 121.641 3.16406C123.926 5.27344 125.068 7.9541 125.068 11.1621C125.068 14.3701 123.926 17.0508 121.641 19.1162C119.355 21.1816 116.235 22.2363 112.28 22.2363ZM127.134 67.1484H97.6025C98.3496 63.9404 98.9648 59.8535 99.4043 54.8877C99.8438 49.9219 100.063 45.1758 100.063 40.6055V32.5195C100.063 27.8174 99.8438 24.3896 99.4043 22.1484C102.788 24.3457 107.227 25.4443 112.676 25.4443C118.081 25.4443 122.3 24.3457 125.332 22.1484C124.937 24.7412 124.717 28.2129 124.717 32.5195V40.6055C124.717 45.2197 124.937 49.9658 125.376 54.9316C125.815 59.8975 126.387 63.9404 127.134 67.1484ZM163.916 68.5107C159.302 68.5107 153.853 67.9834 147.48 66.9727C141.108 65.9619 135.615 64.7754 131.001 63.457L132.056 35.0244C135.703 38.3203 140.317 40.8252 145.854 42.4512C151.348 44.0771 157.017 44.9121 162.861 44.9121C169.629 44.9121 173.013 43.9893 173.013 42.1436C173.013 35.9473 132.056 45.5273 132.056 22.7637C132.056 15.9521 135.659 10.6787 141.812 7.51465C147.964 4.39453 156.094 2.8125 165.806 2.8125C170.244 2.8125 174.946 3.20801 179.824 4.04297C184.702 4.87793 188.789 5.84473 192.085 6.94336V34.1895C189.404 32.124 185.713 30.4541 181.011 29.0918C176.265 27.7734 171.562 27.1143 166.904 27.1143C163.96 27.1143 161.499 27.334 159.609 27.8174C157.676 28.3008 156.709 29.0918 156.709 30.1465C156.709 34.4092 167.036 33.7939 177.363 34.8486C182.505 35.2002 187.69 36.5625 191.558 38.54C195.425 40.5176 198.018 44.4287 198.018 49.7021C198.018 58.0957 192.612 63.1934 184.131 65.918C178.33 67.8076 171.782 68.5107 163.916 68.5107ZM258.882 67.1484H201.445C202.148 63.8965 202.72 59.7656 203.203 54.7998C203.643 49.834 203.862 45.0879 203.862 40.6055V30.7178C203.862 26.2354 203.643 21.4893 203.203 16.4795C202.72 11.5137 202.148 7.38281 201.445 4.13086H256.157L259.849 31.6846C258.662 30.498 256.772 29.6191 254.18 29.1357C251.587 28.6523 247.808 28.4326 242.754 28.4326H228.472V32.5195H238.799C243.677 32.5195 247.676 32.3877 250.752 32.124V39.9902C247.939 39.6826 243.94 39.5068 238.799 39.5068H228.472V42.9346H239.15C246.577 42.9346 251.982 42.583 255.322 41.8359C258.662 41.0889 261.123 40.1221 262.661 38.8916L258.882 67.1484Z" fill="white"/>
</svg>
