<svg width="1369" height="350" viewBox="0 0 1369 350" fill="none" xmlns="http://www.w3.org/2000/svg">
<path d="M153.851 349.829H-0.00011006C3.89197 333.116 6.86826 312.053 9.15772 286.182C11.4472 260.311 12.5919 235.585 12.5919 211.546V160.033C12.5919 135.994 11.4472 111.039 9.15772 85.1679C6.86826 59.297 3.89197 38.234 -0.00011006 21.5209H175.83L219.101 134.162C223.222 144.465 226.427 153.394 228.488 160.72C230.548 168.275 233.296 179.265 236.272 193.688H241.996C244.743 175.144 247.948 162.094 250.467 154.767C251.611 151.104 254.13 144.236 258.022 134.162L301.521 21.5209H474.604C470.712 38.234 467.507 59.5259 465.218 85.3968C462.928 111.268 461.783 136.223 461.783 160.033V211.546C461.783 235.356 462.928 260.082 465.218 285.953C467.507 311.824 470.712 333.116 474.604 349.829H320.753C324.645 333.116 327.621 312.053 329.911 286.182C332.2 260.311 333.345 235.585 333.345 211.546V174.915H327.392L253.672 349.829H219.101L145.838 174.915H141.259V211.546C141.259 235.585 142.404 260.311 144.694 286.182C146.983 312.053 149.959 333.116 153.851 349.829ZM584.956 115.847C564.58 115.847 548.554 110.352 536.649 99.5914C524.743 88.831 518.791 74.8653 518.791 58.1523C518.791 41.4392 524.743 27.4735 536.649 16.4841C548.554 5.49474 564.58 4.56572e-05 584.956 4.56572e-05C605.332 4.56572e-05 621.588 5.49474 633.722 16.4841C645.627 27.4735 651.579 41.4392 651.579 58.1523C651.579 74.8653 645.627 88.831 633.722 99.5914C621.816 110.352 605.561 115.847 584.956 115.847ZM662.34 349.829H508.488C512.38 333.116 515.586 311.824 517.875 285.953C520.165 260.082 521.309 235.356 521.309 211.546V169.42C521.309 144.923 520.165 127.065 517.875 115.389C535.504 126.836 558.627 132.56 587.017 132.56C615.177 132.56 637.156 126.836 652.953 115.389C650.893 128.896 649.748 146.983 649.748 169.42V211.546C649.748 235.585 650.893 260.311 653.182 286.182C655.471 312.053 658.448 333.116 662.34 349.829ZM853.967 356.926C829.928 356.926 801.539 354.179 768.342 348.913C735.145 343.648 706.526 337.466 682.487 330.598L687.982 182.47C706.984 199.641 731.024 212.691 759.871 221.162C788.489 229.633 818.023 233.983 848.473 233.983C883.73 233.983 901.359 229.175 901.359 219.559C901.359 187.278 687.982 237.188 687.982 118.594C687.982 83.1073 706.755 55.6339 738.808 39.1498C770.86 22.8946 813.215 14.6526 863.812 14.6526C886.936 14.6526 911.433 16.7131 936.846 21.0631C962.259 25.413 983.551 30.4498 1000.72 36.1735V178.12C986.756 167.359 967.524 158.659 943.027 151.562C918.301 144.694 893.804 141.26 869.536 141.26C854.196 141.26 841.375 142.404 831.531 144.923C821.457 147.441 816.42 151.562 816.42 157.057C816.42 179.265 870.223 176.059 924.025 181.554C950.811 183.386 977.827 190.483 997.974 200.785C1018.12 211.088 1031.63 231.464 1031.63 258.938C1031.63 302.666 1003.47 329.224 959.282 343.419C929.062 353.263 894.949 356.926 853.967 356.926ZM1348.72 349.829H1049.49C1053.15 332.887 1056.13 311.366 1058.64 285.495C1060.93 259.624 1062.08 234.898 1062.08 211.546V160.033C1062.08 136.681 1060.93 111.955 1058.64 85.8547C1056.13 59.9838 1053.15 38.4629 1049.49 21.5209H1334.52L1353.76 165.07C1347.57 158.888 1337.73 154.309 1324.22 151.791C1310.71 149.273 1291.02 148.128 1264.7 148.128H1190.29V169.42H1244.09C1269.5 169.42 1290.34 168.733 1306.36 167.359V208.341C1291.71 206.738 1270.88 205.822 1244.09 205.822H1190.29V223.68H1245.92C1284.61 223.68 1312.77 221.848 1330.17 217.956C1347.57 214.064 1360.4 209.027 1368.41 202.617L1348.72 349.829Z" fill="#707269"/>
</svg>
